<svg width="538" height="624" viewBox="0 0 538 624" fill="none" xmlns="http://www.w3.org/2000/svg">
    <path d="M268.974 623.326C417.1 623.326 537.18 555.111 537.18 470.964C537.18 386.817 417.1 318.602 268.974 318.602C120.849 318.602 0.769043 386.817 0.769043 470.964C0.769043 555.111 120.849 623.326 268.974 623.326Z" fill="#F5F5F5"/>
    <path d="M380.585 567.031L180.38 451.433C178.619 450.418 177.156 448.957 176.139 447.197C175.122 445.438 174.587 443.441 174.587 441.408C174.587 439.376 175.122 437.379 176.139 435.619C177.156 433.859 178.619 432.398 180.38 431.384L200.13 418.93C203.539 416.966 207.404 415.933 211.339 415.933C215.273 415.933 219.138 416.966 222.547 418.93L422.779 534.542C424.54 535.557 426.003 537.017 427.02 538.777C428.037 540.537 428.573 542.534 428.573 544.566C428.573 546.599 428.037 548.596 427.02 550.355C426.003 552.115 424.54 553.576 422.779 554.591L403.03 567.031C399.619 569.005 395.748 570.045 391.807 570.045C387.867 570.045 383.996 569.005 380.585 567.031Z" fill="#E0E0E0"/>
    <path d="M76.1742 461.641C100.169 461.641 119.621 450.471 119.621 436.692C119.621 422.913 100.169 411.743 76.1742 411.743C52.1794 411.743 32.7278 422.913 32.7278 436.692C32.7278 450.471 52.1794 461.641 76.1742 461.641Z" fill="#E6E6E6"/>
    <path d="M451.58 467.357L470.636 478.314C470.636 478.314 460.904 447.73 466.089 416.901C468.049 405.25 472.255 399.465 473.725 396.349C475.195 393.232 486.588 373.972 476.447 365.152C466.307 356.332 442.719 374.067 443.999 421.529C444.58 437.064 447.128 452.463 451.58 467.357Z" fill="#1D83FF"/>
    <path opacity="0.5" d="M451.58 467.357L470.636 478.314C470.636 478.314 460.904 447.73 466.089 416.901C468.049 405.25 472.255 399.465 473.725 396.349C475.195 393.232 486.588 373.972 476.447 365.152C466.307 356.332 442.719 374.067 443.999 421.529C444.58 437.064 447.128 452.463 451.58 467.357Z" fill="black"/>
    <path d="M460.441 473.128C460.302 473.131 460.166 473.091 460.051 473.012C459.937 472.934 459.849 472.823 459.801 472.692C459.733 472.488 452.451 452.589 452.683 420.603C452.914 388.617 469.724 371.249 469.887 371.086C469.95 371.022 470.026 370.972 470.108 370.937C470.191 370.903 470.28 370.885 470.37 370.885C470.46 370.885 470.549 370.903 470.632 370.937C470.715 370.972 470.79 371.022 470.853 371.086C470.917 371.149 470.968 371.225 471.002 371.308C471.037 371.39 471.055 371.479 471.055 371.569C471.055 371.659 471.037 371.748 471.002 371.831C470.968 371.914 470.917 371.989 470.853 372.052C470.69 372.216 454.275 389.066 454.044 420.617C453.812 452.167 460.999 472.039 461.081 472.23C461.142 472.399 461.133 472.586 461.057 472.75C460.98 472.913 460.842 473.039 460.672 473.101C460.598 473.124 460.519 473.133 460.441 473.128Z" fill="white"/>
    <path d="M459.529 472.039L485.58 487.012C488.295 488.616 491.514 489.139 494.597 488.475C497.68 487.812 500.399 486.011 502.213 483.432C503.937 480.749 504.665 477.545 504.268 474.38C503.016 460.851 497.136 457.734 504.336 451.704C511.537 445.675 513.415 445.253 513.007 439.455C512.598 433.656 508.638 431.125 506.759 428.838C504.881 426.551 499.681 421.76 503.22 414.682C506.759 407.605 511.591 400.758 504.268 397.628C499.899 395.75 492.617 398.254 487.826 403.453C483.035 408.653 479.088 412.396 474.501 413.648C469.914 414.9 460.359 415.104 460.767 423.012C461.176 430.92 463.272 433.629 461.394 437.154C457.855 443.742 442.461 447.485 459.529 472.039Z" fill="#1D83FF"/>
    <path d="M472.405 480.097C472.235 480.092 472.073 480.026 471.948 479.911C471.823 479.796 471.744 479.64 471.724 479.471C471.724 479.009 467.723 432.295 499.845 401.208C499.977 401.099 500.146 401.043 500.318 401.053C500.489 401.063 500.65 401.138 500.769 401.262C500.888 401.386 500.956 401.55 500.958 401.722C500.961 401.894 500.899 402.06 500.784 402.188C469.125 432.826 473.045 478.886 473.085 479.349C473.101 479.527 473.045 479.705 472.93 479.842C472.816 479.98 472.651 480.067 472.473 480.084L472.405 480.097Z" fill="white"/>
    <path d="M477.564 439.89C477.392 439.891 477.227 439.827 477.101 439.711C476.975 439.595 476.897 439.435 476.883 439.264C476.598 435.644 475.579 432.12 473.887 428.907C472.195 425.694 469.866 422.86 467.042 420.576C466.969 420.525 466.906 420.459 466.858 420.383C466.81 420.307 466.777 420.222 466.762 420.134C466.747 420.045 466.75 419.955 466.77 419.867C466.79 419.779 466.827 419.697 466.879 419.623C466.929 419.55 466.994 419.488 467.069 419.44C467.143 419.392 467.227 419.36 467.314 419.344C467.402 419.329 467.491 419.332 467.578 419.351C467.665 419.371 467.746 419.408 467.818 419.46C470.827 421.846 473.308 424.831 475.102 428.226C476.897 431.621 477.967 435.352 478.244 439.183C478.259 439.365 478.202 439.545 478.085 439.685C477.968 439.826 477.8 439.914 477.618 439.931L477.564 439.89Z" fill="white"/>
    <path d="M475.345 447.907C475.18 447.909 475.021 447.851 474.896 447.744C474.761 447.623 474.678 447.455 474.665 447.274C474.653 447.094 474.711 446.915 474.828 446.777C475.154 446.396 483.198 437.522 502.05 439.876C502.228 439.9 502.39 439.994 502.5 440.137C502.61 440.279 502.658 440.46 502.635 440.639C502.611 440.818 502.518 440.981 502.376 441.093C502.233 441.205 502.053 441.257 501.873 441.238C483.77 438.964 475.917 447.594 475.835 447.676C475.773 447.745 475.698 447.801 475.613 447.841C475.529 447.881 475.438 447.903 475.345 447.907Z" fill="white"/>
    <path d="M374.487 553.216L198.415 451.555C185.988 444.382 175.916 425.136 175.916 408.571V31.5456C175.916 14.981 185.988 7.3724 198.415 14.5454L374.487 116.206C386.914 123.379 396.986 142.625 396.986 159.19V536.216C396.986 552.767 386.914 560.389 374.487 553.216Z" fill="#455A64"/>
    <path d="M394.768 104.351L218.682 2.69017C213.374 -0.372315 208.501 -0.726203 204.649 1.15212C204.177 1.38828 203.723 1.6566 203.288 1.95517L183.552 13.4293C187.526 11.0473 192.726 11.2243 198.429 14.5182L374.501 116.179C386.928 123.352 397 142.598 397 159.163V536.188C397 544.954 394.183 551.161 389.691 554.1L409.168 542.763C414.136 540.122 417.335 533.657 417.335 524.388V147.362C417.335 130.77 407.195 111.524 394.768 104.351Z" fill="#37474F"/>
    <path d="M396.986 159.163V536.188C396.986 544.954 394.169 551.16 389.677 554.1L409.168 542.762C414.136 540.122 417.335 533.657 417.335 524.387V147.362L397.054 159.135L396.986 159.163Z" fill="#263238"/>
    <path d="M417.267 176.612L396.986 188.318V197.464L417.267 185.745V176.612Z" fill="#37474F"/>
    <path d="M408.379 237.44C406.568 238.488 405.098 237.372 405.098 234.962V215.295C405.117 214.065 405.423 212.857 405.993 211.767C406.562 210.678 407.38 209.737 408.379 209.02C410.189 207.972 411.659 209.02 411.659 211.497V231.165C411.641 232.394 411.334 233.603 410.765 234.692C410.195 235.782 409.378 236.723 408.379 237.44Z" fill="#37474F"/>
    <path d="M405.085 235.017V215.294C405.103 214.065 405.41 212.857 405.979 211.767C406.549 210.677 407.366 209.736 408.365 209.02C408.664 208.811 409.012 208.683 409.374 208.65C409.737 208.617 410.102 208.678 410.434 208.829L407.971 207.563C407.634 207.401 407.26 207.331 406.887 207.36C406.514 207.388 406.155 207.515 405.847 207.727C404.847 208.443 404.029 209.384 403.457 210.474C402.885 211.563 402.575 212.771 402.553 214.001V233.656C402.502 234.152 402.578 234.654 402.773 235.113C402.968 235.572 403.277 235.975 403.669 236.283L406.242 237.644C405.832 237.349 405.509 236.95 405.306 236.488C405.102 236.026 405.026 235.518 405.085 235.017Z" fill="#455A64"/>
    <path d="M408.379 285.038C406.568 286.086 405.098 285.038 405.098 282.56V262.892C405.118 261.663 405.425 260.455 405.994 259.366C406.564 258.276 407.38 257.335 408.379 256.618C410.189 255.57 411.659 256.618 411.659 259.109V278.763C411.643 279.993 411.337 281.202 410.767 282.292C410.198 283.382 409.379 284.322 408.379 285.038Z" fill="#37474F"/>
    <path d="M405.085 282.56V262.892C405.105 261.663 405.411 260.455 405.981 259.366C406.551 258.276 407.367 257.335 408.365 256.618C408.666 256.412 409.013 256.287 409.375 256.254C409.737 256.221 410.102 256.28 410.434 256.427L407.971 255.148C407.636 254.978 407.261 254.904 406.886 254.933C406.512 254.962 406.153 255.092 405.847 255.311C404.845 256.026 404.025 256.966 403.453 258.056C402.88 259.146 402.572 260.355 402.554 261.586V281.294C402.501 281.791 402.576 282.293 402.771 282.752C402.967 283.212 403.276 283.614 403.67 283.921L406.242 285.282C405.816 284.981 405.482 284.566 405.278 284.085C405.073 283.605 405.007 283.077 405.085 282.56Z" fill="#455A64"/>
    <path d="M368.335 126.782L195.312 26.8497C194.589 26.4343 193.771 26.2149 192.938 26.2134C192.105 26.2118 191.286 26.4282 190.562 26.8409C189.839 27.2536 189.236 27.8484 188.813 28.5663C188.39 29.2841 188.162 30.1 188.152 30.933V408.571C188.152 421.175 197.095 436.651 208.011 442.953L376.787 540.449C377.588 540.909 378.495 541.151 379.419 541.15C380.342 541.15 381.249 540.906 382.049 540.444C382.849 539.982 383.513 539.318 383.975 538.519C384.437 537.719 384.681 536.812 384.682 535.889V155.134C384.75 144.735 377.373 131.981 368.335 126.782Z" fill="#1D83FF"/>
    <path opacity="0.9" d="M368.335 126.782L195.312 26.8497C194.589 26.4343 193.771 26.2149 192.938 26.2134C192.105 26.2118 191.286 26.4282 190.562 26.8409C189.839 27.2536 189.236 27.8484 188.813 28.5663C188.39 29.2841 188.162 30.1 188.152 30.933V408.571C188.152 421.175 197.095 436.651 208.011 442.953L376.787 540.449C377.588 540.909 378.495 541.151 379.419 541.15C380.342 541.15 381.249 540.906 382.049 540.444C382.849 539.982 383.513 539.318 383.975 538.519C384.437 537.719 384.681 536.812 384.682 535.889V155.134C384.75 144.735 377.373 131.981 368.335 126.782Z" fill="white"/>
    <path d="M247.061 52.9421L249.742 64.2257L307.099 97.3005L317.008 92.0194L247.061 52.9421Z" fill="#455A64"/>
    <path d="M263.925 63.8446C263.925 65.7229 262.564 66.4715 260.985 65.5459C260.137 64.9832 259.433 64.2295 258.93 63.3455C258.426 62.4614 258.137 61.4715 258.086 60.4554C258.086 58.5907 259.447 57.8285 261.026 58.7677C261.873 59.3275 262.577 60.0786 263.08 60.9605C263.584 61.8424 263.873 62.8303 263.925 63.8446Z" fill="#263238"/>
    <path d="M302.566 87.7319C302.253 87.7294 301.944 87.65 301.668 87.5005L272.377 71.1673C271.964 70.9244 271.661 70.5295 271.535 70.0668C271.409 69.6041 271.468 69.1104 271.701 68.6911C271.934 68.2717 272.321 67.96 272.781 67.8225C273.24 67.685 273.735 67.7326 274.16 67.9551L303.465 84.2883C303.821 84.4863 304.101 84.7971 304.262 85.1718C304.422 85.5465 304.453 85.9639 304.35 86.3583C304.247 86.7526 304.016 87.1016 303.693 87.3503C303.37 87.5989 302.974 87.7332 302.566 87.7319Z" fill="#263238"/>
    <path d="M224.439 105.44C222.656 104.405 221.363 105.304 221.363 107.577C221.363 108.713 221.644 109.833 222.18 110.835C222.717 111.837 223.493 112.691 224.439 113.321C224.946 113.628 225.527 113.791 226.12 113.791C226.713 113.791 227.294 113.628 227.801 113.321L230.646 118.466C229.645 119.018 228.51 119.281 227.369 119.226C226.227 119.17 225.123 118.799 224.18 118.153C221.869 116.739 219.942 114.777 218.57 112.441C217.198 110.105 216.423 107.466 216.313 104.759C216.313 99.7096 219.702 97.9538 224.371 100.676C227.007 102.374 229.167 104.716 230.646 107.481L227.801 109.741C227.099 108.024 225.936 106.535 224.439 105.44Z" fill="#1D83FF"/>
    <path d="M247.02 122.494C247.02 127.585 243.576 129.3 238.853 126.578C236.476 125.157 234.487 123.171 233.062 120.797C231.638 118.422 230.822 115.733 230.687 112.967C230.687 107.876 234.13 106.161 238.853 108.883C241.236 110.297 243.23 112.282 244.656 114.658C246.081 117.034 246.894 119.727 247.02 122.494ZM235.736 116.002C235.76 117.171 236.062 118.317 236.615 119.346C237.169 120.376 237.959 121.259 238.921 121.923C240.609 122.903 241.97 121.923 241.97 119.609C241.966 118.467 241.686 117.342 241.156 116.331C240.625 115.319 239.859 114.45 238.921 113.797C237.206 112.803 235.736 113.647 235.736 116.002Z" fill="#1D83FF"/>
    <path d="M252.505 117.091L258.385 129.341V120.521L262.836 123.093V140.257L258.753 137.889L252.9 125.748V134.513L248.422 131.927V114.723L252.505 117.091Z" fill="#1D83FF"/>
    <path d="M277.386 131.451V135.942L273.14 133.492V146.178L268.226 143.333V130.648L264.007 128.211V123.733L277.386 131.451Z" fill="#1D83FF"/>
    <path d="M286.968 151.731L281.388 148.505L280.625 150.492L275.589 147.58L281.864 134.037L286.914 136.949L292.957 157.611L287.717 154.589L286.968 151.731ZM285.757 146.967L284.232 141.101L282.667 145.184L285.757 146.967Z" fill="#1D83FF"/>
    <path d="M300.756 149.499C298.973 148.478 297.68 149.363 297.68 151.649C297.683 152.786 297.965 153.904 298.501 154.906C299.037 155.907 299.812 156.762 300.756 157.393C301.267 157.698 301.85 157.859 302.444 157.859C303.038 157.859 303.622 157.698 304.132 157.393L306.977 162.538C305.972 163.084 304.836 163.344 303.693 163.288C302.551 163.233 301.446 162.866 300.498 162.225C298.185 160.81 296.257 158.846 294.884 156.507C293.512 154.169 292.738 151.528 292.631 148.818C292.631 143.769 296.033 142.013 300.688 144.735C303.321 146.441 305.484 148.781 306.977 151.541L304.132 153.786C303.415 152.078 302.248 150.597 300.756 149.499Z" fill="#1D83FF"/>
    <path d="M320.397 156.291V160.769L316.15 158.319V171.045L311.237 168.2V155.515L307.017 153.079V148.601L320.397 156.291Z" fill="#1D83FF"/>
    <path d="M334.92 177.36C336.131 178.055 337.057 177.51 337.057 175.809V165.914L341.984 168.745V178.64C341.984 183.2 339.262 184.561 334.906 182.07C332.808 180.905 331.044 179.22 329.783 177.178C328.523 175.135 327.807 172.803 327.706 170.405V160.51L332.633 163.355V173.25C332.652 174.069 332.87 174.872 333.269 175.588C333.667 176.304 334.234 176.912 334.92 177.36Z" fill="#1D83FF"/>
    <path d="M349.919 177.415C349.361 177.102 349.007 177.088 349.007 177.606C349.007 179.756 356.698 182.86 356.698 189.08C356.698 192.891 353.798 192.904 350.45 190.972C347.507 189.168 344.971 186.772 343.005 183.935L344.829 180.723C346.325 183.04 348.246 185.053 350.491 186.657C351.212 187.079 351.675 187.079 351.675 186.466C351.675 184.234 343.971 181.267 343.971 175.237C343.971 171.807 346.476 171.154 350.341 173.332C352.831 174.838 355.023 176.79 356.806 179.089L355.023 182.383C353.551 180.507 351.834 178.837 349.919 177.415Z" fill="#1D83FF"/>
    <path d="M199.681 190.019C205.203 183.236 207.983 174.63 207.472 165.898C206.961 157.166 203.196 148.943 196.919 142.851C190.643 136.759 182.311 133.24 173.568 132.989C164.825 132.738 156.305 135.773 149.69 141.495C143.074 147.218 138.844 155.211 137.833 163.9C136.822 172.588 139.104 181.339 144.228 188.428C149.353 195.516 156.948 200.426 165.515 202.19C174.082 203.954 182.999 202.442 190.507 197.954L207.548 205.359L199.681 190.019Z" fill="#1D83FF"/>
    <path opacity="0.4" d="M199.681 190.019C205.203 183.236 207.983 174.63 207.472 165.898C206.961 157.166 203.196 148.943 196.919 142.851C190.643 136.759 182.311 133.24 173.568 132.989C164.825 132.738 156.305 135.773 149.69 141.495C143.074 147.218 138.844 155.211 137.833 163.9C136.822 172.588 139.104 181.339 144.228 188.428C149.353 195.516 156.948 200.426 165.515 202.19C174.082 203.954 182.999 202.442 190.507 197.954L207.548 205.359L199.681 190.019Z" fill="black"/>
    <path d="M159.61 166.063C159.61 165.533 159.229 165.233 158.534 165.233C156.924 165.444 155.42 166.153 154.233 167.261L152.301 163.505C154.335 161.974 156.793 161.109 159.337 161.027C162.604 161.027 165.081 162.742 165.081 165.301C165.081 167.125 163.72 168.881 161.978 170.637L159.542 173.046H165.299V177.048H152.927V173.767L158.439 168.064C159.033 167.539 159.443 166.838 159.61 166.063Z" fill="white"/>
    <path d="M175.371 161.259L171.615 170.269H173.153V167.234H177.889V170.269H179.686V173.985H177.889V177.048H173.153V173.985H166.415V170.61L170.499 161.259H175.371Z" fill="white"/>
    <path d="M194.305 169.194V177.047H189.241V170.65C189.27 170.442 189.255 170.23 189.195 170.028C189.135 169.827 189.033 169.64 188.895 169.481C188.756 169.323 188.586 169.195 188.395 169.108C188.203 169.021 187.995 168.976 187.785 168.976C186.791 168.976 186.165 169.752 186.165 170.95V177.047H181.102V160.36H186.165V166.499C186.561 165.873 187.113 165.361 187.767 165.012C188.421 164.664 189.154 164.491 189.895 164.512C190.501 164.496 191.105 164.609 191.665 164.842C192.225 165.076 192.73 165.425 193.147 165.867C193.563 166.309 193.881 166.833 194.081 167.407C194.28 167.98 194.356 168.589 194.305 169.194Z" fill="white"/>
    <path d="M359.406 295.667V464.785C359.409 466.697 358.908 468.577 357.954 470.235C356.999 471.892 355.625 473.269 353.969 474.227C352.313 475.184 350.434 475.689 348.522 475.689C346.609 475.69 344.73 475.187 343.073 474.231L251.988 421.638L235.845 412.328C230.287 409.114 225.669 404.497 222.454 398.939C219.239 393.38 217.539 387.076 217.525 380.655V211.524C217.522 209.611 218.023 207.732 218.978 206.074C219.932 204.416 221.307 203.04 222.962 202.082C224.618 201.124 226.497 200.62 228.41 200.619C230.322 200.618 232.202 201.122 233.858 202.078L341.113 263.995C346.674 267.204 351.292 271.82 354.504 277.38C357.715 282.94 359.406 289.247 359.406 295.667Z" fill="#1D83FF"/>
    <path opacity="0.5" d="M359.406 295.667V464.785C359.409 466.697 358.908 468.577 357.954 470.235C356.999 471.892 355.625 473.269 353.969 474.227C352.313 475.184 350.434 475.689 348.522 475.689C346.609 475.69 344.73 475.187 343.073 474.231L251.988 421.638L235.845 412.328C230.287 409.114 225.669 404.497 222.454 398.939C219.239 393.38 217.539 387.076 217.525 380.655V211.524C217.522 209.611 218.023 207.732 218.978 206.074C219.932 204.416 221.307 203.04 222.962 202.082C224.618 201.124 226.497 200.62 228.41 200.619C230.322 200.618 232.202 201.122 233.858 202.078L341.113 263.995C346.674 267.204 351.292 271.82 354.504 277.38C357.715 282.94 359.406 289.247 359.406 295.667Z" fill="white"/>
    <path d="M306.936 395.736C306.936 395.736 323.991 424.02 311.673 455.91L251.948 421.638L306.936 395.736Z" fill="#263238"/>
    <path d="M334.134 268.66C335.425 258.177 327.974 248.633 317.491 247.342C307.009 246.051 297.465 253.503 296.174 263.985C294.883 274.468 302.335 284.012 312.817 285.303C323.3 286.593 332.844 279.142 334.134 268.66Z" fill="#263238"/>
    <path d="M315.252 212.681C315.252 212.681 321.118 203.153 322.915 203.847C324.712 204.542 321.744 213.62 321.744 213.62C321.744 213.62 330.619 215.471 328.972 217.703C327.325 219.936 316.477 219.405 316.477 219.405L315.252 212.681Z" fill="#263238"/>
    <path d="M319.336 237.235C315.252 267.914 289.391 267.914 289.391 267.914L235.22 244.068C235.22 244.068 231.136 240.488 229.884 232.267C229.404 228.9 229.404 225.481 229.884 222.113C229.884 222.113 229.884 222.045 229.884 222.018C231.613 209.115 241.263 195.245 262.278 190.985C266.884 190.055 271.572 189.599 276.27 189.624C278.543 189.616 280.815 189.729 283.076 189.964C299.409 191.57 310.856 199.192 316.314 211.048C317.542 213.723 318.455 216.532 319.036 219.418C320.144 225.297 320.245 231.322 319.336 237.235Z" fill="#263238"/>
    <path d="M189.282 296.58C189.282 296.58 170.05 295.913 162.645 314.655C162.645 314.655 170.812 320.168 181.524 314.655C192.236 309.143 189.282 296.58 189.282 296.58Z" fill="#1D83FF"/>
    <path opacity="0.5" d="M189.282 296.58C189.282 296.58 170.05 295.913 162.645 314.655C162.645 314.655 170.812 320.168 181.524 314.655C192.236 309.143 189.282 296.58 189.282 296.58Z" fill="black"/>
    <path d="M188.738 305.604C188.738 305.604 183.293 281.948 180.421 281.662C177.549 281.376 176.991 288.876 177.223 293.109L170.417 278.463C170.201 278.008 169.894 277.602 169.516 277.27C169.137 276.938 168.694 276.687 168.214 276.533C167.735 276.379 167.229 276.324 166.728 276.373C166.226 276.422 165.74 276.573 165.299 276.816C158.494 280.559 146.557 291.938 171.724 320.072L188.738 305.604Z" fill="#945959"/>
    <path d="M258.426 289.243L254.343 288.712C250.228 288.167 246.042 288.726 242.214 290.334C238.387 291.941 235.057 294.538 232.565 297.859L208.27 330.199L189.214 296.579C189.214 296.579 186.928 319.446 162.577 314.655L188.724 358.659C190.379 361.445 192.682 363.79 195.438 365.494C198.193 367.199 201.32 368.213 204.551 368.449C207.783 368.686 211.024 368.138 213.998 366.853C216.973 365.568 219.593 363.584 221.636 361.068L244.012 333.561L258.426 289.243Z" fill="#1D83FF"/>
    <path d="M310.284 364.716C304.84 378.518 304.241 381.213 307.562 388.114C309.875 393.21 311.698 398.515 313.007 403.957C313.007 403.957 287.772 432.241 251.852 421.651L235.71 412.341C232.353 410.405 229.329 407.942 226.754 405.046L231.667 368.405C231.914 366.476 231.719 364.517 231.095 362.675L225.937 347.553C223.42 340.167 223.045 332.219 224.856 324.629C226.668 317.04 230.591 310.118 236.172 304.664L253.513 287.719L299.055 293.544L305.861 295.491C310.316 296.779 314.157 299.632 316.677 303.525C319.198 307.419 320.229 312.091 319.581 316.683C317.349 332.744 313.701 356.046 310.284 364.716Z" fill="#1D83FF"/>
    <path opacity="0.5" d="M310.284 364.716C304.84 378.518 304.241 381.213 307.562 388.114C309.875 393.21 311.698 398.515 313.007 403.957C313.007 403.957 287.772 432.241 251.852 421.651L235.71 412.341C232.353 410.405 229.329 407.942 226.754 405.046L231.667 368.405C231.914 366.476 231.719 364.517 231.095 362.675L225.937 347.553C223.42 340.167 223.045 332.219 224.856 324.629C226.668 317.04 230.591 310.118 236.172 304.664L253.513 287.719L299.055 293.544L305.861 295.491C310.316 296.779 314.157 299.632 316.677 303.525C319.198 307.419 320.229 312.091 319.581 316.683C317.349 332.744 313.701 356.046 310.284 364.716Z" fill="black"/>
    <path d="M282.818 323.488L273.698 315.716C272.732 314.89 271.568 314.33 270.319 314.091C269.071 313.853 267.782 313.944 266.58 314.355L255.555 318.153L254.071 311.973C253.84 311.012 253.416 310.107 252.825 309.314C252.234 308.521 251.489 307.856 250.635 307.359C249.78 306.861 248.833 306.542 247.852 306.421C246.87 306.299 245.875 306.378 244.924 306.652L240.147 308.013L248.232 292.523C250.872 287.479 254.938 283.322 259.924 280.573L263.095 278.831L289.296 280.192C289.296 280.192 299.056 284.275 299.056 293.462L282.818 323.407" fill="#1D83FF"/>
    <path d="M289.405 291.802L263.136 312.273V247.09H289.405V291.802Z" fill="#945959"/>
    <path d="M263.544 286.426L255.554 318.208L289.296 291.802L263.544 286.426Z" fill="#945959"/>
    <path d="M263.136 281.702C268.977 279.534 274.317 276.2 278.83 271.904C283.344 267.608 286.937 262.44 289.392 256.713V247.09H263.122L263.136 281.702Z" fill="#703838"/>
    <path d="M268.798 198.784C258.835 198.784 237.656 204.337 235.206 230.416C232.756 256.495 235.125 276.694 248.572 278.654C262.02 280.614 293.271 270.855 297.463 237.099C301.655 203.344 278.503 198.784 268.798 198.784Z" fill="#945959"/>
    <path d="M253.118 241.455V256.821L244.108 254.058L253.118 241.455Z" fill="#703838"/>
    <path d="M263.136 247.239C264.865 247.239 266.266 245.838 266.266 244.109C266.266 242.38 264.865 240.978 263.136 240.978C261.407 240.978 260.005 242.38 260.005 244.109C260.005 245.838 261.407 247.239 263.136 247.239Z" fill="#263238"/>
    <path d="M245.659 241.931C245.656 242.55 245.47 243.153 245.125 243.667C244.779 244.18 244.289 244.579 243.717 244.814C243.145 245.048 242.516 245.108 241.909 244.986C241.303 244.864 240.747 244.565 240.31 244.126C239.874 243.688 239.577 243.13 239.457 242.523C239.337 241.916 239.4 241.288 239.638 240.716C239.875 240.145 240.276 239.657 240.791 239.314C241.305 238.97 241.91 238.787 242.528 238.787C242.941 238.787 243.349 238.868 243.73 239.026C244.11 239.185 244.456 239.416 244.747 239.709C245.038 240.001 245.268 240.347 245.425 240.729C245.581 241.11 245.661 241.519 245.659 241.931Z" fill="#263238"/>
    <path d="M238.704 235.398L244.829 231.764C244.829 231.764 242.488 229.327 240.147 230.784C237.806 232.24 238.704 235.398 238.704 235.398Z" fill="#263238"/>
    <path d="M248.885 263.055C251.868 263.273 254.837 262.477 257.31 260.796C257.31 260.796 257.896 265.247 254.166 266.091C250.437 266.934 248.885 263.055 248.885 263.055Z" fill="#703838"/>
    <path d="M243.536 207.659C243.536 207.659 247.279 243.66 296.238 244.789C296.238 244.789 311.033 209.006 281.797 197.382C252.56 185.758 243.536 207.659 243.536 207.659Z" fill="#263238"/>
    <path d="M310.652 239.4L304.635 235.915C302.349 234.554 299.191 234.745 295.693 236.759C288.751 240.761 283.116 250.52 283.116 258.537C283.116 262.552 284.478 265.342 286.819 266.703L292.726 270.106L293.066 270.297L293.27 270.419C295.502 271.508 298.483 271.249 301.764 269.358C308.705 265.274 314.34 255.597 314.34 247.58C314.299 243.524 312.897 240.72 310.652 239.4Z" fill="#1D83FF"/>
    <path d="M310.604 259.9C315.513 251.398 315.513 242.209 310.604 239.375C305.696 236.541 297.737 241.136 292.829 249.638C287.92 258.14 287.92 267.33 292.828 270.164C297.737 272.998 305.696 268.403 310.604 259.9Z" fill="#1D83FF"/>
    <path opacity="0.5" d="M310.604 259.9C315.513 251.398 315.513 242.209 310.604 239.375C305.696 236.541 297.737 241.136 292.829 249.638C287.92 258.14 287.92 267.33 292.828 270.164C297.737 272.998 305.696 268.403 310.604 259.9Z" fill="black"/>
    <path d="M313.061 246.954L308.977 244.572C307.426 243.646 305.262 243.769 302.866 245.143C300.364 246.779 298.281 248.98 296.787 251.569C295.292 254.158 294.428 257.062 294.264 260.047C294.264 262.77 295.23 264.716 296.796 265.614L300.879 267.942C300.951 267.995 301.029 268.04 301.11 268.078L301.246 268.16C302.204 268.523 303.235 268.645 304.251 268.517C305.266 268.389 306.235 268.014 307.072 267.425C309.573 265.79 311.654 263.591 313.148 261.005C314.642 258.418 315.508 255.517 315.674 252.534C315.565 249.771 314.612 247.852 313.061 246.954Z" fill="#1D83FF"/>
    <path d="M315.565 252.507C315.399 255.489 314.534 258.391 313.039 260.978C311.545 263.564 309.464 265.763 306.963 267.397C302.199 270.12 298.347 267.915 298.347 262.429C298.509 259.444 299.373 256.539 300.87 253.952C302.368 251.364 304.455 249.167 306.963 247.539C311.713 244.789 315.565 247.008 315.565 252.507Z" fill="#1D83FF"/>
    <path opacity="0.3" d="M315.565 252.507C315.399 255.489 314.534 258.391 313.039 260.978C311.545 263.564 309.464 265.763 306.963 267.397C302.199 270.12 298.347 267.915 298.347 262.429C298.509 259.444 299.373 256.539 300.87 253.952C302.368 251.364 304.455 249.167 306.963 247.539C311.713 244.789 315.565 247.008 315.565 252.507Z" fill="black"/>
    <path d="M291.964 191.761C288.062 188.747 283.283 187.089 278.353 187.038H277.142C272.149 186.984 267.164 187.44 262.265 188.399C263.163 188.399 264.061 188.399 264.987 188.399H262.265V190.931H264.796C273.521 191.227 281.789 194.905 287.852 201.187C293.915 207.468 297.298 215.861 297.286 224.591V235.303C297.285 235.726 297.374 236.145 297.546 236.532C297.718 236.919 297.969 237.265 298.284 237.549C298.598 237.833 298.969 238.047 299.371 238.178C299.774 238.309 300.199 238.355 300.621 238.311H300.934L303.656 237.467C303.474 237.524 303.287 237.561 303.098 237.576C303.909 237.466 304.652 237.061 305.184 236.438C305.716 235.816 306.001 235.019 305.983 234.2V224.264C305.956 206.284 298.184 196.62 291.964 191.761Z" fill="#1D83FF"/>
    <path d="M274.828 277.905C273.705 277.905 272.596 277.664 271.575 277.197L263.068 273.264C262.935 273.216 262.813 273.141 262.71 273.044C262.608 272.947 262.526 272.83 262.471 272.7C262.416 272.57 262.389 272.43 262.391 272.288C262.393 272.147 262.424 272.008 262.483 271.879C262.541 271.75 262.626 271.635 262.731 271.541C262.837 271.447 262.96 271.376 263.095 271.332C263.229 271.288 263.371 271.273 263.512 271.287C263.652 271.3 263.789 271.343 263.912 271.413L272.419 275.346C273.504 275.851 274.719 276.004 275.895 275.784C277.071 275.565 278.149 274.983 278.979 274.121L287.146 265.682C287.337 265.491 287.597 265.384 287.867 265.384C288.138 265.384 288.397 265.491 288.589 265.682C288.776 265.875 288.882 266.134 288.882 266.404C288.882 266.673 288.776 266.932 288.589 267.125L280.422 275.564C279.695 276.31 278.825 276.903 277.863 277.305C276.902 277.707 275.87 277.911 274.828 277.905Z" fill="#1D83FF"/>
    <path opacity="0.5" d="M274.828 277.905C273.705 277.905 272.596 277.664 271.575 277.197L263.068 273.264C262.935 273.216 262.813 273.141 262.71 273.044C262.608 272.947 262.526 272.83 262.471 272.7C262.416 272.57 262.389 272.43 262.391 272.288C262.393 272.147 262.424 272.008 262.483 271.879C262.541 271.75 262.626 271.635 262.731 271.541C262.837 271.447 262.96 271.376 263.095 271.332C263.229 271.288 263.371 271.273 263.512 271.287C263.652 271.3 263.789 271.343 263.912 271.413L272.419 275.346C273.504 275.851 274.719 276.004 275.895 275.784C277.071 275.565 278.149 274.983 278.979 274.121L287.146 265.682C287.337 265.491 287.597 265.384 287.867 265.384C288.138 265.384 288.397 265.491 288.589 265.682C288.776 265.875 288.882 266.134 288.882 266.404C288.882 266.673 288.776 266.932 288.589 267.125L280.422 275.564C279.695 276.31 278.825 276.903 277.863 277.305C276.902 277.707 275.87 277.911 274.828 277.905Z" fill="black"/>
    <path d="M265.3 270.405C265.3 271.191 265.067 271.96 264.63 272.613C264.193 273.267 263.573 273.776 262.846 274.077C262.12 274.378 261.321 274.457 260.55 274.303C259.779 274.15 259.071 273.772 258.515 273.216C257.959 272.66 257.581 271.952 257.427 271.181C257.274 270.41 257.353 269.611 257.654 268.884C257.954 268.158 258.464 267.537 259.117 267.101C259.771 266.664 260.539 266.431 261.326 266.431C262.38 266.431 263.39 266.85 264.136 267.595C264.881 268.34 265.3 269.351 265.3 270.405Z" fill="#1D83FF"/>
    <path opacity="0.5" d="M265.3 270.405C265.3 271.191 265.067 271.96 264.63 272.613C264.193 273.267 263.573 273.776 262.846 274.077C262.12 274.378 261.321 274.457 260.55 274.303C259.779 274.15 259.071 273.772 258.515 273.216C257.959 272.66 257.581 271.952 257.427 271.181C257.274 270.41 257.353 269.611 257.654 268.884C257.954 268.158 258.464 267.537 259.117 267.101C259.771 266.664 260.539 266.431 261.326 266.431C262.38 266.431 263.39 266.85 264.136 267.595C264.881 268.34 265.3 269.351 265.3 270.405Z" fill="black"/>
    <path d="M305.956 224.264V234.2C305.974 235.019 305.689 235.816 305.157 236.438C304.625 237.061 303.882 237.466 303.071 237.576C302.622 237.624 302.169 237.576 301.74 237.437C301.311 237.298 300.916 237.07 300.581 236.769C300.246 236.467 299.978 236.098 299.795 235.686C299.612 235.274 299.517 234.828 299.518 234.377V224.264C299.526 219.438 298.557 214.659 296.67 210.217C294.783 205.775 292.017 201.76 288.538 198.414C285.059 195.069 280.939 192.462 276.426 190.75C271.913 189.038 267.101 188.257 262.278 188.453C267.178 187.495 272.163 187.039 277.155 187.092H278.339C283.269 187.143 288.048 188.802 291.95 191.815C298.184 196.62 305.956 206.284 305.956 224.264Z" fill="#1D83FF"/>
    <path opacity="0.5" d="M305.956 224.264V234.2C305.974 235.019 305.689 235.816 305.157 236.438C304.625 237.061 303.882 237.466 303.071 237.576C302.622 237.624 302.169 237.576 301.74 237.437C301.311 237.298 300.916 237.07 300.581 236.769C300.246 236.467 299.978 236.098 299.795 235.686C299.612 235.274 299.517 234.828 299.518 234.377V224.264C299.526 219.438 298.557 214.659 296.67 210.217C294.783 205.775 292.017 201.76 288.538 198.414C285.059 195.069 280.939 192.462 276.426 190.75C271.913 189.038 267.101 188.257 262.278 188.453C267.178 187.495 272.163 187.039 277.155 187.092H278.339C283.269 187.143 288.048 188.802 291.95 191.815C298.184 196.62 305.956 206.284 305.956 224.264Z" fill="black"/>
    <path d="M290.657 411.511C290.657 411.511 284.069 429.655 307.616 437.821C307.616 437.821 315.307 426.524 307.616 417.282C299.926 408.04 290.657 411.511 290.657 411.511Z" fill="#1D83FF"/>
    <path opacity="0.7" d="M290.657 411.511C290.657 411.511 284.069 429.655 307.616 437.821C307.616 437.821 315.307 426.524 307.616 417.282C299.926 408.04 290.657 411.511 290.657 411.511Z" fill="black"/>
    <path d="M298.919 412.342C298.919 412.342 275.917 420.767 276.039 424.034C276.162 427.3 285.812 425.068 285.812 425.068L282.287 427.382C278.574 429.804 275.699 433.312 274.052 437.427C273.693 438.334 273.68 439.342 274.017 440.259C274.353 441.175 275.015 441.935 275.876 442.395L284.614 447.023C285.107 447.285 285.648 447.445 286.205 447.494C286.761 447.543 287.322 447.48 287.854 447.309C288.385 447.137 288.877 446.861 289.3 446.496C289.724 446.132 290.069 445.686 290.317 445.185C290.804 444.223 291.477 443.366 292.297 442.666C293.117 441.965 294.068 441.433 295.095 441.102C299.845 439.523 308.706 434.977 312.258 422.536L298.919 412.342Z" fill="#945959"/>
    <path d="M305.82 295.464C305.82 295.464 293.57 302.269 300.076 322.931C306.582 343.592 318.791 375.646 318.791 375.646L290.657 411.511C293.663 411.874 296.558 412.866 299.154 414.423C301.751 415.981 303.989 418.068 305.724 420.549C307.386 423.072 308.425 425.954 308.754 428.957C309.083 431.96 308.693 434.999 307.616 437.821L342.542 392.905C345.772 388.754 347.917 383.864 348.782 378.676C349.647 373.488 349.205 368.166 347.497 363.192L332.525 319.473C330.694 314.133 327.653 309.289 323.639 305.319C319.625 301.35 314.746 298.363 309.386 296.593L305.82 295.464Z" fill="#1D83FF"/>
    <path d="M99.0405 173.413L44.9094 142.108C44.2865 141.676 43.5657 141.406 42.8124 141.323C42.059 141.24 41.2968 141.346 40.5947 141.631C40.4467 141.7 40.3055 141.782 40.1728 141.876L28.3992 148.777H28.4809C26.9973 149.621 26.0581 151.581 26.0581 154.385V214.6C26.0581 219.691 29.1478 225.612 32.9725 227.816L87.1036 259.122C87.7904 259.619 88.608 259.903 89.4549 259.939C90.3018 259.975 91.1406 259.762 91.8675 259.326C91.8307 259.341 91.798 259.364 91.7722 259.394L103.464 252.589C104.988 251.772 105.955 249.785 105.955 246.94V186.629C105.955 181.539 102.92 175.618 99.0405 173.413Z" fill="#1D83FF"/>
    <path d="M104.022 179.116C102.927 176.787 101.201 174.811 99.0407 173.413L44.9096 142.108C44.2867 141.676 43.5659 141.406 42.8126 141.323C42.0592 141.24 41.297 141.346 40.5949 141.631C40.4469 141.7 40.3057 141.782 40.173 141.876L28.3994 148.777C29.1196 148.409 29.9272 148.246 30.7338 148.306C31.5404 148.366 32.3149 148.647 32.9727 149.117L87.1038 180.423C89.3381 181.884 91.1088 183.952 92.2079 186.384L104.022 179.116Z" fill="#1D83FF"/>
    <path d="M94.0183 253.827C94.0183 256.549 93.1472 258.441 91.7725 259.271L103.464 252.466C104.989 251.649 105.955 249.662 105.955 246.817V186.629C105.898 184.009 105.236 181.438 104.022 179.116L92.208 186.384C93.3423 188.638 93.9607 191.116 94.0183 193.639V253.827Z" fill="#1D83FF"/>
    <path opacity="0.3" d="M104.022 179.116C102.927 176.787 101.201 174.811 99.0407 173.413L44.9096 142.108C44.2867 141.676 43.5659 141.406 42.8126 141.323C42.0592 141.24 41.297 141.346 40.5949 141.631C40.4469 141.7 40.3057 141.782 40.173 141.876L28.3994 148.777C29.1196 148.409 29.9272 148.246 30.7338 148.306C31.5404 148.366 32.3149 148.647 32.9727 149.117L87.1038 180.423C89.3381 181.884 91.1088 183.952 92.2079 186.384L104.022 179.116Z" fill="black"/>
    <path opacity="0.6" d="M94.0183 253.827C94.0183 256.549 93.1472 258.441 91.7725 259.271L103.464 252.466C104.989 251.649 105.955 249.662 105.955 246.817V186.629C105.898 184.009 105.236 181.438 104.022 179.116L92.208 186.384C93.3423 188.638 93.9607 191.116 94.0183 193.639V253.827Z" fill="black"/>
    <path d="M78.1474 210.884C78.1474 218.684 75.0577 221.338 70.4299 218.656C69.1533 217.93 68.037 216.952 67.1481 215.782C66.2592 214.613 65.6162 213.275 65.2577 211.851C63.8966 213.525 61.7869 213.634 58.8197 211.919C53.9469 209.101 50.1086 202.391 50.1086 195.871C50.1086 189.352 53.9061 187.106 58.8197 189.937C61.313 191.406 63.327 193.567 64.618 196.157V193.585L69.7494 196.552V210.653C69.6729 211.395 69.8013 212.144 70.1204 212.818C70.4395 213.492 70.9373 214.066 71.5596 214.478C73.2882 215.485 74.3499 213.784 74.3499 208.734C74.3499 199.9 68.6877 190.536 60.3169 185.704C51.9461 180.872 46.2975 184.234 46.2975 193.326C46.4072 198.151 47.7366 202.869 50.1618 207.041C52.5871 211.213 56.0291 214.703 60.1672 217.186C62.414 218.57 64.9655 219.383 67.5988 219.555L68.8102 224.25C65.744 224.003 62.781 223.028 60.1672 221.406C49.2784 215.104 42.0781 202.418 42.0781 190.931C42.0781 179.443 49.3464 175.278 60.3169 181.621C70.9199 187.732 78.1474 199.968 78.1474 210.884ZM64.6997 204.338C64.7261 202.612 64.305 200.908 63.4773 199.394C62.6495 197.879 61.4435 196.604 59.9766 195.695C57.2544 194.102 55.308 195.218 55.308 198.92C55.273 200.649 55.6843 202.358 56.5021 203.881C57.3198 205.405 58.5165 206.692 59.9766 207.618C62.6988 209.156 64.6997 208.162 64.6997 204.338Z" fill="#1D83FF"/>
    <g opacity="0.9">
    <path opacity="0.9" d="M78.1474 210.884C78.1474 218.684 75.0577 221.338 70.4299 218.656C69.1533 217.93 68.037 216.952 67.1481 215.782C66.2592 214.613 65.6162 213.275 65.2577 211.851C63.8966 213.525 61.7869 213.634 58.8197 211.919C53.9469 209.101 50.1086 202.391 50.1086 195.871C50.1086 189.352 53.9061 187.106 58.8197 189.937C61.313 191.406 63.327 193.567 64.618 196.157V193.585L69.7494 196.552V210.653C69.6729 211.395 69.8013 212.144 70.1204 212.818C70.4395 213.492 70.9373 214.066 71.5596 214.478C73.2882 215.485 74.3499 213.784 74.3499 208.734C74.3499 199.9 68.6877 190.536 60.3169 185.704C51.9461 180.872 46.2975 184.234 46.2975 193.326C46.4072 198.151 47.7366 202.869 50.1618 207.041C52.5871 211.213 56.0291 214.703 60.1672 217.186C62.414 218.57 64.9655 219.383 67.5988 219.555L68.8102 224.25C65.744 224.003 62.781 223.028 60.1672 221.406C49.2784 215.104 42.0781 202.418 42.0781 190.931C42.0781 179.443 49.3464 175.278 60.3169 181.621C70.9199 187.732 78.1474 199.968 78.1474 210.884ZM64.6997 204.338C64.7261 202.612 64.305 200.908 63.4773 199.394C62.6495 197.879 61.4435 196.604 59.9766 195.695C57.2544 194.102 55.308 195.218 55.308 198.92C55.273 200.649 55.6843 202.358 56.5021 203.881C57.3198 205.405 58.5165 206.692 59.9766 207.618C62.6988 209.156 64.6997 208.162 64.6997 204.338Z" fill="white"/>
    </g>
    <path d="M99.0405 280.641L44.9094 249.335C44.2873 248.901 43.5657 248.631 42.8114 248.55C42.0572 248.469 41.2947 248.58 40.5947 248.873C40.4467 248.941 40.3055 249.023 40.1728 249.118L28.3992 256.018H28.4809C26.9973 256.862 26.0581 258.822 26.0581 261.613V321.801C26.0581 326.905 29.1478 332.812 32.9725 335.017L87.1036 366.322C87.789 366.822 88.607 367.109 89.4546 367.145C90.3023 367.181 91.1418 366.966 91.8675 366.526L91.7722 366.608L103.464 359.735C104.988 358.932 105.955 357.012 105.955 354.086V293.844C105.955 288.753 102.92 282.846 99.0405 280.641Z" fill="#1D83FF"/>
    <path d="M104.022 286.344C102.931 284.012 101.204 282.036 99.0407 280.641L44.9096 249.335C44.2875 248.901 43.5659 248.631 42.8116 248.55C42.0574 248.469 41.2949 248.58 40.5949 248.873C40.4469 248.941 40.3057 249.023 40.173 249.118L28.3994 256.018C29.118 255.647 29.9251 255.481 30.732 255.538C31.5389 255.596 32.3143 255.875 32.9727 256.345L87.1038 287.651C89.3416 289.113 91.1129 291.187 92.2079 293.626L104.022 286.344Z" fill="#1D83FF"/>
    <path d="M94.0183 361.041C94.0183 363.764 93.1472 365.656 91.7725 366.554L103.464 359.68C104.989 358.877 105.955 356.958 105.955 354.032V293.844C105.897 291.228 105.236 288.662 104.022 286.344L92.208 293.612C93.3421 295.861 93.9605 298.335 94.0183 300.853V361.041Z" fill="#1D83FF"/>
    <path opacity="0.3" d="M104.022 286.344C102.931 284.012 101.204 282.036 99.0407 280.641L44.9096 249.335C44.2875 248.901 43.5659 248.631 42.8116 248.55C42.0574 248.469 41.2949 248.58 40.5949 248.873C40.4469 248.941 40.3057 249.023 40.173 249.118L28.3994 256.018C29.118 255.647 29.9251 255.481 30.732 255.538C31.5389 255.596 32.3143 255.875 32.9727 256.345L87.1038 287.651C89.3416 289.113 91.1129 291.187 92.2079 293.626L104.022 286.344Z" fill="black"/>
    <path opacity="0.6" d="M94.0183 361.041C94.0183 363.764 93.1472 365.656 91.7725 366.554L103.464 359.68C104.989 358.877 105.955 356.958 105.955 354.032V293.844C105.897 291.228 105.236 288.662 104.022 286.344L92.208 293.612C93.3421 295.861 93.9605 298.335 94.0183 300.853V361.041Z" fill="black"/>
    <path d="M53.988 307.55L40.9351 286.344V315.077L53.988 307.55Z" fill="#1D83FF"/>
    <path d="M66.1155 313.661L79.1412 336.215V307.523L66.1155 313.661Z" fill="#1D83FF"/>
    <path d="M42.9087 285.378L56.3156 307.155C56.3723 307.203 56.4226 307.258 56.4653 307.319C56.4771 307.372 56.4771 307.428 56.4653 307.482L60.4533 313.961L63.8288 312.368C63.8814 312.311 63.9409 312.261 64.0058 312.219C64.1388 312.141 64.2878 312.094 64.4413 312.083L78.0524 305.699L42.9087 285.378Z" fill="#1D83FF"/>
    <path d="M64.1419 314.587L60.4941 316.302C60.3536 316.367 60.1999 316.4 60.0449 316.397C59.8571 316.399 59.6719 316.353 59.5073 316.262C59.3427 316.172 59.2044 316.04 59.1058 315.88L55.1177 309.401L42.0239 316.969L77.2629 337.304L64.1419 314.587Z" fill="#1D83FF"/>
    <g opacity="0.9">
    <path opacity="0.9" d="M53.988 307.55L40.9351 286.344V315.077L53.988 307.55Z" fill="white"/>
    <path opacity="0.9" d="M66.1155 313.662L79.1412 336.215V307.523L66.1155 313.662Z" fill="white"/>
    <path opacity="0.9" d="M42.9087 285.378L56.3156 307.155C56.3723 307.203 56.4226 307.258 56.4653 307.319C56.4771 307.372 56.4771 307.428 56.4653 307.482L60.4533 313.961L63.8288 312.368C63.8814 312.311 63.9409 312.261 64.0058 312.219C64.1388 312.141 64.2878 312.094 64.4413 312.083L78.0524 305.699L42.9087 285.378Z" fill="white"/>
    <path opacity="0.9" d="M64.1419 314.587L60.4941 316.302C60.3536 316.368 60.1999 316.4 60.0449 316.397C59.8571 316.4 59.6719 316.353 59.5073 316.262C59.3427 316.172 59.2044 316.04 59.1058 315.88L55.1177 309.401L42.0239 316.969L77.2629 337.304L64.1419 314.587Z" fill="white"/>
    </g>
    <path d="M99.0415 66.2402L44.9104 34.9348C44.2883 34.5007 43.5667 34.2306 42.8124 34.1497C42.0581 34.0688 41.2957 34.1797 40.5957 34.472C40.4477 34.5404 40.3064 34.6224 40.1737 34.717L28.4002 41.6178H28.4818C26.9982 42.4481 26.0591 44.4217 26.0591 47.212V107.4C26.0591 112.49 29.1488 118.411 32.9735 120.616L87.1046 151.922C87.79 152.422 88.608 152.708 89.4556 152.744C90.3033 152.781 91.1428 152.565 91.8684 152.126L91.7732 152.194L103.465 145.388C104.989 144.585 105.956 142.666 105.956 139.74V79.4021C105.956 74.3115 102.921 68.3907 99.0415 66.2402Z" fill="#1D83FF"/>
    <path d="M104.022 71.9021C102.931 69.5669 101.205 67.5858 99.0407 66.1855L44.9096 34.9346C44.2875 34.5004 43.5659 34.2304 42.8116 34.1495C42.0574 34.0686 41.2949 34.1794 40.5949 34.4718C40.4469 34.5401 40.3057 34.6221 40.173 34.7168L28.3994 41.6176C29.118 41.246 29.9251 41.0799 30.732 41.1375C31.5389 41.1952 32.3143 41.4743 32.9727 41.9443L87.1038 73.2496C89.3416 74.7123 91.1129 76.786 92.2079 79.2249L104.022 71.9021Z" fill="#1D83FF"/>
    <path d="M94.0183 146.545C94.0183 149.267 93.1472 151.159 91.7725 151.989L103.464 145.184C104.989 144.381 105.955 142.462 105.955 139.535V79.4018C105.897 76.7863 105.236 74.2196 104.022 71.9021L92.208 79.1704C93.3421 81.4195 93.9605 83.8932 94.0183 86.4115V146.545Z" fill="#1D83FF"/>
    <path opacity="0.3" d="M104.022 71.9021C102.931 69.5669 101.205 67.5858 99.0407 66.1855L44.9096 34.9346C44.2875 34.5004 43.5659 34.2304 42.8116 34.1495C42.0574 34.0686 41.2949 34.1794 40.5949 34.4718C40.4469 34.5401 40.3057 34.6221 40.173 34.7168L28.3994 41.6176C29.118 41.246 29.9251 41.0799 30.732 41.1375C31.5389 41.1952 32.3143 41.4743 32.9727 41.9443L87.1038 73.2496C89.3416 74.7123 91.1129 76.786 92.2079 79.2249L104.022 71.9021Z" fill="black"/>
    <path opacity="0.6" d="M94.0183 146.545C94.0183 149.267 93.1472 151.159 91.7725 151.989L103.464 145.184C104.989 144.381 105.955 142.462 105.955 139.535V79.4018C105.897 76.7863 105.236 74.2196 104.022 71.9021L92.208 79.1704C93.3421 81.4195 93.9605 83.8932 94.0183 86.4115V146.545Z" fill="black"/>
    <path d="M76.3102 120.684C74.2277 117.254 72.1316 113.879 70.0491 110.421C69.7188 109.766 69.257 109.187 68.6926 108.718C68.1282 108.25 67.4733 107.903 66.7688 107.699C65.7616 107.495 64.7544 107.264 63.72 106.964C63.3516 106.811 63.0417 106.544 62.8353 106.202C59.4276 100.37 56.7185 94.1566 54.7639 87.6909C54.7223 87.5527 54.7105 87.4072 54.7293 87.2641C54.7481 87.121 54.797 86.9835 54.8728 86.8606C55.5125 86.2209 56.2339 85.6356 56.8872 85.064C57.5406 84.4923 57.8808 83.172 57.4044 81.457C56.3972 77.8229 55.4309 74.1887 54.4236 70.5682C54.2287 69.5395 53.7663 68.5802 53.083 67.787C52.3996 66.9937 51.5194 66.3944 50.5309 66.0493C48.3359 65.4391 46.0057 65.5247 43.8615 66.2943C43.0312 66.6074 42.5956 67.356 42.582 68.6491C42.9359 71.1399 43.1673 73.6035 43.6437 76.1351C47.0011 94.3921 55.077 111.179 67.8713 126.496C68.2054 127.004 68.6541 127.426 69.1813 127.729C69.7086 128.031 70.2995 128.206 70.9066 128.238C73.0248 128.188 75.0598 127.404 76.6641 126.02C77.8754 124.931 77.7529 122.998 76.3102 120.684Z" fill="#1D83FF"/>
    <path d="M76.1468 102.132C75.862 98.2172 74.783 94.4011 72.9754 90.9167C71.6258 88.1947 69.9083 85.6711 67.8713 83.417C67.3404 82.8181 66.8913 82.6276 66.619 83.0767C66.3468 83.5259 66.619 84.1656 67.1363 84.7509L67.6671 85.3634C71.4292 89.706 73.8001 95.0786 74.4726 100.785C74.466 101.201 74.5071 101.616 74.5951 102.023C74.7661 102.491 75.0406 102.915 75.3982 103.262C75.684 103.466 76.0107 103.262 76.242 103.262C76.1604 102.704 76.174 102.418 76.1468 102.132Z" fill="#1D83FF"/>
    <path d="M63.815 90.9575C65.5243 92.8375 66.5629 95.2305 66.7686 97.763C66.8583 98.148 67.0002 98.519 67.1906 98.8655C68.0208 99.546 68.4292 99.3147 68.4292 98.4572C68.1382 95.2101 66.7952 92.1468 64.6045 89.7325C64.0873 89.2017 63.6653 89.0383 63.4203 89.4875C63.3322 89.744 63.3227 90.0209 63.393 90.2828C63.4633 90.5447 63.6103 90.7797 63.815 90.9575Z" fill="#1D83FF"/>
    <g opacity="0.9">
    <path opacity="0.9" d="M76.3102 120.684C74.2277 117.254 72.1316 113.879 70.0491 110.421C69.7188 109.766 69.257 109.187 68.6926 108.718C68.1282 108.25 67.4733 107.903 66.7688 107.699C65.7616 107.495 64.7544 107.264 63.72 106.964C63.3516 106.811 63.0417 106.544 62.8353 106.202C59.4276 100.37 56.7185 94.1566 54.7639 87.6909C54.7223 87.5527 54.7105 87.4072 54.7293 87.2641C54.7481 87.121 54.797 86.9835 54.8728 86.8606C55.5125 86.2209 56.2339 85.6356 56.8872 85.064C57.5406 84.4923 57.8808 83.172 57.4044 81.457C56.3972 77.8229 55.4309 74.1887 54.4236 70.5682C54.2287 69.5395 53.7663 68.5802 53.083 67.787C52.3996 66.9937 51.5194 66.3944 50.5309 66.0493C48.3359 65.4391 46.0057 65.5247 43.8615 66.2943C43.0312 66.6074 42.5956 67.356 42.582 68.6491C42.9359 71.1399 43.1673 73.6035 43.6437 76.1351C47.0011 94.3921 55.077 111.179 67.8713 126.496C68.2054 127.004 68.6541 127.426 69.1813 127.729C69.7086 128.031 70.2995 128.206 70.9066 128.238C73.0248 128.188 75.0598 127.404 76.6641 126.02C77.8754 124.931 77.7529 122.998 76.3102 120.684Z" fill="white"/>
    <path opacity="0.9" d="M76.1468 102.132C75.862 98.2169 74.783 94.4009 72.9754 90.9164C71.6258 88.1944 69.9083 85.6709 67.8713 83.4168C67.3404 82.8179 66.8913 82.6273 66.619 83.0765C66.3468 83.5257 66.619 84.1654 67.1363 84.7506L67.6671 85.3631C71.4292 89.7058 73.8001 95.0783 74.4726 100.784C74.466 101.201 74.5071 101.616 74.5951 102.023C74.7661 102.491 75.0406 102.915 75.3982 103.262C75.684 103.466 76.0107 103.262 76.242 103.262C76.1604 102.704 76.174 102.418 76.1468 102.132Z" fill="white"/>
    <path opacity="0.9" d="M63.815 90.9575C65.5243 92.8375 66.5629 95.2305 66.7686 97.763C66.8583 98.148 67.0002 98.519 67.1906 98.8655C68.0208 99.546 68.4292 99.3147 68.4292 98.4572C68.1382 95.2101 66.7952 92.1468 64.6045 89.7325C64.0873 89.2017 63.6653 89.0383 63.4203 89.4875C63.3322 89.744 63.3227 90.0209 63.393 90.2828C63.4633 90.5447 63.6103 90.7797 63.815 90.9575Z" fill="white"/>
    </g>
    <path d="M376.774 30.1435L389.527 37.3982V32.8793C389.527 32.5663 389.527 32.2396 389.527 31.9266C389.527 31.6135 389.527 31.3141 389.527 31.0146V30.8513C389.99 24.876 394.523 22.5758 400.049 25.7744C402.551 27.3132 404.695 29.369 406.337 31.8041C407.576 23.6374 414.204 20.7519 422.221 25.366C431.123 30.511 438.337 43.0604 438.337 53.2959V62.9597C438.324 63.7327 438.515 64.4955 438.89 65.1716C439.265 65.8477 439.811 66.4132 440.474 66.8116L447.987 71.208C449.608 72.1694 450.952 73.5352 451.888 75.1719C452.823 76.8086 453.317 78.6601 453.322 80.5452C453.323 81.3272 453.117 82.0956 452.726 82.7728C452.334 83.45 451.772 84.0121 451.094 84.4027C450.417 84.7932 449.648 84.9983 448.866 84.9973C448.084 84.9963 447.316 84.7893 446.639 84.3971L376.964 44.122C375.116 43.0486 373.581 41.5102 372.511 39.6597C371.441 37.8091 370.874 35.7109 370.867 33.5735C370.866 32.8816 371.047 32.2017 371.392 31.602C371.737 31.0022 372.234 30.5036 372.832 30.1562C373.43 29.8088 374.109 29.6248 374.801 29.6225C375.493 29.6203 376.173 29.8 376.774 30.1435Z" fill="#E6E6E6"/>
    <path d="M473.998 28.2519L483.267 33.5738V30.2527C483.267 30.0213 483.267 29.7899 483.267 29.5585C483.267 29.3271 483.267 29.1094 483.267 28.8916V28.8099C483.607 24.468 486.901 22.7938 490.916 25.1213C492.734 26.2354 494.294 27.725 495.49 29.4905C496.401 23.5833 501.22 21.4464 507.045 24.8083C513.524 28.5513 518.764 37.6435 518.764 45.1159V52.1528C518.769 52.7045 518.917 53.2454 519.194 53.7226C519.471 54.1998 519.867 54.5969 520.343 54.8751L525.788 58.0736C526.972 58.7703 527.954 59.7652 528.634 60.9593C529.315 62.1533 529.671 63.5048 529.667 64.8792C529.666 65.4421 529.518 65.995 529.239 66.4836C528.959 66.9721 528.557 67.3793 528.072 67.6651C527.587 67.9508 527.036 68.1053 526.473 68.1132C525.91 68.1211 525.355 67.9823 524.862 67.7103L474.134 38.4193C472.79 37.6417 471.673 36.5244 470.897 35.1795C470.121 33.8346 469.711 32.3092 469.71 30.7563C469.709 30.2537 469.84 29.7596 470.09 29.3235C470.34 28.8873 470.7 28.5244 471.134 28.2709C471.568 28.0173 472.06 27.8822 472.563 27.8788C473.066 27.8755 473.56 28.0041 473.998 28.2519Z" fill="#E6E6E6"/>
    </svg>
