<svg width="633" height="549" viewBox="0 0 633 549" fill="none" xmlns="http://www.w3.org/2000/svg">
    <path d="M316.546 539.537V548.758L633 366.064V356.843L316.546 539.537Z" fill="#E0E0E0"/>
    <path d="M0.105988 366.051L316.546 548.758V539.537L0.105988 356.843V366.051Z" fill="#EBEBEB"/>
    <path d="M56.0725 324.521L316.546 474.906L577.02 324.521L633 356.843L316.546 539.537L0.105957 356.843L56.0725 324.521Z" fill="#F5F5F5"/>
    <path d="M302.986 466.839L247.006 499.147L250.92 501.403L307.139 469.227L302.986 466.839Z" fill="#E0E0E0"/>
    <path d="M56.0858 324.521L150.757 379.2L154.923 381.588L155.334 381.827L200.792 408.072V408.086H200.805L204.958 410.474H204.972L251.783 437.528L255.949 439.917L302.76 466.958L306.927 469.36L316.546 474.919L320.713 472.517L577.02 324.521L525.976 295.051L360.293 199.385L316.546 174.135L56.0858 324.521Z" fill="#1D83FF"/>
    <path opacity="0.3" d="M56.0858 324.521L150.757 379.2L154.923 381.588L155.334 381.827L200.792 408.072V408.086H200.805L204.958 410.474H204.972L251.783 437.528L255.949 439.917L302.76 466.958L306.927 469.36L316.546 474.919L320.713 472.517L577.02 324.521L525.976 295.051L360.293 199.385L316.546 174.135L56.0858 324.521Z" fill="white"/>
    <path d="M150.319 384.255L195.923 410.899L201.004 407.953L204.972 405.671L241.739 384.441L245.679 382.172L274.406 365.587L228.523 339.089L199.797 355.675L195.657 358.063L159.076 379.2L154.923 381.588L150.319 384.255Z" fill="#F5F5F5"/>
    <path d="M56.0725 324.521L0.105995 356.843L56.0725 324.521Z" fill="#F5F5F5"/>
    <path d="M251.889 437.462L195.922 469.771L199.837 472.027L256.055 439.864L251.889 437.462Z" fill="#E0E0E0"/>
    <path d="M320.699 472.517L376.679 504.826L372.765 507.082L316.546 474.919L320.699 472.517Z" fill="#E0E0E0"/>
    <path d="M372.287 442.796L428.254 475.105L424.339 477.374L368.121 445.198L372.287 442.796Z" fill="#E0E0E0"/>
    <path d="M423.862 413.075L479.828 445.383L475.914 447.652L419.696 415.476L423.862 413.075Z" fill="#E0E0E0"/>
    <path d="M475.437 383.353L531.403 415.662L527.489 417.931L471.27 385.755L475.437 383.353Z" fill="#E0E0E0"/>
    <path d="M527.012 353.632L582.978 385.941L579.064 388.209L522.858 356.033L527.012 353.632Z" fill="#E0E0E0"/>
    <path d="M150.757 379.187L94.79 411.509L98.7042 413.765L154.923 381.588L150.757 379.187Z" fill="#E0E0E0"/>
    <path d="M99.6729 349.81L43.7064 382.133L47.6073 384.388L103.826 352.212L99.6729 349.81Z" fill="#E0E0E0"/>
    <path d="M200.805 408.086L144.825 440.394L148.74 442.663L204.958 410.487L200.805 408.086Z" fill="#E0E0E0"/>
    <path d="M154.923 381.589L201.004 407.953L204.972 405.671L159.076 379.2L154.923 381.589Z" fill="#E0E0E0"/>
    <path d="M195.657 358.063L241.739 384.441L245.679 382.172L199.797 355.675L195.657 358.063Z" fill="#E0E0E0"/>
    <g opacity="0.1">
    <path opacity="0.1" d="M173.406 307.285L177.612 309.54L223.508 336.024L339.249 402.858L525.976 295.051L360.293 199.385L173.406 307.285Z" fill="black"/>
    </g>
    <path opacity="0.1" d="M269.854 505.689C253.344 505.689 239.96 497.96 239.96 488.426C239.96 478.893 253.344 471.164 269.854 471.164C286.364 471.164 299.748 478.893 299.748 488.426C299.748 497.96 286.364 505.689 269.854 505.689Z" fill="black"/>
    <path opacity="0.1" d="M358.475 508.541C341.965 508.541 328.581 500.813 328.581 491.279C328.581 481.745 341.965 474.017 358.475 474.017C374.985 474.017 388.369 481.745 388.369 491.279C388.369 500.813 374.985 508.541 358.475 508.541Z" fill="black"/>
    <g opacity="0.1">
    <path opacity="0.1" d="M103.149 313.495C99.1688 315.817 99.1688 319.558 103.149 321.867C105.397 323.005 107.881 323.598 110.401 323.598C112.92 323.598 115.404 323.005 117.652 321.867C121.632 319.558 121.632 315.817 117.652 313.495C115.404 312.357 112.92 311.764 110.401 311.764C107.881 311.764 105.397 312.357 103.149 313.495Z" fill="black"/>
    </g>
    <g opacity="0.1">
    <path opacity="0.1" d="M145.356 365.865C141.376 368.187 141.376 371.929 145.356 374.238C147.602 375.377 150.084 375.97 152.601 375.97C155.118 375.97 157.6 375.377 159.846 374.238C163.826 371.929 163.826 368.187 159.846 365.865C157.6 364.727 155.118 364.133 152.601 364.133C150.084 364.133 147.602 364.727 145.356 365.865Z" fill="black"/>
    </g>
    <g opacity="0.1">
    <path opacity="0.1" d="M512.297 331.075C508.316 333.384 508.316 337.139 512.297 339.448C514.544 340.586 517.028 341.179 519.548 341.179C522.067 341.179 524.551 340.586 526.799 339.448C530.78 337.139 530.78 333.384 526.799 331.075C524.551 329.937 522.067 329.344 519.548 329.344C517.028 329.344 514.544 329.937 512.297 331.075Z" fill="black"/>
    </g>
    <path d="M504.495 194.821V297.838L339.129 393.305V253.428L472.61 175.874L504.495 194.821Z" fill="#EBEBEB"/>
    <path d="M183.052 163.322V303.185L238.156 334.989L284.039 361.487L339.129 393.304V253.441L257.515 145.834L183.052 163.322Z" fill="#FAFAFA"/>
    <path d="M238.156 235.595V334.989L284.039 361.526V262.092C283.866 253.896 281.896 245.838 278.267 238.488C277.948 237.824 277.63 237.161 277.285 236.537C273.158 228.576 267.413 221.942 261.097 218.28C258.358 216.577 255.219 215.625 251.995 215.52C243.848 215.48 238.156 223.017 238.156 235.595Z" fill="#1D83FF"/>
    <path opacity="0.3" d="M238.156 235.595V334.989L284.039 361.526V262.092C283.866 253.896 281.896 245.838 278.267 238.488C277.948 237.824 277.63 237.161 277.285 236.537C273.158 228.576 267.413 221.942 261.097 218.28C258.358 216.577 255.219 215.625 251.995 215.52C243.848 215.48 238.156 223.017 238.156 235.595Z" fill="black"/>
    <path d="M242.19 232.451L254.689 239.655L258.351 241.778L260.009 242.734L262.172 244.06L264.123 245.175L266.232 246.396L280.363 254.49C279.633 249.488 278.176 244.62 276.038 240.04C276.018 239.99 275.996 239.942 275.971 239.894C275.693 239.271 275.388 238.66 275.082 238.076C275.067 238.023 275.04 237.973 275.003 237.93C274.525 236.988 274.021 236.086 273.49 235.197C270.909 230.702 267.506 226.732 263.459 223.494C263.035 223.189 262.61 222.884 262.132 222.605C261.655 222.327 261.549 222.207 261.243 222.022L260.686 221.69C260.434 221.544 260.195 221.411 259.97 221.305C255.445 218.877 251.292 218.731 248.028 220.429C247.603 220.639 247.199 220.887 246.821 221.172L246.223 221.61L246.064 221.756C245.777 222.088 245.511 222.438 245.268 222.804C243.458 225.715 242.4 229.03 242.19 232.451Z" fill="#FAFAFA"/>
    <path d="M240.797 233.857L256.48 242.933L262.132 246.197L262.292 246.29L264.388 247.497L280.589 256.851C280.523 256.069 280.43 255.272 280.323 254.49L266.193 246.329L264.083 245.109L262.132 243.994L259.97 242.667L258.311 241.712L254.649 239.589L242.15 232.384C242.362 228.968 243.42 225.658 245.228 222.751C245.471 222.385 245.737 222.035 246.024 221.703V221.61C245.678 221.899 245.35 222.209 245.043 222.539C242.8 225.1 241.248 228.921 240.797 233.857Z" fill="#1D83FF"/>
    <path opacity="0.6" d="M240.797 233.857L256.48 242.933L262.132 246.197L262.292 246.29L264.388 247.497L280.589 256.851C280.523 256.069 280.43 255.272 280.323 254.49L266.193 246.329L264.083 245.109L262.132 243.994L259.97 242.667L258.311 241.712L254.649 239.589L242.15 232.384C242.362 228.968 243.42 225.658 245.228 222.751C245.471 222.385 245.737 222.035 246.024 221.703V221.61C245.678 221.899 245.35 222.209 245.043 222.539C242.8 225.1 241.248 228.921 240.797 233.857Z" fill="black"/>
    <path d="M263.605 245.64L265.569 246.767L265.701 246.847L266.378 246.409L267.506 245.679L276.038 240.04C276.018 239.991 275.996 239.942 275.971 239.894C275.693 239.271 275.387 238.66 275.082 238.077L265.396 244.459L264.268 245.188L263.605 245.64Z" fill="#1D83FF"/>
    <path opacity="0.6" d="M263.605 245.64L265.569 246.767L265.701 246.847L266.378 246.409L267.506 245.679L276.038 240.04C276.018 239.991 275.996 239.942 275.971 239.894C275.693 239.271 275.387 238.66 275.082 238.077L265.396 244.459L264.268 245.188L263.605 245.64Z" fill="black"/>
    <path d="M246.237 221.61L246.422 221.955L246.542 222.167L255.962 239.005L257.104 241.062L257.794 242.283L259.041 242.999L260.009 243.57L262.172 244.817L263.499 245.547V223.494C263.074 223.189 262.65 222.884 262.172 222.605C261.695 222.327 261.588 222.207 261.283 222.022V244.087L260.779 243.172L260.009 241.845L259.625 241.168L248.041 220.469C247.616 220.679 247.212 220.927 246.834 221.212L246.237 221.61Z" fill="#1D83FF"/>
    <path opacity="0.6" d="M246.237 221.61L246.422 221.955L246.542 222.167L255.962 239.005L257.104 241.062L257.794 242.283L259.041 242.999L260.009 243.57L262.172 244.817L263.499 245.547V223.494C263.074 223.189 262.65 222.884 262.172 222.605C261.695 222.327 261.588 222.207 261.283 222.022V244.087L260.779 243.172L260.009 241.845L259.625 241.168L248.041 220.469C247.616 220.679 247.212 220.927 246.834 221.212L246.237 221.61Z" fill="black"/>
    <path d="M262.331 246.29L264.428 247.497L265.569 246.767L266.232 246.329L275.971 239.894C275.693 239.271 275.387 238.66 275.082 238.076L275.679 237.678L275.6 237.532L275.003 237.931L264.122 245.109L263.459 245.547L262.331 246.29Z" fill="#1D83FF"/>
    <path d="M245.48 222.287C245.679 222.101 245.878 221.915 246.077 221.756C246.071 221.726 246.071 221.694 246.077 221.663L245.48 222.287Z" fill="#455A64"/>
    <path d="M245.162 222.566L245.281 222.778L254.688 239.629L256.48 242.933L262.132 246.197V222.566C261.84 222.353 261.548 222.168 261.243 221.982L260.686 221.65C260.434 221.504 260.195 221.371 259.969 221.265V244.697L259.001 242.959L258.311 241.739L246.834 221.239L246.236 221.677L246.077 221.823V221.73C245.756 221.99 245.45 222.27 245.162 222.566Z" fill="#1D83FF"/>
    <path opacity="0.3" d="M245.162 222.566L245.281 222.778L254.688 239.629L256.48 242.933L262.132 246.197V222.566C261.84 222.353 261.548 222.168 261.243 221.982L260.686 221.65C260.434 221.504 260.195 221.371 259.969 221.265V244.697L259.001 242.959L258.311 241.739L246.834 221.239L246.236 221.677L246.077 221.823V221.73C245.756 221.99 245.45 222.27 245.162 222.566Z" fill="black"/>
    <path opacity="0.3" d="M262.331 246.29L264.428 247.497L265.569 246.767L266.232 246.329L275.971 239.894C275.693 239.271 275.387 238.66 275.082 238.076L275.679 237.678L275.6 237.532L275.003 237.931L264.122 245.109L263.459 245.547L262.331 246.29Z" fill="black"/>
    <path d="M277.709 301.407C277.766 301.418 277.825 301.418 277.882 301.407C277.934 301.374 277.976 301.329 278.006 301.276C278.037 301.223 278.053 301.163 278.054 301.102V266.352C278.053 266.29 278.037 266.231 278.006 266.177C277.976 266.124 277.934 266.079 277.882 266.046L263.419 257.701C263.368 257.667 263.308 257.65 263.247 257.65C263.186 257.65 263.126 257.667 263.074 257.701C263.019 257.731 262.973 257.775 262.941 257.828C262.908 257.882 262.89 257.943 262.889 258.006V292.676C262.893 292.738 262.911 292.799 262.944 292.852C262.976 292.905 263.021 292.949 263.074 292.981L277.524 301.327C277.579 301.366 277.643 301.394 277.709 301.407ZM277.351 266.577V300.438L263.605 292.477V258.643L277.351 266.577Z" fill="#1D83FF"/>
    <path d="M258.948 290.593C259.004 290.61 259.064 290.61 259.12 290.593C259.175 290.563 259.22 290.519 259.25 290.465C259.281 290.411 259.295 290.35 259.293 290.288V255.578C259.293 255.514 259.278 255.452 259.248 255.396C259.218 255.34 259.174 255.293 259.12 255.259L244.658 246.913C244.604 246.887 244.545 246.874 244.485 246.874C244.425 246.874 244.366 246.887 244.313 246.913C244.258 246.943 244.211 246.987 244.179 247.041C244.146 247.095 244.128 247.156 244.127 247.218V281.889C244.124 281.953 244.14 282.016 244.173 282.07C244.206 282.124 244.255 282.168 244.313 282.194L258.762 290.54C258.816 290.577 258.882 290.596 258.948 290.593ZM258.589 255.777V289.625L244.843 281.663V247.842L258.589 255.777Z" fill="#1D83FF"/>
    <path d="M277.709 343.309C277.766 343.321 277.825 343.321 277.882 343.309C277.934 343.276 277.976 343.231 278.006 343.178C278.036 343.125 278.053 343.065 278.054 343.004V308.346C278.057 308.284 278.042 308.223 278.012 308.169C277.981 308.115 277.936 308.071 277.882 308.041L263.419 299.695C263.368 299.662 263.308 299.645 263.247 299.645C263.186 299.645 263.126 299.662 263.074 299.695C263.018 299.724 262.972 299.768 262.939 299.822C262.906 299.876 262.889 299.937 262.888 300V334.658C262.89 334.722 262.908 334.785 262.941 334.841C262.973 334.896 263.019 334.943 263.074 334.976L277.537 343.309C277.594 343.32 277.652 343.32 277.709 343.309ZM277.351 308.492V342.34L263.605 334.379V300.611L277.351 308.492Z" fill="#1D83FF"/>
    <path d="M258.948 332.561C259.004 332.579 259.064 332.579 259.12 332.561C259.174 332.531 259.218 332.486 259.248 332.432C259.278 332.379 259.294 332.318 259.293 332.256V297.533C259.291 297.471 259.275 297.412 259.245 297.358C259.215 297.305 259.172 297.26 259.12 297.227L244.658 288.882C244.606 288.848 244.546 288.831 244.485 288.831C244.424 288.831 244.364 288.848 244.313 288.882C244.258 288.912 244.211 288.956 244.179 289.009C244.146 289.063 244.128 289.124 244.127 289.187V323.857C244.128 323.92 244.146 323.981 244.179 324.035C244.211 324.088 244.258 324.132 244.313 324.163L258.762 332.508C258.816 332.546 258.882 332.564 258.948 332.561ZM258.589 297.745V331.593L244.843 323.632V289.797L258.589 297.745Z" fill="#1D83FF"/>
    <path d="M245.56 292.093C245.875 292.096 246.181 291.995 246.432 291.805C246.683 291.615 246.863 291.347 246.945 291.043C247.027 290.739 247.006 290.417 246.885 290.127C246.764 289.836 246.55 289.594 246.277 289.439L241.659 286.785L242.853 286.095C243.014 286.003 243.154 285.88 243.267 285.733C243.38 285.587 243.462 285.419 243.511 285.241C243.559 285.062 243.571 284.876 243.547 284.692C243.523 284.509 243.463 284.332 243.371 284.171C243.278 284.011 243.155 283.871 243.009 283.758C242.862 283.645 242.695 283.562 242.516 283.514C242.337 283.466 242.151 283.454 241.968 283.478C241.784 283.502 241.607 283.562 241.447 283.654L238.116 285.565C237.902 285.689 237.723 285.869 237.6 286.084C237.476 286.299 237.41 286.543 237.41 286.792C237.41 287.04 237.476 287.284 237.6 287.5C237.723 287.715 237.902 287.894 238.116 288.019L244.857 291.907C245.069 292.033 245.313 292.097 245.56 292.093Z" fill="#263238"/>
    <path d="M183.065 292.915L192.048 298.143V287.86L183.065 282.632V292.915Z" fill="#E0E0E0"/>
    <path d="M183.065 272.349L192.048 277.577V267.294L183.065 262.066V272.349Z" fill="#E0E0E0"/>
    <path d="M183.065 251.796L192.048 257.024V246.741L183.065 241.513V251.796Z" fill="#E0E0E0"/>
    <path d="M183.065 231.23L192.048 236.458V226.175L183.065 220.947V231.23Z" fill="#E0E0E0"/>
    <path d="M183.065 210.677L192.048 215.905V205.622L183.065 200.394V210.677Z" fill="#E0E0E0"/>
    <path d="M183.065 190.111L192.048 195.339V185.056L183.065 179.828V190.111Z" fill="#E0E0E0"/>
    <path d="M183.065 169.558L192.048 174.786V164.503L183.065 159.275V169.558Z" fill="#E0E0E0"/>
    <path d="M330.147 377.794L339.129 383.021V372.738L330.147 367.511V377.794Z" fill="#E0E0E0"/>
    <path d="M330.147 357.241L339.129 362.455V352.186L330.147 346.958V357.241Z" fill="#E0E0E0"/>
    <path d="M330.147 336.675L339.129 341.902V331.619L330.147 326.392V336.675Z" fill="#E0E0E0"/>
    <path d="M330.147 316.109L339.129 321.336V311.067L330.147 305.839V316.109Z" fill="#E0E0E0"/>
    <path d="M330.147 295.556L339.129 300.783V290.5L330.147 285.273V295.556Z" fill="#E0E0E0"/>
    <path d="M330.147 275.003L339.129 280.217V269.948L330.147 264.72V275.003Z" fill="#E0E0E0"/>
    <path d="M330.147 254.437L339.129 259.664V249.381L330.147 244.153V254.437Z" fill="#E0E0E0"/>
    <path d="M348.125 367.511L339.129 372.738V362.455L348.125 357.241V367.511Z" fill="#E0E0E0"/>
    <path d="M348.125 388.077L339.129 393.305V383.022L348.125 377.794V388.077Z" fill="#E0E0E0"/>
    <path d="M348.125 346.958L339.129 352.186V341.902L348.125 336.675V346.958Z" fill="#E0E0E0"/>
    <path d="M348.125 326.391L339.129 331.619V321.336L348.125 316.108V326.391Z" fill="#E0E0E0"/>
    <path d="M348.125 305.839L339.129 311.067V300.783L348.125 295.556V305.839Z" fill="#E0E0E0"/>
    <path d="M348.125 285.273L339.129 290.5V280.217L348.125 275.003V285.273Z" fill="#E0E0E0"/>
    <path d="M348.125 264.72L339.129 269.948V259.664L348.125 254.437V264.72Z" fill="#E0E0E0"/>
    <path d="M348.125 244.153L339.129 249.381V239.111L348.125 233.884V244.153Z" fill="#E0E0E0"/>
    <path d="M504.495 277.272L495.499 282.5V272.216L504.495 266.989V277.272Z" fill="#E0E0E0"/>
    <path d="M504.495 297.838L495.499 303.052V292.783L504.495 287.555V297.838Z" fill="#E0E0E0"/>
    <path d="M504.495 256.719L495.499 261.933V251.663L504.495 246.436V256.719Z" fill="#E0E0E0"/>
    <path d="M504.495 236.153L495.499 241.38V231.097L504.495 225.87V236.153Z" fill="#E0E0E0"/>
    <path d="M504.495 215.6L495.499 220.827V210.544L504.495 205.317V215.6Z" fill="#E0E0E0"/>
    <path d="M437.21 260.593V306.86L467.993 289.081V242.8L437.21 260.593Z" fill="#FAFAFA"/>
    <path d="M466.334 266.723L437.21 283.534V260.593L466.334 243.769V266.723Z" fill="#1D83FF"/>
    <path opacity="0.6" d="M466.334 266.723L437.21 283.534V260.593L466.334 243.769V266.723Z" fill="white"/>
    <path d="M465.605 287.674V268.103L437.21 284.49V282.115L465.605 265.715V244.18L468.006 242.8V289.081L437.21 306.86V304.074L465.605 287.674Z" fill="#1D83FF"/>
    <path opacity="0.2" d="M465.605 287.674V268.103L437.21 284.49V282.115L465.605 265.715V244.18L468.006 242.8V289.081L437.21 306.86V304.074L465.605 287.674Z" fill="black"/>
    <path d="M375.631 296.153V342.42L406.414 324.654V278.373L375.631 296.153Z" fill="#FAFAFA"/>
    <path d="M404.755 302.283L375.631 319.094V296.153L404.755 279.328V302.283Z" fill="#1D83FF"/>
    <path opacity="0.6" d="M404.755 302.283L375.631 319.094V296.153L404.755 279.328V302.283Z" fill="white"/>
    <path d="M404.026 323.247V303.663L375.631 320.063V317.688L404.026 301.288V279.753L406.414 278.373V324.64L375.618 342.42V339.647L404.026 323.247Z" fill="#1D83FF"/>
    <path opacity="0.2" d="M404.026 323.247V303.663L375.631 320.063V317.688L404.026 301.288V279.753L406.414 278.373V324.64L375.618 342.42V339.647L404.026 323.247Z" fill="black"/>
    <path d="M230.301 242.8V289.067L199.518 271.288V225.007L230.301 242.8Z" fill="#FAFAFA"/>
    <path d="M201.19 248.93L230.301 265.741V242.8L201.19 225.976V248.93Z" fill="#1D83FF"/>
    <path opacity="0.8" d="M201.19 248.93L230.301 265.741V242.8L201.19 225.976V248.93Z" fill="white"/>
    <path d="M201.907 269.894V226.4L199.518 225.02V271.288L230.314 289.067V286.294L201.907 269.894Z" fill="#1D83FF"/>
    <path d="M230.301 264.322V266.71L200.089 249.262V246.874L230.301 264.322Z" fill="#1D83FF"/>
    <path d="M322.676 296.153V342.42L291.893 324.654V278.373L322.676 296.153Z" fill="#FAFAFA"/>
    <path d="M293.552 302.283L322.676 319.094V296.153L293.552 279.328V302.283Z" fill="#1D83FF"/>
    <path opacity="0.8" d="M293.552 302.283L322.676 319.094V296.153L293.552 279.328V302.283Z" fill="white"/>
    <path d="M294.282 323.247V279.753L291.88 278.373V324.64L322.676 342.42V339.647L294.282 323.247Z" fill="#1D83FF"/>
    <path d="M322.676 317.688V320.063L292.451 302.615V300.24L322.676 317.688Z" fill="#1D83FF"/>
    <path d="M369.474 289.067L354.746 278.744L258.948 155.852L172.517 175.303L162.247 169.412L259.797 146.63L369.474 289.067Z" fill="#455A64"/>
    <path d="M259.797 146.63L415.463 59.1243L524.371 199.651L369.474 289.067L259.797 146.63Z" fill="#263238"/>
    <path d="M259.797 146.63L162.247 169.412L318.245 81.9063L415.463 59.1243L259.797 146.63Z" fill="#37474F"/>
    <path d="M483.278 344.516L488.811 347.727C487.147 341.923 486.722 335.834 487.564 329.855C487.934 327.74 488.699 325.715 489.82 323.884C490.244 322.982 493.588 317.382 490.642 314.808C487.697 312.234 480.823 317.356 481.129 331.168C481.279 335.691 482.001 340.176 483.278 344.516Z" fill="#1D83FF"/>
    <path opacity="0.5" d="M483.278 344.516L488.811 347.727C487.147 341.923 486.722 335.834 487.564 329.855C487.934 327.74 488.699 325.715 489.82 323.884C490.244 322.982 493.588 317.382 490.642 314.808C487.697 312.234 480.823 317.356 481.129 331.168C481.279 335.691 482.001 340.176 483.278 344.516Z" fill="black"/>
    <path d="M485.839 346.281H485.945C486.012 346.252 486.065 346.199 486.094 346.132C486.124 346.066 486.127 345.991 486.105 345.923C484.627 341.067 483.964 336.001 484.141 330.929C484.247 321.774 489.024 316.918 489.063 316.878C489.114 316.824 489.142 316.753 489.142 316.679C489.142 316.605 489.114 316.534 489.063 316.48C489.012 316.43 488.943 316.403 488.871 316.403C488.799 316.403 488.731 316.43 488.679 316.48C488.679 316.48 483.69 321.535 483.584 330.916C483.416 336.06 484.093 341.197 485.587 346.122C485.61 346.169 485.645 346.21 485.69 346.238C485.735 346.266 485.786 346.281 485.839 346.281Z" fill="white"/>
    <path d="M487.564 347.024L496.64 352.411C496.64 352.411 500.832 351.787 500.514 347.847C500.196 343.906 498.497 342.977 500.607 341.212C502.717 339.448 503.261 339.355 503.168 337.67C502.994 336.442 502.358 335.327 501.39 334.552C500.797 334.066 500.38 333.399 500.203 332.654C500.026 331.908 500.098 331.126 500.408 330.425C501.469 328.382 502.889 326.445 500.779 325.463C499.452 324.905 497.383 325.609 495.976 327.095C494.939 328.414 493.563 329.427 491.996 330.027C490.669 330.372 487.869 330.399 488.015 332.681C488.161 334.963 488.705 335.786 488.148 336.807C487.179 338.784 482.681 339.819 487.564 347.024Z" fill="#1D83FF"/>
    <path opacity="0.2" d="M487.564 347.024L496.64 352.411C496.64 352.411 500.832 351.787 500.514 347.847C500.196 343.906 498.497 342.977 500.607 341.212C502.717 339.448 503.261 339.355 503.168 337.67C502.994 336.442 502.358 335.327 501.39 334.552C500.797 334.066 500.38 333.399 500.203 332.654C500.026 331.908 500.098 331.126 500.408 330.425C501.469 328.382 502.889 326.445 500.779 325.463C499.452 324.905 497.383 325.609 495.976 327.095C494.939 328.414 493.563 329.427 491.996 330.027C490.669 330.372 487.869 330.399 488.015 332.681C488.161 334.963 488.705 335.786 488.148 336.807C487.179 338.784 482.681 339.819 487.564 347.024Z" fill="black"/>
    <path d="M491.332 349.492C491.368 349.49 491.404 349.481 491.436 349.466C491.469 349.45 491.498 349.428 491.521 349.4C491.545 349.373 491.563 349.341 491.573 349.307C491.584 349.272 491.588 349.236 491.584 349.2C491.584 349.067 490.602 335.679 499.89 326.896C499.94 326.844 499.968 326.775 499.968 326.703C499.968 326.632 499.94 326.563 499.89 326.511C499.836 326.46 499.765 326.432 499.691 326.432C499.618 326.432 499.546 326.46 499.492 326.511C490.019 335.467 491.014 349.067 491.027 349.253C491.037 349.325 491.074 349.39 491.131 349.434C491.188 349.479 491.26 349.499 491.332 349.492Z" fill="white"/>
    <path d="M492.924 337.816C492.961 337.812 492.997 337.802 493.029 337.785C493.062 337.767 493.09 337.744 493.114 337.716C493.137 337.687 493.155 337.655 493.166 337.619C493.176 337.584 493.18 337.547 493.176 337.51C493.108 336.385 492.807 335.285 492.291 334.282C491.774 333.279 491.055 332.395 490.178 331.686C490.117 331.647 490.044 331.633 489.973 331.645C489.902 331.657 489.838 331.695 489.793 331.752C489.743 331.804 489.716 331.873 489.716 331.944C489.716 332.016 489.743 332.085 489.793 332.137C490.592 332.808 491.248 333.633 491.723 334.563C492.197 335.493 492.479 336.509 492.553 337.55C492.555 337.594 492.567 337.637 492.588 337.675C492.609 337.714 492.639 337.747 492.675 337.772C492.71 337.798 492.751 337.815 492.794 337.823C492.838 337.83 492.882 337.828 492.924 337.816Z" fill="white"/>
    <path d="M492.248 340.138C492.288 340.139 492.328 340.132 492.365 340.116C492.401 340.1 492.434 340.075 492.46 340.045C492.46 340.045 494.769 337.564 499.983 338.28C500.055 338.292 500.129 338.275 500.189 338.232C500.248 338.19 500.289 338.126 500.302 338.055C500.307 338.018 500.306 337.98 500.297 337.945C500.288 337.909 500.271 337.875 500.249 337.845C500.227 337.815 500.199 337.791 500.167 337.772C500.135 337.753 500.1 337.741 500.063 337.736C494.543 336.98 492.102 339.567 492.102 339.673C492.051 339.727 492.023 339.798 492.023 339.872C492.023 339.946 492.051 340.017 492.102 340.071C492.144 340.106 492.194 340.128 492.248 340.138Z" fill="white"/>
    <path d="M411.854 385.635L417.387 388.86C415.722 383.051 415.297 376.957 416.14 370.974C416.51 368.859 417.275 366.834 418.395 365.003C418.82 364.101 422.164 358.515 419.231 355.927C416.299 353.34 409.399 358.475 409.704 372.287C409.853 376.81 410.575 381.295 411.854 385.635Z" fill="#1D83FF"/>
    <path opacity="0.5" d="M411.854 385.635L417.387 388.86C415.722 383.051 415.297 376.957 416.14 370.974C416.51 368.859 417.275 366.834 418.395 365.003C418.82 364.101 422.164 358.515 419.231 355.927C416.299 353.34 409.399 358.475 409.704 372.287C409.853 376.81 410.575 381.295 411.854 385.635Z" fill="black"/>
    <path d="M414.375 387.413H414.481C414.547 387.384 414.6 387.331 414.63 387.265C414.659 387.199 414.663 387.124 414.64 387.055C413.162 382.195 412.499 377.125 412.677 372.048C412.783 362.906 417.559 358.05 417.599 357.997C417.649 357.943 417.677 357.872 417.677 357.798C417.677 357.724 417.649 357.653 417.599 357.599C417.547 357.549 417.478 357.522 417.407 357.522C417.335 357.522 417.266 357.549 417.214 357.599C417.214 357.599 412.225 362.654 412.119 372.048C411.949 377.188 412.626 382.321 414.123 387.241C414.142 387.292 414.176 387.336 414.222 387.367C414.267 387.398 414.32 387.414 414.375 387.413Z" fill="white"/>
    <path d="M416.14 388.156L425.282 393.53C425.282 393.53 429.474 392.907 429.156 388.979C428.838 385.052 427.139 384.109 429.249 382.345C431.359 380.58 431.903 380.5 431.81 378.802C431.64 377.576 431.003 376.464 430.032 375.697C429.44 375.208 429.024 374.539 428.847 373.792C428.67 373.045 428.741 372.26 429.05 371.557C430.111 369.514 431.531 367.577 429.421 366.595C428.095 366.038 426.025 366.741 424.618 368.24C423.604 369.552 422.25 370.561 420.704 371.159C419.377 371.504 416.578 371.531 416.723 373.813C416.869 376.095 417.413 376.905 416.856 377.926C415.702 379.917 411.257 380.952 416.14 388.156Z" fill="#1D83FF"/>
    <path opacity="0.2" d="M416.14 388.156L425.282 393.53C425.282 393.53 429.474 392.907 429.156 388.979C428.838 385.052 427.139 384.109 429.249 382.345C431.359 380.58 431.903 380.5 431.81 378.802C431.64 377.576 431.003 376.464 430.032 375.697C429.44 375.208 429.024 374.539 428.847 373.792C428.67 373.045 428.741 372.26 429.05 371.557C430.111 369.514 431.531 367.577 429.421 366.595C428.095 366.038 426.025 366.741 424.618 368.24C423.604 369.552 422.25 370.561 420.704 371.159C419.377 371.504 416.578 371.531 416.723 373.813C416.869 376.095 417.413 376.905 416.856 377.926C415.702 379.917 411.257 380.952 416.14 388.156Z" fill="black"/>
    <path d="M419.868 390.624C419.905 390.621 419.94 390.61 419.973 390.593C420.006 390.576 420.034 390.553 420.058 390.524C420.081 390.496 420.099 390.463 420.11 390.428C420.12 390.393 420.124 390.356 420.12 390.319C420.12 390.186 419.138 376.799 428.426 368.028C428.453 368.002 428.474 367.971 428.488 367.937C428.503 367.903 428.51 367.866 428.51 367.829C428.51 367.792 428.503 367.755 428.488 367.721C428.474 367.687 428.453 367.656 428.426 367.63C428.375 367.581 428.306 367.553 428.234 367.553C428.162 367.553 428.093 367.581 428.042 367.63C418.555 376.586 419.55 390.186 419.563 390.359C419.57 390.434 419.605 390.504 419.662 390.553C419.719 390.603 419.793 390.628 419.868 390.624Z" fill="white"/>
    <path d="M421.5 378.935C421.572 378.928 421.638 378.894 421.685 378.839C421.732 378.785 421.756 378.715 421.752 378.643C421.687 377.516 421.386 376.416 420.87 375.413C420.353 374.41 419.632 373.526 418.754 372.818C418.725 372.796 418.691 372.779 418.656 372.771C418.62 372.762 418.583 372.76 418.547 372.767C418.511 372.773 418.476 372.787 418.445 372.807C418.415 372.827 418.389 372.853 418.369 372.884C418.327 372.944 418.311 373.018 418.323 373.09C418.336 373.162 418.376 373.226 418.435 373.269C419.238 373.937 419.897 374.762 420.371 375.692C420.845 376.623 421.126 377.64 421.195 378.683C421.198 378.719 421.209 378.755 421.226 378.787C421.243 378.82 421.267 378.849 421.295 378.872C421.323 378.896 421.356 378.913 421.391 378.924C421.427 378.935 421.464 378.938 421.5 378.935Z" fill="white"/>
    <path d="M420.823 381.257C420.902 381.258 420.978 381.23 421.036 381.177C421.036 381.177 423.344 378.696 428.559 379.412C428.595 379.418 428.633 379.416 428.669 379.407C428.705 379.398 428.739 379.382 428.768 379.36C428.798 379.338 428.823 379.31 428.841 379.278C428.86 379.246 428.872 379.21 428.877 379.174C428.883 379.138 428.881 379.101 428.872 379.066C428.863 379.031 428.846 378.998 428.824 378.969C428.802 378.941 428.774 378.917 428.742 378.899C428.71 378.882 428.675 378.872 428.638 378.868C423.119 378.112 420.677 380.686 420.677 380.806C420.628 380.857 420.6 380.926 420.6 380.998C420.6 381.07 420.628 381.139 420.677 381.19C420.717 381.228 420.769 381.251 420.823 381.257Z" fill="white"/>
    <path d="M160.031 341.982L165.564 345.193C163.899 339.384 163.475 333.291 164.317 327.307C164.691 325.194 165.456 323.169 166.572 321.336C167.01 320.434 170.341 314.848 167.408 312.274C164.476 309.7 157.576 314.821 157.882 328.634C158.032 333.156 158.754 337.641 160.031 341.982Z" fill="#1D83FF"/>
    <path opacity="0.5" d="M160.031 341.982L165.564 345.193C163.899 339.384 163.475 333.291 164.317 327.307C164.691 325.194 165.456 323.169 166.572 321.336C167.01 320.434 170.341 314.848 167.408 312.274C164.476 309.7 157.576 314.821 157.882 328.634C158.032 333.156 158.754 337.641 160.031 341.982Z" fill="black"/>
    <path d="M162.605 343.694H162.698C162.766 343.667 162.821 343.614 162.851 343.547C162.881 343.48 162.883 343.404 162.857 343.335C161.388 338.479 160.725 333.414 160.893 328.342C161 319.174 165.776 314.331 165.816 314.277C165.842 314.253 165.863 314.223 165.877 314.19C165.891 314.157 165.899 314.121 165.899 314.085C165.899 314.049 165.891 314.013 165.877 313.98C165.863 313.947 165.842 313.917 165.816 313.893C165.762 313.842 165.691 313.814 165.617 313.814C165.543 313.814 165.472 313.842 165.418 313.893C165.418 313.893 160.429 318.948 160.323 328.329C160.148 333.465 160.806 338.596 162.273 343.521C162.297 343.586 162.345 343.64 162.406 343.671C162.467 343.703 162.538 343.711 162.605 343.694Z" fill="white"/>
    <path d="M164.317 344.437L173.459 349.744C173.459 349.744 177.652 349.134 177.333 345.193C177.015 341.252 175.316 340.323 177.439 338.559C179.562 336.794 180.093 336.714 180 335.016C179.816 333.796 179.181 332.688 178.222 331.911C177.626 331.428 177.207 330.761 177.029 330.015C176.851 329.269 176.926 328.484 177.24 327.785C178.289 325.728 179.722 323.804 177.599 322.822C176.272 322.265 174.202 322.955 172.795 324.454C171.781 325.766 170.428 326.775 168.881 327.373C167.554 327.732 164.755 327.758 164.901 330.027C165.047 332.296 165.604 333.132 165.033 334.154C163.932 336.197 159.434 337.232 164.317 344.437Z" fill="#1D83FF"/>
    <path opacity="0.2" d="M164.317 344.437L173.459 349.744C173.459 349.744 177.652 349.134 177.333 345.193C177.015 341.252 175.316 340.323 177.439 338.559C179.562 336.794 180.093 336.714 180 335.016C179.816 333.796 179.181 332.688 178.222 331.911C177.626 331.428 177.207 330.761 177.029 330.015C176.851 329.269 176.926 328.484 177.24 327.785C178.289 325.728 179.722 323.804 177.599 322.822C176.272 322.265 174.202 322.955 172.795 324.454C171.781 325.766 170.428 326.775 168.881 327.373C167.554 327.732 164.755 327.758 164.901 330.027C165.047 332.296 165.604 333.132 165.033 334.154C163.932 336.197 159.434 337.232 164.317 344.437Z" fill="black"/>
    <path d="M168.045 346.905C168.082 346.901 168.118 346.891 168.15 346.874C168.183 346.856 168.212 346.833 168.235 346.805C168.258 346.776 168.276 346.743 168.287 346.708C168.298 346.673 168.301 346.636 168.297 346.599C168.297 346.467 167.316 333.079 176.59 324.308C176.626 324.287 176.657 324.258 176.68 324.223C176.703 324.189 176.718 324.149 176.724 324.108C176.73 324.067 176.726 324.025 176.714 323.985C176.701 323.946 176.68 323.909 176.652 323.879C176.623 323.848 176.588 323.825 176.55 323.809C176.511 323.794 176.469 323.788 176.428 323.791C176.386 323.794 176.346 323.806 176.31 323.827C176.274 323.848 176.242 323.876 176.219 323.91C166.732 332.867 167.727 346.467 167.74 346.652C167.744 346.689 167.754 346.725 167.771 346.757C167.788 346.79 167.812 346.819 167.84 346.842C167.869 346.866 167.901 346.883 167.937 346.894C167.972 346.905 168.009 346.908 168.045 346.905Z" fill="white"/>
    <path d="M169.677 335.215C169.714 335.213 169.749 335.204 169.781 335.189C169.814 335.173 169.843 335.151 169.866 335.123C169.89 335.096 169.908 335.064 169.919 335.03C169.929 334.995 169.933 334.959 169.93 334.923C169.864 333.797 169.563 332.696 169.047 331.693C168.531 330.69 167.81 329.806 166.931 329.098C166.878 329.052 166.809 329.026 166.738 329.026C166.668 329.026 166.599 329.052 166.546 329.098C166.505 329.158 166.488 329.232 166.501 329.304C166.513 329.376 166.553 329.44 166.612 329.483C167.416 330.151 168.077 330.975 168.553 331.906C169.03 332.836 169.313 333.854 169.386 334.897C169.377 334.938 169.378 334.981 169.389 335.022C169.4 335.062 169.421 335.1 169.45 335.131C169.478 335.162 169.514 335.186 169.553 335.201C169.593 335.215 169.636 335.22 169.677 335.215Z" fill="white"/>
    <path d="M169.014 337.55C169.09 337.545 169.161 337.512 169.213 337.457C169.213 337.457 171.522 334.976 176.75 335.693C176.811 335.679 176.867 335.645 176.906 335.595C176.946 335.546 176.968 335.484 176.968 335.421C176.968 335.357 176.946 335.296 176.906 335.246C176.867 335.197 176.811 335.163 176.75 335.149C171.23 334.392 168.788 336.98 168.788 337.086C168.758 337.128 168.738 337.177 168.733 337.229C168.728 337.281 168.736 337.333 168.758 337.381C168.779 337.428 168.813 337.469 168.856 337.499C168.899 337.529 168.949 337.546 169.001 337.55H169.014Z" fill="white"/>
    <path d="M298.62 420.651L304.153 423.862C302.497 418.052 302.076 411.959 302.919 405.976C303.287 403.863 304.048 401.838 305.162 400.005C305.6 399.103 308.93 393.517 305.998 390.93C303.065 388.342 296.166 393.49 296.484 407.29C296.625 411.816 297.343 416.306 298.62 420.651Z" fill="#1D83FF"/>
    <path opacity="0.5" d="M298.62 420.651L304.153 423.862C302.497 418.052 302.076 411.959 302.919 405.976C303.287 403.863 304.048 401.838 305.162 400.005C305.6 399.103 308.93 393.517 305.998 390.93C303.065 388.342 296.166 393.49 296.484 407.29C296.625 411.816 297.343 416.306 298.62 420.651Z" fill="black"/>
    <path d="M301.195 422.416H301.287C301.322 422.404 301.355 422.385 301.382 422.36C301.41 422.336 301.433 422.306 301.449 422.273C301.465 422.239 301.474 422.203 301.476 422.166C301.478 422.129 301.472 422.092 301.46 422.057C299.981 417.202 299.313 412.136 299.483 407.064C299.589 397.909 304.366 393.052 304.419 392.999C304.468 392.947 304.496 392.879 304.496 392.807C304.496 392.735 304.468 392.666 304.419 392.615C304.394 392.586 304.363 392.564 304.329 392.548C304.295 392.533 304.257 392.525 304.22 392.525C304.182 392.525 304.145 392.533 304.111 392.548C304.076 392.564 304.046 392.586 304.021 392.615C304.021 392.615 299.045 397.71 298.939 406.998C298.777 412.137 299.453 417.268 300.942 422.19C300.954 422.25 300.985 422.305 301.03 422.345C301.076 422.386 301.134 422.411 301.195 422.416Z" fill="white"/>
    <path d="M302.92 423.159L312.062 428.532C312.062 428.532 316.241 427.922 315.923 423.981C315.604 420.041 313.906 419.112 316.029 417.347C318.152 415.582 318.682 415.503 318.59 413.804C318.409 412.583 317.774 411.474 316.812 410.7C316.216 410.216 315.796 409.55 315.618 408.803C315.441 408.057 315.515 407.273 315.83 406.573C316.878 404.516 318.311 402.592 316.188 401.611C314.928 401.04 312.791 401.743 311.385 403.243C310.373 404.557 309.019 405.567 307.471 406.162C306.144 406.507 303.357 406.546 303.49 408.815C303.623 411.084 304.18 411.92 303.623 412.942C302.521 414.959 298.037 415.954 302.92 423.159Z" fill="#1D83FF"/>
    <path opacity="0.2" d="M302.92 423.159L312.062 428.532C312.062 428.532 316.241 427.922 315.923 423.981C315.604 420.041 313.906 419.112 316.029 417.347C318.152 415.582 318.682 415.503 318.59 413.804C318.409 412.583 317.774 411.474 316.812 410.7C316.216 410.216 315.796 409.55 315.618 408.803C315.441 408.057 315.515 407.273 315.83 406.573C316.878 404.516 318.311 402.592 316.188 401.611C314.928 401.04 312.791 401.743 311.385 403.243C310.373 404.557 309.019 405.567 307.471 406.162C306.144 406.507 303.357 406.546 303.49 408.815C303.623 411.084 304.18 411.92 303.623 412.942C302.521 414.959 298.037 415.954 302.92 423.159Z" fill="black"/>
    <path d="M306.635 425.574C306.671 425.57 306.707 425.56 306.74 425.543C306.772 425.525 306.801 425.502 306.824 425.474C306.848 425.445 306.865 425.412 306.876 425.377C306.887 425.342 306.89 425.305 306.887 425.268C306.887 425.136 305.905 411.748 315.193 402.977C315.243 402.923 315.271 402.852 315.271 402.778C315.271 402.704 315.243 402.633 315.193 402.579C315.141 402.53 315.072 402.502 315 402.502C314.929 402.502 314.86 402.53 314.808 402.579C305.321 411.536 306.33 425.136 306.33 425.321C306.333 425.358 306.343 425.394 306.361 425.426C306.378 425.459 306.401 425.488 306.43 425.511C306.458 425.535 306.491 425.552 306.526 425.563C306.561 425.574 306.598 425.577 306.635 425.574Z" fill="white"/>
    <path d="M308.227 413.937C308.263 413.935 308.298 413.926 308.331 413.911C308.363 413.895 308.392 413.873 308.416 413.845C308.44 413.818 308.457 413.786 308.468 413.752C308.479 413.717 308.483 413.681 308.479 413.645C308.411 412.521 308.111 411.422 307.597 410.42C307.083 409.417 306.367 408.532 305.494 407.82C305.465 407.798 305.431 407.782 305.396 407.773C305.36 407.764 305.323 407.763 305.287 407.769C305.251 407.775 305.216 407.789 305.186 407.809C305.155 407.829 305.129 407.856 305.109 407.887C305.059 407.938 305.032 408.007 305.032 408.079C305.032 408.151 305.059 408.22 305.109 408.271C305.915 408.938 306.576 409.762 307.053 410.693C307.53 411.623 307.812 412.641 307.882 413.685C307.885 413.726 307.896 413.765 307.916 413.801C307.936 413.836 307.963 413.867 307.996 413.891C308.029 413.916 308.066 413.932 308.106 413.94C308.146 413.948 308.187 413.947 308.227 413.937Z" fill="white"/>
    <path d="M307.603 416.286C307.641 416.284 307.678 416.276 307.712 416.26C307.747 416.244 307.777 416.221 307.802 416.193C307.802 416.193 310.111 413.712 315.339 414.428C315.375 414.436 315.412 414.436 315.449 414.427C315.485 414.419 315.518 414.403 315.547 414.38C315.577 414.357 315.6 414.328 315.617 414.295C315.634 414.262 315.643 414.226 315.644 414.189C315.65 414.154 315.648 414.119 315.64 414.084C315.632 414.05 315.617 414.018 315.595 413.989C315.574 413.961 315.548 413.937 315.518 413.919C315.487 413.901 315.454 413.889 315.419 413.884C309.886 413.128 307.457 415.715 307.457 415.821C307.408 415.873 307.38 415.942 307.38 416.014C307.38 416.085 307.408 416.154 307.457 416.206C307.496 416.247 307.547 416.275 307.603 416.286Z" fill="white"/>
    <path d="M110.394 320.978C110.957 320.978 111.497 320.755 111.895 320.356C112.293 319.958 112.517 319.418 112.517 318.855V231.549C112.517 230.985 112.293 230.445 111.895 230.047C111.497 229.649 110.957 229.426 110.394 229.426C109.831 229.426 109.291 229.649 108.892 230.047C108.494 230.445 108.271 230.985 108.271 231.549V318.855C108.271 319.418 108.494 319.958 108.892 320.356C109.291 320.755 109.831 320.978 110.394 320.978Z" fill="#37474F"/>
    <path d="M110.394 263.525C110.644 263.526 110.891 263.459 111.107 263.334C111.324 263.208 111.504 263.027 111.628 262.809L123.715 241.579C123.899 241.251 123.946 240.865 123.846 240.502C123.747 240.14 123.509 239.831 123.185 239.642C123.024 239.55 122.846 239.491 122.662 239.468C122.478 239.444 122.291 239.458 122.112 239.507C121.933 239.557 121.766 239.641 121.62 239.755C121.474 239.869 121.352 240.011 121.261 240.173L109.173 261.403C109.079 261.564 109.018 261.743 108.994 261.928C108.969 262.114 108.982 262.302 109.032 262.483C109.081 262.663 109.166 262.832 109.281 262.979C109.397 263.126 109.541 263.249 109.704 263.34C109.913 263.464 110.151 263.528 110.394 263.525Z" fill="#37474F"/>
    <path d="M110.633 269.271C110.875 269.273 111.114 269.209 111.323 269.085C111.484 268.994 111.626 268.872 111.741 268.726C111.855 268.58 111.939 268.412 111.988 268.233C112.038 268.055 112.051 267.868 112.028 267.684C112.005 267.5 111.946 267.322 111.853 267.161L95.7056 238.819C95.5191 238.492 95.2102 238.252 94.8469 238.153C94.4837 238.053 94.0957 238.102 93.7684 238.289C93.4412 238.475 93.2014 238.784 93.1019 239.147C93.0023 239.511 93.0512 239.899 93.2377 240.226L109.399 268.554C109.515 268.779 109.693 268.965 109.911 269.092C110.13 269.219 110.38 269.281 110.633 269.271Z" fill="#37474F"/>
    <path d="M74.1541 242.8C58.2713 236.221 50.729 218.012 57.3079 202.129C63.8867 186.247 82.0956 178.704 97.9784 185.283C113.861 191.862 121.404 210.071 114.825 225.954C108.246 241.836 90.037 249.379 74.1541 242.8Z" fill="#1D83FF"/>
    <path opacity="0.3" d="M74.1541 242.8C58.2713 236.221 50.729 218.012 57.3079 202.129C63.8867 186.247 82.0956 178.704 97.9784 185.283C113.861 191.862 121.404 210.071 114.825 225.954C108.246 241.836 90.037 249.379 74.1541 242.8Z" fill="black"/>
    <path d="M92.7998 205.237C92.8106 201.103 91.9944 197.008 90.3994 193.193C88.8043 189.379 86.4626 185.922 83.5118 183.026C84.361 183.026 85.2234 182.919 86.0992 182.919C91.2073 182.918 96.2372 184.174 100.745 186.576C105.253 188.978 109.101 192.453 111.949 196.693C114.797 200.934 116.557 205.81 117.075 210.892C117.593 215.974 116.852 221.105 114.918 225.833C112.984 230.56 109.916 234.74 105.986 238.002C102.055 241.264 97.3813 243.508 92.3779 244.537C87.3745 245.566 82.1948 245.348 77.2957 243.902C72.3965 242.456 67.9285 239.826 64.2857 236.246C72.0597 235.59 79.3042 232.04 84.5849 226.297C89.8656 220.555 92.7974 213.039 92.7998 205.237Z" fill="#1D83FF"/>
    <path opacity="0.4" d="M92.7998 205.237C92.8106 201.103 91.9944 197.008 90.3994 193.193C88.8043 189.379 86.4626 185.922 83.5118 183.026C84.361 183.026 85.2234 182.919 86.0992 182.919C91.2073 182.918 96.2372 184.174 100.745 186.576C105.253 188.978 109.101 192.453 111.949 196.693C114.797 200.934 116.557 205.81 117.075 210.892C117.593 215.974 116.852 221.105 114.918 225.833C112.984 230.56 109.916 234.74 105.986 238.002C102.055 241.264 97.3813 243.508 92.3779 244.537C87.3745 245.566 82.1948 245.348 77.2957 243.902C72.3965 242.456 67.9285 239.826 64.2857 236.246C72.0597 235.59 79.3042 232.04 84.5849 226.297C89.8656 220.555 92.7974 213.039 92.7998 205.237Z" fill="black"/>
    <path d="M136.904 245.175C124.586 245.175 114.6 235.189 114.6 222.871C114.6 210.552 124.586 200.566 136.904 200.566C149.223 200.566 159.208 210.552 159.208 222.871C159.208 235.189 149.223 245.175 136.904 245.175Z" fill="#1D83FF"/>
    <path opacity="0.3" d="M136.904 245.175C124.586 245.175 114.6 235.189 114.6 222.871C114.6 210.552 124.586 200.566 136.904 200.566C149.223 200.566 159.208 210.552 159.208 222.871C159.208 235.189 149.223 245.175 136.904 245.175Z" fill="black"/>
    <path d="M134.489 200.686C137.458 200.361 140.461 200.637 143.32 201.499C146.178 202.361 148.834 203.79 151.128 205.701C151.208 206.657 151.248 207.612 151.248 208.594C151.256 218.259 147.747 227.597 141.376 234.866C140.937 235.365 140.65 235.98 140.548 236.637C140.445 237.294 140.532 237.966 140.798 238.576C141.064 239.185 141.498 239.707 142.049 240.079C142.6 240.451 143.245 240.658 143.91 240.677H143.99C146.778 240.671 149.541 240.145 152.136 239.125C149.554 241.535 146.436 243.297 143.039 244.266C139.642 245.235 136.063 245.384 132.598 244.699C129.132 244.015 125.879 242.517 123.106 240.33C120.332 238.142 118.118 235.327 116.645 232.116C115.173 228.905 114.484 225.39 114.635 221.861C114.787 218.332 115.775 214.889 117.517 211.816C119.259 208.743 121.707 206.128 124.657 204.186C127.608 202.244 130.978 201.031 134.489 200.646V200.686Z" fill="#1D83FF"/>
    <path opacity="0.4" d="M134.489 200.686C137.458 200.361 140.461 200.637 143.32 201.499C146.178 202.361 148.834 203.79 151.128 205.701C151.208 206.657 151.248 207.612 151.248 208.594C151.256 218.259 147.747 227.597 141.376 234.866C140.937 235.365 140.65 235.98 140.548 236.637C140.445 237.294 140.532 237.966 140.798 238.576C141.064 239.185 141.498 239.707 142.049 240.079C142.6 240.451 143.245 240.658 143.91 240.677H143.99C146.778 240.671 149.541 240.145 152.136 239.125C149.554 241.535 146.436 243.297 143.039 244.266C139.642 245.235 136.063 245.384 132.598 244.699C129.132 244.015 125.879 242.517 123.106 240.33C120.332 238.142 118.118 235.327 116.645 232.116C115.173 228.905 114.484 225.39 114.635 221.861C114.787 218.332 115.775 214.889 117.517 211.816C119.259 208.743 121.707 206.128 124.657 204.186C127.608 202.244 130.978 201.031 134.489 200.646V200.686Z" fill="black"/>
    <path d="M71.5485 210.284C66.4818 188.816 79.7771 167.306 101.245 162.239C122.712 157.173 144.222 170.468 149.289 191.935C154.356 213.403 141.06 234.913 119.593 239.98C98.1255 245.047 76.6153 231.751 71.5485 210.284Z" fill="#1D83FF"/>
    <path opacity="0.2" d="M99.0095 227.369C105.833 227.367 112.541 225.617 118.496 222.287C124.451 218.956 129.453 214.155 133.026 208.342C136.598 202.529 138.622 195.897 138.904 189.08C139.185 182.263 137.716 175.487 134.635 169.399C139.38 173.053 143.242 177.727 145.935 183.076C148.628 188.425 150.084 194.312 150.193 200.299C150.303 206.287 149.064 212.223 146.569 217.667C144.074 223.111 140.385 227.924 135.778 231.749C131.17 235.575 125.761 238.314 119.95 239.766C114.14 241.217 108.078 241.343 102.213 240.133C96.3472 238.924 90.8291 236.41 86.0669 232.779C81.3046 229.148 77.4203 224.492 74.7016 219.156C81.6756 224.501 90.2224 227.389 99.0095 227.369Z" fill="black"/>
    <path d="M519.329 336.98C519.892 336.98 520.432 336.756 520.83 336.358C521.228 335.96 521.452 335.42 521.452 334.857V247.55C521.452 246.987 521.228 246.447 520.83 246.049C520.432 245.651 519.892 245.427 519.329 245.427C518.766 245.427 518.226 245.651 517.828 246.049C517.429 246.447 517.206 246.987 517.206 247.55V334.857C517.206 335.42 517.429 335.96 517.828 336.358C518.226 336.756 518.766 336.98 519.329 336.98Z" fill="#37474F"/>
    <path d="M519.329 279.527C519.579 279.535 519.827 279.472 520.043 279.345C520.259 279.219 520.434 279.033 520.549 278.811L532.65 257.581C532.837 257.254 532.886 256.866 532.786 256.503C532.687 256.139 532.447 255.83 532.12 255.644C531.792 255.457 531.404 255.409 531.041 255.508C530.678 255.608 530.369 255.847 530.182 256.175L518.095 277.404C518.003 277.565 517.943 277.743 517.92 277.927C517.897 278.111 517.91 278.298 517.96 278.477C518.009 278.656 518.093 278.823 518.208 278.969C518.322 279.115 518.464 279.237 518.626 279.328C518.837 279.459 519.08 279.528 519.329 279.527Z" fill="#37474F"/>
    <path d="M519.555 285.286C519.802 285.284 520.045 285.217 520.258 285.092C520.472 284.967 520.649 284.788 520.773 284.574C520.896 284.359 520.961 284.116 520.962 283.869C520.962 283.621 520.898 283.378 520.775 283.163L504.601 254.821C504.414 254.494 504.106 254.254 503.742 254.155C503.379 254.055 502.991 254.104 502.664 254.291C502.336 254.477 502.097 254.786 501.997 255.149C501.898 255.513 501.946 255.9 502.133 256.228L518.321 284.569C518.447 284.785 518.627 284.965 518.843 285.09C519.059 285.216 519.304 285.283 519.555 285.286Z" fill="#37474F"/>
    <path d="M483.065 258.802C467.182 252.223 459.64 234.015 466.219 218.132C472.798 202.249 491.006 194.706 506.889 201.285C522.772 207.864 530.314 226.073 523.736 241.956C517.157 257.839 498.948 265.381 483.065 258.802Z" fill="#1D83FF"/>
    <path opacity="0.3" d="M483.065 258.802C467.182 252.223 459.64 234.015 466.219 218.132C472.798 202.249 491.006 194.706 506.889 201.285C522.772 207.864 530.314 226.073 523.736 241.956C517.157 257.839 498.948 265.381 483.065 258.802Z" fill="black"/>
    <path d="M501.721 221.239C501.731 217.105 500.914 213.01 499.319 209.196C497.724 205.382 495.383 201.924 492.433 199.027C493.296 199.027 494.145 198.921 495.087 198.921C500.196 198.918 505.227 200.172 509.736 202.572C514.246 204.973 518.095 208.447 520.945 212.687C523.794 216.927 525.556 221.803 526.075 226.885C526.595 231.968 525.855 237.099 523.922 241.828C521.989 246.557 518.921 250.737 514.991 254C511.06 257.263 506.386 259.509 501.382 260.538C496.379 261.568 491.198 261.35 486.298 259.904C481.399 258.458 476.93 255.829 473.287 252.247C481.047 251.573 488.272 248.015 493.536 242.274C498.8 236.533 501.721 229.028 501.721 221.239Z" fill="#1D83FF"/>
    <path opacity="0.4" d="M501.721 221.239C501.731 217.105 500.914 213.01 499.319 209.196C497.724 205.382 495.383 201.924 492.433 199.027C493.296 199.027 494.145 198.921 495.087 198.921C500.196 198.918 505.227 200.172 509.736 202.572C514.246 204.973 518.095 208.447 520.945 212.687C523.794 216.927 525.556 221.803 526.075 226.885C526.595 231.968 525.855 237.099 523.922 241.828C521.989 246.557 518.921 250.737 514.991 254C511.06 257.263 506.386 259.509 501.382 260.538C496.379 261.568 491.198 261.35 486.298 259.904C481.399 258.458 476.93 255.829 473.287 252.247C481.047 251.573 488.272 248.015 493.536 242.274C498.8 236.533 501.721 229.028 501.721 221.239Z" fill="black"/>
    <path d="M545.826 261.177C533.508 261.177 523.522 251.191 523.522 238.873C523.522 226.554 533.508 216.568 545.826 216.568C558.144 216.568 568.13 226.554 568.13 238.873C568.13 251.191 558.144 261.177 545.826 261.177Z" fill="#1D83FF"/>
    <path opacity="0.3" d="M545.826 261.177C533.508 261.177 523.522 251.191 523.522 238.873C523.522 226.554 533.508 216.568 545.826 216.568C558.144 216.568 568.13 226.554 568.13 238.873C568.13 251.191 558.144 261.177 545.826 261.177Z" fill="black"/>
    <path d="M543.411 216.688C546.381 216.365 549.386 216.643 552.246 217.505C555.107 218.366 557.765 219.794 560.063 221.703C560.063 222.659 560.169 223.614 560.169 224.596C560.181 234.266 556.672 243.609 550.298 250.881C549.857 251.38 549.568 251.995 549.466 252.653C549.363 253.311 549.451 253.984 549.719 254.594C549.987 255.203 550.423 255.724 550.977 256.093C551.531 256.463 552.179 256.666 552.845 256.679C555.634 256.679 558.398 256.153 560.992 255.127C558.409 257.528 555.293 259.283 551.9 260.246C548.507 261.209 544.934 261.353 541.475 260.667C538.015 259.98 534.768 258.483 532 256.297C529.232 254.112 527.022 251.3 525.551 248.094C524.081 244.889 523.392 241.38 523.542 237.856C523.692 234.332 524.676 230.894 526.412 227.824C528.149 224.755 530.59 222.141 533.533 220.198C536.477 218.255 539.84 217.038 543.345 216.648L543.411 216.688Z" fill="#1D83FF"/>
    <path opacity="0.4" d="M543.411 216.688C546.381 216.365 549.386 216.643 552.246 217.505C555.107 218.366 557.765 219.794 560.063 221.703C560.063 222.659 560.169 223.614 560.169 224.596C560.181 234.266 556.672 243.609 550.298 250.881C549.857 251.38 549.568 251.995 549.466 252.653C549.363 253.311 549.451 253.984 549.719 254.594C549.987 255.203 550.423 255.724 550.977 256.093C551.531 256.463 552.179 256.666 552.845 256.679C555.634 256.679 558.398 256.153 560.992 255.127C558.409 257.528 555.293 259.283 551.9 260.246C548.507 261.209 544.934 261.353 541.475 260.667C538.015 259.98 534.768 258.483 532 256.297C529.232 254.112 527.022 251.3 525.551 248.094C524.081 244.889 523.392 241.38 523.542 237.856C523.692 234.332 524.676 230.894 526.412 227.824C528.149 224.755 530.59 222.141 533.533 220.198C536.477 218.255 539.84 217.038 543.345 216.648L543.411 216.688Z" fill="black"/>
    <path d="M480.456 226.297C475.389 204.83 488.685 183.32 510.152 178.253C531.619 173.186 553.13 186.481 558.196 207.949C563.263 229.416 549.968 250.927 528.5 255.993C507.033 261.06 485.523 247.765 480.456 226.297Z" fill="#1D83FF"/>
    <path opacity="0.2" d="M507.931 243.371C514.755 243.375 521.467 241.63 527.424 238.302C533.381 234.973 538.386 230.173 541.959 224.36C545.533 218.546 547.556 211.913 547.836 205.095C548.116 198.277 546.643 191.501 543.557 185.414C548.322 189.057 552.205 193.728 554.917 199.078C557.629 204.429 559.101 210.321 559.222 216.319C559.344 222.316 558.113 228.263 555.621 233.719C553.128 239.175 549.438 244 544.825 247.834C540.212 251.668 534.794 254.413 528.974 255.866C523.154 257.318 517.082 257.441 511.208 256.224C505.334 255.008 499.81 252.483 495.046 248.838C490.282 245.193 486.4 240.522 483.69 235.171C490.647 240.498 499.168 243.38 507.931 243.371Z" fill="black"/>
    <path d="M147.678 369.912V352.862H157.404V369.912C157.363 370.34 157.211 370.749 156.961 371.098C156.712 371.447 156.375 371.725 155.984 371.903C154.916 372.439 153.737 372.719 152.541 372.719C151.346 372.719 150.166 372.439 149.098 371.903C148.706 371.727 148.367 371.45 148.118 371.1C147.868 370.751 147.716 370.34 147.678 369.912Z" fill="#455A64"/>
    <path d="M149.138 350.872C147.24 351.973 147.24 353.751 149.138 354.853C150.204 355.396 151.384 355.679 152.581 355.679C153.778 355.679 154.957 355.396 156.024 354.853C157.921 353.765 157.921 351.987 156.024 350.872C154.957 350.329 153.778 350.046 152.581 350.046C151.384 350.046 150.204 350.329 149.138 350.872Z" fill="#37474F"/>
    <path d="M133.083 276.091C133.459 276.091 133.821 275.941 134.087 275.675C134.353 275.409 134.503 275.048 134.503 274.671V258.749C134.522 258.552 134.499 258.353 134.437 258.165C134.375 257.977 134.274 257.804 134.141 257.658C134.008 257.511 133.845 257.394 133.664 257.314C133.483 257.233 133.288 257.192 133.09 257.192C132.892 257.192 132.696 257.233 132.515 257.314C132.334 257.394 132.171 257.511 132.038 257.658C131.905 257.804 131.804 257.977 131.742 258.165C131.68 258.353 131.657 258.552 131.676 258.749V274.671C131.675 274.857 131.71 275.041 131.78 275.213C131.85 275.386 131.953 275.542 132.084 275.674C132.214 275.806 132.37 275.911 132.542 275.982C132.713 276.054 132.897 276.091 133.083 276.091Z" fill="#37474F"/>
    <path d="M110.42 290.407C110.606 290.407 110.79 290.371 110.962 290.299C111.133 290.228 111.289 290.123 111.42 289.991C111.55 289.859 111.654 289.702 111.724 289.53C111.794 289.358 111.829 289.174 111.827 288.988V273.065C111.846 272.868 111.824 272.67 111.761 272.482C111.699 272.294 111.598 272.121 111.465 271.974C111.332 271.828 111.17 271.71 110.989 271.63C110.808 271.55 110.612 271.509 110.414 271.509C110.216 271.509 110.02 271.55 109.839 271.63C109.658 271.71 109.496 271.828 109.363 271.974C109.229 272.121 109.128 272.294 109.066 272.482C109.004 272.67 108.982 272.868 109.001 273.065V288.988C109.001 289.364 109.15 289.725 109.416 289.992C109.683 290.258 110.044 290.407 110.42 290.407Z" fill="#37474F"/>
    <path d="M152.468 353.433C152.845 353.433 153.206 353.283 153.472 353.017C153.739 352.751 153.888 352.39 153.888 352.013V247.63C153.883 247.382 153.814 247.14 153.688 246.926C153.561 246.713 153.382 246.536 153.166 246.413C152.951 246.29 152.708 246.225 152.46 246.225C152.212 246.224 151.968 246.287 151.752 246.409L92.9062 280.39C92.601 280.588 92.3836 280.896 92.2988 281.25C92.214 281.603 92.2684 281.976 92.4505 282.291C92.6327 282.606 92.9288 282.839 93.2778 282.942C93.6268 283.045 94.002 283.01 94.3259 282.844L151.049 250.085V352.013C151.049 352.2 151.085 352.384 151.157 352.556C151.228 352.729 151.333 352.885 151.465 353.017C151.596 353.149 151.753 353.253 151.925 353.325C152.097 353.396 152.282 353.433 152.468 353.433Z" fill="#37474F"/>
    <path d="M145.33 264.481V304.91C145.332 305.872 145.078 306.817 144.596 307.649C144.113 308.481 143.419 309.171 142.583 309.647L97.0723 335.932C96.722 336.134 96.3247 336.241 95.9202 336.241C95.5157 336.241 95.1182 336.136 94.7675 335.934C94.4168 335.732 94.1252 335.442 93.9219 335.093C93.7186 334.743 93.6108 334.346 93.6092 333.941V293.512C93.6114 292.551 93.8664 291.608 94.3485 290.776C94.8306 289.945 95.5228 289.255 96.3558 288.775L141.867 262.491C142.217 262.288 142.614 262.182 143.019 262.181C143.423 262.181 143.821 262.287 144.172 262.488C144.522 262.69 144.814 262.98 145.017 263.33C145.22 263.679 145.328 264.076 145.33 264.481Z" fill="#455A64"/>
    <path d="M129.832 281.657V287.895L130.396 287.571V284.692L133.78 282.747V285.626L134.352 285.297V279.059L133.78 279.388V282.168L130.396 284.113V281.333L129.832 281.657ZM125.702 290.321C126.238 290.014 126.725 289.597 127.163 289.072C127.595 288.544 127.935 287.969 128.182 287.346C128.424 286.725 128.546 286.115 128.546 285.515C128.546 284.915 128.424 284.444 128.182 284.102C127.935 283.763 127.595 283.581 127.163 283.556C126.725 283.529 126.238 283.669 125.702 283.977C125.167 284.284 124.685 284.698 124.257 285.217C123.825 285.739 123.485 286.314 123.238 286.944C122.99 287.567 122.867 288.179 122.867 288.779C122.867 289.379 122.99 289.851 123.238 290.196C123.485 290.535 123.825 290.717 124.257 290.742C124.685 290.769 125.167 290.629 125.702 290.321ZM125.702 289.733C125.275 289.979 124.888 290.091 124.543 290.07C124.198 290.042 123.928 289.889 123.732 289.609C123.536 289.324 123.438 288.937 123.438 288.45C123.438 287.963 123.536 287.467 123.732 286.962C123.928 286.452 124.198 285.988 124.543 285.569C124.888 285.145 125.275 284.81 125.702 284.565C126.13 284.319 126.519 284.208 126.869 284.233C127.214 284.254 127.487 284.406 127.688 284.689C127.884 284.969 127.982 285.352 127.982 285.839C127.982 286.326 127.884 286.825 127.688 287.336C127.487 287.843 127.214 288.309 126.869 288.733C126.519 289.154 126.13 289.488 125.702 289.733ZM119.406 293.94C120.107 293.537 120.653 292.992 121.044 292.303C121.436 291.615 121.632 290.828 121.632 289.943V286.37L121.06 286.698V290.245C121.06 290.97 120.918 291.592 120.635 292.111C120.352 292.63 119.942 293.044 119.406 293.352C118.866 293.662 118.453 293.721 118.17 293.527C117.887 293.334 117.745 292.875 117.745 292.15V288.603L117.189 288.923V292.496C117.189 293.381 117.385 293.943 117.776 294.182C118.162 294.423 118.706 294.342 119.406 293.94ZM113.975 297.061C114.377 296.83 114.763 296.534 115.134 296.173C115.5 295.814 115.783 295.455 115.984 295.096L115.76 294.717C115.564 295.055 115.304 295.389 114.979 295.718C114.655 296.041 114.32 296.302 113.975 296.5C113.491 296.778 113.128 296.886 112.885 296.823C112.643 296.754 112.522 296.556 112.522 296.23C112.522 295.98 112.589 295.743 112.723 295.517C112.852 295.295 113.012 295.09 113.202 294.903C113.393 294.711 113.658 294.469 113.998 294.179C114.405 293.826 114.729 293.527 114.972 293.28C115.214 293.028 115.422 292.739 115.597 292.413C115.767 292.089 115.852 291.735 115.852 291.348C115.852 291.034 115.78 290.79 115.636 290.617C115.492 290.439 115.27 290.358 114.972 290.375C114.673 290.393 114.302 290.528 113.859 290.783C113.55 290.961 113.249 291.184 112.955 291.454C112.656 291.721 112.399 292.003 112.182 292.299L112.376 292.714C112.602 292.411 112.844 292.144 113.102 291.913C113.359 291.676 113.612 291.487 113.859 291.344C114.333 291.072 114.691 290.973 114.933 291.048C115.17 291.12 115.288 291.322 115.288 291.655C115.288 291.904 115.224 292.143 115.095 292.372C114.961 292.597 114.796 292.808 114.601 293.003C114.4 293.196 114.132 293.436 113.797 293.724C113.401 294.065 113.081 294.361 112.839 294.613C112.592 294.862 112.383 295.148 112.213 295.472C112.043 295.789 111.958 296.138 111.958 296.518C111.958 296.833 112.033 297.078 112.182 297.254C112.327 297.426 112.551 297.503 112.855 297.482C113.158 297.456 113.532 297.316 113.975 297.061ZM106.888 300.51V301.081L110.713 298.883V292.645L107.004 294.776V295.347L110.141 293.544V295.763L107.344 297.37V297.931L110.141 296.324V298.641L106.888 300.51Z" fill="#FAFAFA"/>
    <path d="M256.48 475.065C256.48 475.065 257.196 476.233 256.878 481.553C256.559 486.874 256.559 487.272 256.48 490.735C256.4 494.198 256.559 498.059 252.115 496.892C247.67 495.724 246.913 492.633 247.431 489.913C248.158 486.303 248.654 482.652 248.917 478.979C249.023 475.715 250.111 474.627 250.111 474.627L256.48 475.065Z" fill="#37474F"/>
    <path d="M252.367 418.701L252.698 425.335C252.816 427.632 252.66 429.935 252.234 432.195C251.173 437.887 249.182 449.775 249.58 457.325C250.138 467.555 250.045 474.574 250.045 474.574C250.045 474.574 249.169 485.189 249.129 487.418C249.115 487.799 249.178 488.179 249.314 488.535C249.451 488.892 249.658 489.216 249.923 489.49C250.188 489.764 250.506 489.982 250.858 490.13C251.21 490.277 251.587 490.353 251.969 490.351C252.977 490.351 255.764 491.359 256.414 476.684C257.358 468.307 258.87 460.004 260.938 451.832C263.074 443.685 264.587 436.48 265.37 432.5C265.775 430.446 266.041 428.367 266.166 426.277L266.737 416.989L252.367 418.701Z" fill="#945959"/>
    <path d="M273.981 474.455V474.548C273.993 475.78 274.25 476.998 274.737 478.13C275.088 479.031 275.263 479.99 275.255 480.956V484.937C275.255 485.1 275.319 485.257 275.433 485.373C275.547 485.49 275.702 485.557 275.865 485.561C275.947 485.561 276.028 485.544 276.104 485.513C276.179 485.482 276.248 485.436 276.306 485.378C276.364 485.32 276.41 485.251 276.441 485.176C276.473 485.1 276.489 485.019 276.489 484.937V478.833L273.981 474.455Z" fill="#263238"/>
    <path d="M276.011 470.408C276.011 470.408 278.134 471.974 278.134 476.113C278.212 477.822 278.669 479.492 279.472 481.002C280.276 482.512 281.405 483.824 282.778 484.844C284.344 485.786 287.807 483.517 287.807 483.517C287.807 483.517 291.495 486.649 291.495 488.055C291.495 489.462 289.691 490.616 285.525 490.045C281.358 489.475 277.895 488.864 277.245 484.353C276.489 479.046 276.462 478.409 274.87 476.671C273.278 474.933 273.888 471.363 276.011 470.408Z" fill="#263238"/>
    <path d="M268.727 403.229L285.007 420.266L283.773 459.528L283.388 470.235C283.707 476.472 288.019 482.761 288.019 482.761C288.105 483.599 288.105 484.444 288.019 485.282H284.105C276.595 485.282 276.038 469.625 276.038 469.625L275.785 465.777C275.541 462.115 275.062 458.472 274.353 454.87C270.624 436.361 272.097 426.715 272.097 426.715L268.727 403.229Z" fill="#945959"/>
    <path d="M276.038 469.678C276.038 469.678 277.762 470.912 278.2 475.384C278.276 477.1 278.739 478.777 279.555 480.289C280.37 481.801 281.518 483.109 282.911 484.114C284.503 485.043 288.019 482.788 288.019 482.788C288.019 482.788 291.761 485.919 291.761 487.325C291.761 488.732 289.93 489.886 285.697 489.302C281.464 488.719 278.705 487.975 277.922 483.491C277.139 479.006 277.126 477.958 275.507 476.22C273.888 474.481 272.853 472.889 276.038 469.678Z" fill="#37474F"/>
    <path d="M257.05 384.773C257.05 384.773 251.318 392.734 251.504 411.589C251.637 426.091 252.101 429.143 252.101 429.143C257.09 433.737 263.643 436.257 270.425 436.189C277.165 436.189 285.458 429.554 285.458 429.554C285.458 429.554 285.339 412.703 284.941 405.897C284.499 399.176 283.424 392.512 281.73 385.994L257.05 384.773Z" fill="#263238"/>
    <path d="M308.346 354.096C308.514 353.511 308.625 352.911 308.678 352.305C308.664 350.989 309.17 349.721 310.085 348.776C311.04 347.449 310.496 346.361 311.411 346.122C312.327 345.883 312.951 348.948 311.955 350.368C312.965 349.69 313.798 348.78 314.384 347.714C315.02 346.268 316.122 344.118 317.037 343.734C317.953 343.349 321.15 347.13 319.837 350.633C318.523 354.136 312.805 357.679 312.805 357.679L308.346 354.096Z" fill="#945959"/>
    <path d="M276.714 350.368H276.82C279.194 350.345 281.515 351.069 283.455 352.438L298.7 363.053L308.572 353.3C309.861 355.065 311.61 356.442 313.627 357.281L302.628 371.478C302.11 372.147 301.377 372.618 300.554 372.811C299.73 373.004 298.865 372.908 298.103 372.54L284.184 365.812L276.714 350.368Z" fill="#37474F"/>
    <path d="M272.481 350.355H276.714C276.714 350.355 291.999 364.831 281.438 374.105C280.974 378.04 281.072 382.021 281.73 385.927C281.73 385.927 274.021 391.102 256.904 385.927L258.404 373.906L255.086 363.291L255.776 352.398C255.801 352.054 255.949 351.731 256.192 351.487C256.436 351.243 256.76 351.096 257.103 351.071L263.446 350.792L272.481 350.355Z" fill="#455A64"/>
    <path d="M272.203 349.147L274.525 350.474L278.864 357.254C278.976 357.434 279.049 357.636 279.079 357.846C279.108 358.057 279.094 358.271 279.036 358.475L277.802 362.761L278.293 363.344C278.528 363.626 278.693 363.959 278.774 364.317C278.855 364.674 278.849 365.046 278.758 365.401L277.709 369.315L272.694 365.932C272.344 365.696 272.067 365.368 271.894 364.983C271.72 364.599 271.657 364.174 271.712 363.756V363.384L265.303 361.076C265.08 360.996 264.88 360.864 264.718 360.691C264.557 360.517 264.439 360.308 264.375 360.08L261.721 350.925L263.512 349.598L272.203 349.147Z" fill="#263238"/>
    <path d="M263.552 328.196C263.552 330.13 264.125 332.021 265.2 333.629C266.274 335.237 267.802 336.491 269.589 337.231C271.375 337.971 273.342 338.164 275.239 337.787C277.135 337.41 278.878 336.478 280.245 335.111C281.613 333.743 282.544 332.001 282.922 330.104C283.299 328.207 283.105 326.241 282.365 324.454C281.625 322.667 280.372 321.14 278.764 320.065C277.155 318.991 275.265 318.417 273.331 318.417C272.046 318.415 270.774 318.667 269.586 319.158C268.399 319.649 267.321 320.369 266.412 321.278C265.504 322.186 264.784 323.265 264.293 324.452C263.802 325.639 263.55 326.911 263.552 328.196Z" fill="#263238"/>
    <path d="M249.633 342.261C249.633 343.342 249.954 344.399 250.554 345.298C251.155 346.197 252.009 346.898 253.008 347.311C254.007 347.725 255.106 347.833 256.166 347.622C257.227 347.411 258.201 346.891 258.965 346.126C259.73 345.362 260.25 344.388 260.461 343.327C260.672 342.267 260.564 341.168 260.15 340.169C259.737 339.17 259.036 338.316 258.137 337.715C257.238 337.115 256.181 336.794 255.1 336.794C254.381 336.792 253.67 336.933 253.006 337.207C252.342 337.481 251.738 337.883 251.23 338.391C250.722 338.899 250.32 339.503 250.046 340.167C249.772 340.831 249.631 341.542 249.633 342.261Z" fill="#263238"/>
    <path d="M256.767 341.726C254.513 339.472 254.173 336.157 256.007 334.323C257.842 332.489 261.156 332.829 263.41 335.083C265.664 337.337 266.004 340.651 264.17 342.486C262.336 344.32 259.021 343.98 256.767 341.726Z" fill="#1D83FF"/>
    <path d="M259.134 323.818C258.756 323.389 258.475 322.883 258.31 322.336C258.146 321.789 258.1 321.213 258.178 320.646C258.337 318.524 256.334 320.063 256.161 321.283C256.181 322.018 256.408 322.732 256.817 323.342C257.225 323.953 257.799 324.435 258.47 324.733L259.134 323.818Z" fill="#263238"/>
    <path d="M258.457 324.242C257.887 324.273 257.318 324.182 256.786 323.973C256.255 323.765 255.775 323.445 255.379 323.035C253.813 321.602 253.786 324.123 254.636 325.012C255.216 325.442 255.904 325.702 256.623 325.763C257.343 325.824 258.065 325.683 258.709 325.357L258.457 324.242Z" fill="#263238"/>
    <path d="M272.482 344.835V350.355C272.482 350.355 276.569 363.623 275.228 362.654C271.248 359.855 265.357 353.035 263.857 351.27C263.619 350.993 263.488 350.64 263.486 350.275V339.66L272.482 344.835Z" fill="#945959"/>
    <path d="M263.592 337.842V338.161C265.595 346.122 270.796 347.78 272.481 348.192V335.958H263.791L263.592 337.842Z" fill="#703838"/>
    <path d="M270.969 320.142C273.841 320.327 276.527 321.626 278.456 323.762C280.384 325.899 281.402 328.704 281.292 331.58C281.398 340.324 280.058 346.998 275.52 347.276C271.534 347.175 267.739 345.544 264.923 342.72C262.106 339.896 260.485 336.097 260.394 332.11C259.916 320.753 267.745 319.877 270.969 320.142Z" fill="#945959"/>
    <path d="M275.175 335.096L275.095 340.231L278.107 339.355L275.175 335.096Z" fill="#703838"/>
    <path d="M270.664 334.963C270.661 335.171 270.72 335.375 270.834 335.549C270.947 335.723 271.11 335.86 271.301 335.941C271.493 336.022 271.704 336.045 271.908 336.006C272.112 335.967 272.3 335.868 272.448 335.722C272.596 335.576 272.697 335.39 272.739 335.186C272.78 334.982 272.76 334.771 272.682 334.578C272.603 334.386 272.468 334.222 272.296 334.106C272.123 333.99 271.92 333.928 271.712 333.928C271.575 333.926 271.439 333.952 271.312 334.003C271.185 334.054 271.069 334.13 270.971 334.227C270.874 334.323 270.797 334.438 270.744 334.564C270.691 334.69 270.664 334.826 270.664 334.963Z" fill="#263238"/>
    <path d="M277.55 334.326C277.549 334.464 277.574 334.601 277.625 334.728C277.676 334.856 277.752 334.973 277.848 335.071C277.944 335.17 278.059 335.249 278.185 335.303C278.312 335.357 278.448 335.386 278.585 335.388C278.722 335.39 278.858 335.364 278.985 335.313C279.113 335.262 279.228 335.186 279.326 335.089C279.423 334.993 279.501 334.878 279.553 334.752C279.606 334.626 279.634 334.49 279.634 334.353C279.65 334.206 279.635 334.058 279.591 333.917C279.546 333.776 279.472 333.647 279.374 333.537C279.275 333.427 279.155 333.339 279.02 333.278C278.885 333.218 278.74 333.187 278.592 333.187C278.444 333.187 278.298 333.218 278.164 333.278C278.029 333.339 277.909 333.427 277.81 333.537C277.712 333.647 277.638 333.776 277.593 333.917C277.548 334.058 277.534 334.206 277.55 334.353V334.326Z" fill="#263238"/>
    <path d="M279.899 332.177L277.869 330.943C277.869 330.943 278.665 330.133 279.447 330.638C279.669 330.819 279.831 331.063 279.911 331.337C279.992 331.612 279.987 331.905 279.899 332.177Z" fill="#1D83FF"/>
    <path d="M275.759 341.982C274.7 341.478 273.672 340.911 272.681 340.284C272.681 340.284 272.017 341.969 273.397 342.659C273.808 342.836 274.269 342.866 274.699 342.743C275.13 342.619 275.504 342.351 275.759 341.982Z" fill="#703838"/>
    <path d="M279.899 332.177L277.869 330.943C277.869 330.943 278.665 330.133 279.447 330.638C279.669 330.819 279.831 331.063 279.911 331.337C279.992 331.612 279.987 331.905 279.899 332.177Z" fill="#263238"/>
    <path d="M266.192 333.636C266.192 333.636 266.736 338.201 263.459 338.201L262.663 334.114L266.192 333.636Z" fill="#263238"/>
    <path d="M265.94 334.976C265.94 334.976 279.036 332.694 279.036 320.063C279.036 316.241 276.688 313.574 271.34 317.542C265.993 321.509 255.153 318.47 255.153 332.853C255.131 335.412 255.924 337.912 257.417 339.989C258.91 342.067 261.027 343.616 263.459 344.41V335.348L265.94 334.976Z" fill="#263238"/>
    <path d="M263.618 337.736C263.633 336.912 263.461 336.096 263.114 335.348C262.956 334.891 262.666 334.491 262.281 334.199C261.896 333.906 261.434 333.733 260.951 333.703C260.554 333.706 260.162 333.795 259.801 333.962C259.441 334.13 259.12 334.372 258.861 334.674C258.603 334.976 258.411 335.329 258.3 335.711C258.189 336.093 258.161 336.494 258.218 336.887C258.32 338.203 258.932 339.428 259.923 340.3C260.914 341.173 262.207 341.624 263.525 341.558L263.618 337.736Z" fill="#945959"/>
    <path d="M261.164 366.383L267.479 365.733V364.539L261.164 365.189V366.383Z" fill="#263238"/>
    <path d="M278.678 372.301H281.252C281.252 371.597 281.532 370.922 282.029 370.424C282.527 369.926 283.202 369.647 283.906 369.647C284.61 369.647 285.285 369.926 285.782 370.424C286.28 370.922 286.56 371.597 286.56 372.301H288.085C288.246 372.299 288.405 372.336 288.549 372.408C288.693 372.48 288.818 372.585 288.914 372.714C289.009 372.844 289.073 372.994 289.1 373.153C289.127 373.311 289.115 373.474 289.067 373.627L288.285 376.135H276.714L277.696 373.004C277.764 372.797 277.896 372.618 278.072 372.492C278.249 372.365 278.461 372.298 278.678 372.301Z" fill="#1D83FF"/>
    <path opacity="0.7" d="M278.678 372.301H281.252C281.252 371.597 281.532 370.922 282.029 370.424C282.527 369.926 283.202 369.647 283.906 369.647C284.61 369.647 285.285 369.926 285.782 370.424C286.28 370.922 286.56 371.597 286.56 372.301H288.085C288.246 372.299 288.405 372.336 288.549 372.408C288.693 372.48 288.818 372.585 288.914 372.714C289.009 372.844 289.073 372.994 289.1 373.153C289.127 373.311 289.115 373.474 289.067 373.627L288.285 376.135H276.714L277.696 373.004C277.764 372.797 277.896 372.618 278.072 372.492C278.249 372.365 278.461 372.298 278.678 372.301Z" fill="black"/>
    <path d="M270.956 373.641L264.507 397.975L285.286 398.068L293.3 373.88L270.956 373.641Z" fill="#1D83FF"/>
    <path opacity="0.3" d="M270.956 373.641L264.507 397.975L285.286 398.068L293.3 373.88L270.956 373.641Z" fill="black"/>
    <path d="M278.678 373.389H281.252C281.252 372.685 281.532 372.01 282.029 371.512C282.527 371.015 283.202 370.735 283.906 370.735C284.61 370.735 285.285 371.015 285.782 371.512C286.28 372.01 286.56 372.685 286.56 373.389H288.085C288.246 373.388 288.405 373.425 288.549 373.496C288.693 373.568 288.818 373.673 288.914 373.803C289.009 373.932 289.073 374.082 289.1 374.241C289.127 374.399 289.115 374.562 289.067 374.716L288.696 375.936H277.139L277.696 374.092C277.764 373.886 277.896 373.706 278.072 373.58C278.249 373.453 278.461 373.386 278.678 373.389Z" fill="#1D83FF"/>
    <path opacity="0.5" d="M278.678 373.389H281.252C281.252 372.685 281.532 372.01 282.029 371.512C282.527 371.015 283.202 370.735 283.906 370.735C284.61 370.735 285.285 371.015 285.782 371.512C286.28 372.01 286.56 372.685 286.56 373.389H288.085C288.246 373.388 288.405 373.425 288.549 373.496C288.693 373.568 288.818 373.673 288.914 373.803C289.009 373.932 289.073 374.082 289.1 374.241C289.127 374.399 289.115 374.562 289.067 374.716L288.696 375.936H277.139L277.696 374.092C277.764 373.886 277.896 373.706 278.072 373.58C278.249 373.453 278.461 373.386 278.678 373.389Z" fill="black"/>
    <path d="M262.198 382.769C263.33 383.022 264.496 383.084 265.648 382.955C266.975 382.69 266.975 381.496 268.939 381.536L268.302 384.189C270.237 384.562 272.213 384.682 274.18 384.547C276.833 384.242 275.931 386.578 275.507 387.201C275.082 387.825 273.304 391.5 269.509 391.182C266.49 390.787 263.508 390.148 260.593 389.271C260.304 388.139 260.299 386.953 260.579 385.819C260.859 384.684 261.415 383.637 262.198 382.769Z" fill="#945959"/>
    <path d="M257.05 351.111C255.255 351.136 253.512 351.727 252.071 352.799C250.63 353.871 249.564 355.369 249.023 357.082L242.588 377.383C242.331 378.185 242.239 379.03 242.315 379.869C242.392 380.707 242.636 381.522 243.033 382.264C243.43 383.007 243.972 383.662 244.627 384.191C245.283 384.72 246.037 385.112 246.847 385.344L260.62 389.324C260.561 387.06 261.106 384.82 262.198 382.836L251.424 378.272L257.926 361.102C258.488 359.685 258.797 358.181 258.842 356.657C258.922 355.66 258.806 354.657 258.499 353.706C258.191 352.754 257.699 351.872 257.05 351.111Z" fill="#37474F"/>
    <path d="M257.899 386.989C257.897 387.131 257.937 387.271 258.014 387.39C258.091 387.51 258.202 387.604 258.332 387.66C258.463 387.716 258.608 387.733 258.747 387.706C258.887 387.68 259.016 387.613 259.118 387.513C259.219 387.414 259.289 387.286 259.318 387.147C259.346 387.008 259.333 386.863 259.279 386.731C259.225 386.599 259.133 386.487 259.015 386.407C258.897 386.328 258.758 386.286 258.616 386.286C258.428 386.286 258.248 386.359 258.114 386.491C257.98 386.622 257.903 386.801 257.899 386.989Z" fill="#263238"/>
    <path d="M255.485 386.365C255.482 386.508 255.522 386.648 255.6 386.768C255.678 386.888 255.789 386.982 255.921 387.038C256.052 387.094 256.197 387.109 256.338 387.082C256.478 387.055 256.607 386.986 256.708 386.885C256.809 386.784 256.877 386.655 256.904 386.515C256.932 386.375 256.916 386.23 256.86 386.098C256.805 385.967 256.711 385.855 256.591 385.777C256.471 385.699 256.331 385.659 256.188 385.662C256.002 385.665 255.826 385.741 255.694 385.872C255.563 386.003 255.488 386.18 255.485 386.365Z" fill="#263238"/>
    <path d="M311.106 358.621C311.282 358.709 311.486 358.723 311.673 358.661C311.859 358.599 312.013 358.465 312.101 358.289C312.189 358.113 312.204 357.909 312.142 357.723C312.079 357.536 311.946 357.382 311.77 357.294C311.594 357.206 311.39 357.192 311.203 357.254C311.017 357.316 310.863 357.45 310.775 357.626C310.687 357.802 310.672 358.005 310.734 358.192C310.796 358.379 310.93 358.533 311.106 358.621Z" fill="#263238"/>
    <path d="M309.408 360.465C309.533 360.533 309.675 360.561 309.816 360.548C309.957 360.534 310.091 360.479 310.201 360.39C310.311 360.3 310.392 360.18 310.433 360.044C310.475 359.908 310.475 359.764 310.434 359.628C310.393 359.492 310.313 359.371 310.203 359.281C310.094 359.191 309.96 359.136 309.819 359.122C309.678 359.108 309.536 359.136 309.41 359.202C309.285 359.269 309.183 359.372 309.116 359.497C309.027 359.664 309.007 359.86 309.062 360.041C309.117 360.223 309.241 360.375 309.408 360.465Z" fill="#263238"/>
    <path d="M359.974 473.552C359.974 473.552 361.142 474.189 361.301 476.684C361.46 479.178 363.769 483.836 358.422 484.021C353.074 484.207 353.817 484.486 351.641 485.348C349.465 486.211 344.755 488.201 341.027 485.547C337.298 482.894 341.597 481.487 343.163 480.956C345.943 480.039 348.585 478.749 351.018 477.122C352 476.467 352.892 475.686 353.671 474.8L359.974 473.552Z" fill="#263238"/>
    <path d="M377.223 479.762C377.223 479.762 378.139 480.028 378.178 481.859C378.218 483.69 379.665 486.476 377.701 488.135C375.737 489.793 375.432 489.581 374.238 492.115C373.507 493.965 372.11 495.474 370.323 496.346C368.535 497.218 366.486 497.389 364.578 496.826C358.86 495.565 362.469 492.128 362.946 491.624C363.424 491.12 369.023 485.587 369.58 483.769C369.916 482.766 370.338 481.794 370.841 480.864L377.223 479.762Z" fill="#263238"/>
    <path d="M377.223 477.48V480.864C377.223 480.864 376.812 482.442 373.681 482.442C371.996 482.442 370.894 481.447 370.868 480.864V477.148L377.223 477.48Z" fill="#FFA8A7"/>
    <path d="M359.974 471.443V474.813C359.974 474.813 359.563 476.405 356.432 476.405C354.747 476.405 353.632 475.397 353.605 474.813V471.111L359.974 471.443Z" fill="#FFA8A7"/>
    <path d="M350.421 392.562L348.033 431.611C347.924 433.453 347.995 435.302 348.245 437.131L353.221 473.261C354.434 473.754 355.757 473.918 357.055 473.736C358.353 473.555 359.579 473.033 360.611 472.226L362.548 443.34C362.719 440.906 362.389 438.464 361.58 436.162L360.81 433.986L367.789 395.268L350.421 392.562Z" fill="#455A64"/>
    <path d="M355.211 402.778C355.211 402.778 356.392 407.396 362.296 410.248L363.477 418.953L366.038 404.782L355.211 402.778Z" fill="#37474F"/>
    <path d="M353.34 394.141C353.34 394.141 352.504 401.531 358.223 406.321C359.801 407.721 361.733 408.662 363.809 409.041L365.706 436.48L370.297 479.364C370.297 479.364 373.07 481.686 378.192 479.364L380.62 447.228C380.888 443.621 380.235 440.005 378.722 436.719L378.616 436.48C379.883 422.214 380.326 407.887 379.943 393.57L353.34 394.141Z" fill="#455A64"/>
    <path d="M345.472 365.746L343.402 369.859C343.402 369.859 334.114 373.15 328.621 373.03L326.246 378.802C330.661 379.131 335.093 379.18 339.514 378.948C345.976 378.537 346.931 378.364 348.802 375.91C350.673 373.455 353.552 368.957 353.552 368.957L345.472 365.746Z" fill="#FFA8A7"/>
    <path d="M328.621 373.03C328.12 372.687 327.653 372.296 327.228 371.863C326.822 371.351 326.319 370.924 325.747 370.607C325.175 370.291 324.547 370.091 323.897 370.018C322.345 369.634 322.053 368.413 321.244 368.824C320.434 369.235 321.854 371.982 323.526 372.446C322.324 372.576 321.108 372.412 319.983 371.969C318.577 371.252 316.361 370.284 315.459 370.642C314.556 371 314.437 375.883 317.674 377.741C320.912 379.598 327.586 378.722 327.586 378.722L328.621 373.03Z" fill="#FFA8A7"/>
    <path d="M359.974 347.289C358.519 346.997 357.007 347.181 355.664 347.814C354.321 348.448 353.218 349.496 352.517 350.806L344.676 365.494C344.676 365.494 346.772 369.979 353.592 370.204L359.974 347.289Z" fill="#1D83FF"/>
    <path opacity="0.5" d="M359.974 347.289C358.519 346.997 357.007 347.181 355.664 347.814C354.321 348.448 353.218 349.496 352.517 350.806L344.676 365.494C344.676 365.494 346.772 369.979 353.592 370.204L359.974 347.289Z" fill="black"/>
    <path d="M379.598 373.004L381.947 379.041L384.401 399.461L390.319 401.332C390.319 401.332 390.823 389.045 390.571 380.792C390.506 378.583 390.094 376.398 389.351 374.317L387.692 369.673L379.598 373.004Z" fill="#FFA8A7"/>
    <path d="M371.04 349.32L378.484 351.456L379.877 372.274V393.57C379.877 393.57 375.246 397.551 364.247 397.551C359.193 397.448 354.314 395.68 350.368 392.522V365.746C350.368 363.344 349.412 349.585 359.881 347.17L361.673 347.528L371.04 349.32Z" fill="#1D83FF"/>
    <path opacity="0.3" d="M371.04 349.32L378.484 351.456L379.877 372.274V393.57C379.877 393.57 375.246 397.551 364.247 397.551C359.193 397.448 354.314 395.68 350.368 392.522V365.746C350.368 363.344 349.412 349.585 359.881 347.17L361.673 347.528L371.04 349.32Z" fill="black"/>
    <path d="M374.277 350.248C374.277 350.248 371.783 352.716 373.574 359.616C375.044 364.841 376.816 369.975 378.882 374.994C380.747 375.346 382.672 375.185 384.453 374.529C386.233 373.872 387.802 372.744 388.992 371.266L383.685 356.67C383.237 355.402 382.493 354.258 381.515 353.335C380.536 352.412 379.351 351.736 378.059 351.363L374.277 350.248Z" fill="#1D83FF"/>
    <path opacity="0.5" d="M374.277 350.248C374.277 350.248 371.783 352.716 373.574 359.616C375.044 364.841 376.816 369.975 378.882 374.994C380.747 375.346 382.672 375.185 384.453 374.529C386.233 373.872 387.802 372.744 388.992 371.266L383.685 356.67C383.237 355.402 382.493 354.258 381.515 353.335C380.536 352.412 379.351 351.736 378.059 351.363L374.277 350.248Z" fill="black"/>
    <path d="M384.401 399.461C384.09 399.981 383.73 400.469 383.327 400.921C382.361 401.812 381.78 403.045 381.708 404.357C381.429 405.936 380.222 406.308 380.686 407.117C381.151 407.927 383.804 406.308 384.149 404.609C384.361 405.801 384.279 407.026 383.91 408.179C383.287 409.625 382.451 411.907 382.822 412.783C383.194 413.659 388.13 413.46 389.762 410.129C391.394 406.799 390.107 400.191 390.107 400.191L384.401 399.461Z" fill="#FFA8A7"/>
    <path d="M353.154 323.141C353.154 323.141 351.416 324.919 351.416 329.603C351.416 334.286 355.29 338.333 355.29 338.333V323.406L353.154 323.141Z" fill="#263238"/>
    <path d="M353.154 324.361C352.405 323.923 351.773 323.311 351.311 322.576C350.849 321.842 350.571 321.007 350.5 320.142C350.262 317.157 352.013 318.231 352.61 318.484C353.207 318.736 355.025 319.399 355.025 319.399C355.025 319.399 353.366 317.674 354.348 316.52C355.078 315.671 358.621 318.351 363.079 318.882C367.537 319.412 371.836 319.373 373.097 323.366C373.097 323.366 377.409 324.229 376.374 331.792C375.339 339.355 372.393 343.733 371.067 343.654L353.154 324.361Z" fill="#263238"/>
    <path d="M371.04 349.32L367.139 351.787C366.279 352.337 365.284 352.638 364.263 352.659C363.243 352.68 362.236 352.42 361.354 351.907C361.009 351.708 360.72 351.425 360.514 351.084C360.308 350.743 360.192 350.355 360.178 349.957C360.163 349.559 360.25 349.164 360.43 348.808C360.611 348.453 360.878 348.15 361.208 347.926L361.726 347.595V336.834H371.014L371.04 349.32Z" fill="#FFA8A7"/>
    <path d="M361.726 347.595C363.746 347.314 365.637 346.438 367.159 345.08C368.68 343.721 369.764 341.941 370.271 339.965V336.834H361.726V347.595Z" fill="#F28F8F"/>
    <path d="M359.549 321.562C359.549 321.562 350.686 321.894 352.292 336.157C353.035 342.871 353.618 346.573 359.337 346.573C365.056 346.573 373.548 342.248 373.004 330.73C372.46 319.213 359.549 321.562 359.549 321.562Z" fill="#FFA8A7"/>
    <path d="M358.661 333.331V338.333L355.728 337.431L358.661 333.331Z" fill="#F28F8F"/>
    <path d="M362.933 334.194C362.933 334.396 362.873 334.594 362.76 334.762C362.647 334.931 362.486 335.062 362.299 335.139C362.112 335.216 361.905 335.235 361.707 335.195C361.508 335.154 361.326 335.055 361.184 334.911C361.042 334.767 360.945 334.584 360.908 334.385C360.87 334.186 360.892 333.98 360.971 333.793C361.051 333.607 361.184 333.448 361.353 333.338C361.523 333.227 361.722 333.169 361.924 333.172C362.193 333.175 362.45 333.285 362.638 333.476C362.827 333.667 362.933 333.925 362.933 334.194Z" fill="#263238"/>
    <path d="M356.232 333.477C356.232 333.679 356.173 333.877 356.06 334.045C355.948 334.213 355.788 334.344 355.602 334.421C355.415 334.498 355.21 334.518 355.011 334.479C354.813 334.44 354.631 334.342 354.488 334.199C354.345 334.057 354.248 333.875 354.209 333.676C354.169 333.478 354.19 333.273 354.267 333.086C354.344 332.899 354.475 332.74 354.643 332.627C354.811 332.515 355.009 332.455 355.211 332.455C355.482 332.455 355.742 332.563 355.933 332.755C356.125 332.946 356.232 333.206 356.232 333.477Z" fill="#263238"/>
    <path d="M353.964 331.367L355.994 330.173C355.994 330.173 355.224 329.377 354.455 329.855C354.228 330.027 354.06 330.264 353.972 330.534C353.885 330.804 353.882 331.095 353.964 331.367Z" fill="#263238"/>
    <path d="M362.455 331.009L364.247 332.482C364.247 332.482 364.737 331.487 364.021 330.929C363.785 330.775 363.507 330.699 363.225 330.713C362.944 330.728 362.674 330.831 362.455 331.009Z" fill="#263238"/>
    <path d="M359.125 340.655C359.125 340.655 362.76 339.727 361.871 339.926C361.871 339.926 362.057 341.372 360.85 341.65C360.491 341.71 360.123 341.644 359.809 341.462C359.494 341.281 359.252 340.996 359.125 340.655Z" fill="#F28F8F"/>
    <path d="M353.154 324.362C353.154 324.362 355.98 327.015 363.238 326.471C370.496 325.927 369.872 327.931 369.063 331.328C368.519 333.663 368.466 339.872 370.27 336.834H373.866V329.656C373.866 328.452 373.629 327.259 373.168 326.147C372.708 325.035 372.032 324.024 371.181 323.173C370.329 322.321 369.319 321.646 368.206 321.185C367.094 320.724 365.902 320.487 364.698 320.487H357.32L353.154 324.362Z" fill="#263238"/>
    <path d="M370.191 336.462C370.191 336.462 370.549 333.026 372.938 332.959C373.359 332.96 373.775 333.05 374.158 333.223C374.541 333.397 374.883 333.651 375.161 333.967C375.438 334.284 375.645 334.656 375.767 335.059C375.89 335.461 375.925 335.886 375.87 336.303C375.774 337.693 375.143 338.992 374.108 339.925C373.073 340.859 371.716 341.353 370.324 341.305L370.191 336.462Z" fill="#FFA8A7"/>
    <path d="M373.057 323.406C373.057 323.406 374.888 320.965 373.707 319.956C372.526 318.948 371.982 323.128 371.982 323.128L373.057 323.406Z" fill="#263238"/>
    <path d="M372.898 324.176C372.898 324.176 375.949 324.176 376.016 322.584C376.082 320.991 372.46 323.154 372.46 323.154L372.898 324.176Z" fill="#263238"/>
    <path d="M180.478 68.651L170.54 74.3034V70.7873C170.54 70.5351 170.54 70.283 170.54 70.0309C170.54 69.7788 170.54 69.5533 170.54 69.3277V69.2481C170.182 64.5776 166.652 62.7996 162.353 65.2676C160.403 66.4633 158.733 68.0653 157.457 69.9646C156.488 63.6355 151.314 61.3533 145.078 64.9624C138.138 68.9429 132.525 78.6953 132.525 86.7094V94.2327C132.526 94.8298 132.371 95.4167 132.075 95.9355C131.78 96.4544 131.354 96.8873 130.84 97.1916L125.002 100.615C123.734 101.358 122.682 102.42 121.951 103.696C121.22 104.971 120.836 106.416 120.836 107.886C120.835 108.495 120.995 109.093 121.3 109.62C121.604 110.148 122.042 110.585 122.569 110.89C123.097 111.194 123.695 111.353 124.304 111.352C124.913 111.352 125.511 111.19 126.037 110.885L180.345 79.5179C181.785 78.6836 182.98 77.4859 183.811 76.0445C184.643 74.6031 185.081 72.9686 185.082 71.3047C185.083 70.7658 184.941 70.2362 184.672 69.7694C184.402 69.3027 184.015 68.9152 183.548 68.6461C183.081 68.3769 182.551 68.2357 182.012 68.2366C181.473 68.2374 180.944 68.3804 180.478 68.651Z" fill="#E6E6E6"/>
    <path d="M231.575 4.84282L224.224 9.0224V6.3687C224.224 6.18294 224.224 5.99718 224.224 5.82469C224.224 5.6522 224.224 5.46644 224.224 5.29395C223.959 1.84414 221.345 0.517292 218.16 2.36161C216.713 3.24061 215.476 4.42746 214.538 5.83796C213.822 1.15418 210 -0.530922 205.383 2.13605C202.678 3.89555 200.426 6.2693 198.812 9.06389C197.198 11.8585 196.267 14.9949 196.095 18.2175V23.7902C196.094 24.23 195.978 24.6618 195.759 25.0434C195.541 25.4249 195.227 25.7429 194.848 25.9663L190.522 28.5005C189.592 29.0577 188.823 29.8473 188.29 30.7918C187.757 31.7363 187.479 32.8032 187.484 33.8876C187.483 34.3379 187.602 34.7804 187.827 35.1703C188.052 35.5603 188.376 35.8839 188.767 36.1087C189.157 36.3334 189.599 36.4512 190.05 36.4503C190.5 36.4494 190.942 36.3297 191.332 36.1034L231.456 12.9233C232.524 12.3093 233.412 11.4241 234.03 10.3571C234.647 9.2901 234.972 8.07909 234.972 6.84636C234.978 6.44579 234.878 6.05073 234.682 5.70134C234.486 5.35194 234.201 5.06067 233.856 4.85714C233.511 4.65361 233.118 4.54507 232.717 4.54255C232.317 4.54004 231.923 4.64364 231.575 4.84282Z" fill="#E6E6E6"/>
    <path d="M478.501 57.4524L488.44 63.1048V59.5887C488.44 59.3366 488.44 59.0845 488.44 58.8456C488.44 58.6068 488.44 58.3547 488.44 58.1291V58.0362C488.798 53.379 492.327 51.5878 496.639 54.0557C498.587 55.2568 500.252 56.8634 501.522 58.766C502.504 52.4369 507.666 50.1415 513.902 53.7505C520.841 57.7311 526.454 67.4834 526.454 75.4976V83.0341C526.453 83.6294 526.608 84.2146 526.904 84.7314C527.2 85.2482 527.625 85.6785 528.139 85.9797L533.99 89.403C535.255 90.1488 536.304 91.2119 537.032 92.4871C537.761 93.7623 538.144 95.2055 538.143 96.6741C538.142 97.2825 537.981 97.88 537.677 98.4068C537.373 98.9336 536.936 99.3713 536.409 99.6762C535.883 99.9811 535.285 100.142 534.677 100.144C534.068 100.146 533.47 99.9879 532.942 99.6861L478.634 68.3061C477.192 67.4749 475.994 66.2778 475.163 64.8357C474.331 63.3936 473.894 61.7576 473.897 60.0929C473.899 59.555 474.042 59.0272 474.313 58.5622C474.583 58.0973 474.971 57.7117 475.437 57.4441C475.904 57.1766 476.433 57.0365 476.971 57.038C477.508 57.0394 478.036 57.1823 478.501 57.4524Z" fill="#E6E6E6"/>
    </svg>
