<svg width="26" height="31" viewBox="0 0 26 31" fill="none" xmlns="http://www.w3.org/2000/svg">
<path d="M24.2715 12.724C24.2715 21.7224 12.7021 29.4353 12.7021 29.4353C12.7021 29.4353 1.13281 21.7224 1.13281 12.724C1.13281 9.65562 2.35172 6.71291 4.52139 4.54324C6.69106 2.37357 9.63377 1.15466 12.7021 1.15466C15.7705 1.15466 18.7132 2.37357 20.8829 4.54324C23.0526 6.71291 24.2715 9.65562 24.2715 12.724Z" stroke="#1D83FF" stroke-width="2" stroke-linecap="round" stroke-linejoin="round"/>
<path d="M12.7002 16.5804C14.8301 16.5804 16.5566 14.8539 16.5566 12.724C16.5566 10.5941 14.8301 8.86755 12.7002 8.86755C10.5703 8.86755 8.84375 10.5941 8.84375 12.724C8.84375 14.8539 10.5703 16.5804 12.7002 16.5804Z" stroke="#1D83FF" stroke-width="2" stroke-linecap="round" stroke-linejoin="round"/>
</svg>
