<svg width="28" height="27" viewBox="0 0 28 27" fill="none" xmlns="http://www.w3.org/2000/svg">
<path d="M16.8328 5.83329C17.9723 6.05562 19.0195 6.61293 19.8405 7.43388C20.6615 8.25484 21.2188 9.3021 21.4411 10.4416M16.8328 1.16663C19.2002 1.42963 21.4079 2.48983 23.0934 4.17313C24.7788 5.85644 25.8418 8.0628 26.1078 10.43M24.9411 19.74V23.24C24.9424 23.5649 24.8758 23.8865 24.7457 24.1842C24.6155 24.4819 24.4246 24.7491 24.1852 24.9688C23.9458 25.1885 23.6631 25.3557 23.3553 25.4598C23.0475 25.5639 22.7214 25.6025 22.3978 25.5733C18.8077 25.1832 15.3593 23.9565 12.3294 21.9916C9.51055 20.2004 7.12064 17.8105 5.32942 14.9916C3.35773 11.948 2.1307 8.48279 1.74775 4.87663C1.7186 4.554 1.75694 4.22885 1.86033 3.92185C1.96373 3.61486 2.12992 3.33276 2.34831 3.09352C2.56671 2.85427 2.83252 2.66312 3.12884 2.53223C3.42516 2.40135 3.74548 2.3336 4.06942 2.33329H7.56942C8.13561 2.32772 8.68451 2.52822 9.11381 2.89741C9.5431 3.26661 9.82351 3.77931 9.90275 4.33996C10.0505 5.46004 10.3244 6.55981 10.7194 7.61829C10.8764 8.03587 10.9104 8.48969 10.8173 8.92599C10.7243 9.36228 10.5081 9.76276 10.1944 10.08L8.71275 11.5616C10.3736 14.4824 12.7919 16.9008 15.7128 18.5616L17.1944 17.08C17.5116 16.7663 17.9121 16.5501 18.3484 16.4571C18.7847 16.364 19.2385 16.398 19.6561 16.555C20.7146 16.9499 21.8143 17.2239 22.9344 17.3716C23.5011 17.4516 24.0187 17.737 24.3887 18.1737C24.7587 18.6104 24.9553 19.1678 24.9411 19.74Z" stroke="#1D83FF" stroke-width="2" stroke-linecap="round" stroke-linejoin="round"/>
</svg>
