<svg height='300px' width='300px'  fill="#000000" xmlns="http://www.w3.org/2000/svg" viewBox="0 0 24 24" x="0px" y="0px"><title>_</title><path d="M8.5,13A3.5,3.5,0,1,0,5,9.5,3.5,3.5,0,0,0,8.5,13ZM12,15H5a3,3,0,0,0-3,3v2H15V18A3,3,0,0,0,12,15Zm9.98157-6.5c0-.0368-.00971-.071-.01087-.10754L23,8.211l-.17365-.98486-1.03564.18261A3.47587,3.47587,0,0,0,21.08258,6.178l.6745-.80383-.766-.64283-.67243.8014a3.46364,3.46364,0,0,0-1.33709-.48236V4h-1V5.05042a3.46369,3.46369,0,0,0-1.3371.48236l-.67242-.8014-.76606.64283.6745.80383a3.476,3.476,0,0,0-.70807,1.23077l-1.0357-.18267-.17365.98486,1.02936.18152c-.0011.03656-.01086.07068-.01086.10748a3.48,3.48,0,0,0,.25451,1.29639l-.90167.52057.5.866.91034-.52557a3.49235,3.49235,0,0,0,1.08759.9118l-.35974.98841.93969.342.35437-.97364a3.48817,3.48817,0,0,0,1.42975,0l.35437.97364.9397-.342-.35974-.98835a3.49261,3.49261,0,0,0,1.08758-.91186l.91034.52557.5-.866L21.727,9.79639A3.48,3.48,0,0,0,21.98157,8.5Zm-3.5,2.5a2.5,2.5,0,1,1,2.5-2.5A2.50286,2.50286,0,0,1,18.48157,11Zm0-4a1.5,1.5,0,1,0,1.5,1.5A1.5,1.5,0,0,0,18.48157,7Z"></path></svg>