<?xml version="1.0" standalone="no"?>
<!DOCTYPE svg PUBLIC "-//W3C//DTD SVG 20010904//EN"
 "http://www.w3.org/TR/2001/REC-SVG-20010904/DTD/svg10.dtd">
<svg version="1.0" xmlns="http://www.w3.org/2000/svg"
 width="512.000000pt" height="300.000000pt" viewBox="0 0 512.000000 300.000000"
 preserveAspectRatio="xMidYMid meet">

<g transform="translate(0.000000,300.000000) scale(0.100000,-0.100000)"
fill="#000000" stroke="none">
<path d="M365 2976 c-16 -8 -100 -85 -187 -172 -123 -126 -158 -167 -167 -199
-25 -92 -103 -7 1237 -1347 1081 -1081 1232 -1228 1270 -1239 95 -27 6 -108
1354 1239 1340 1340 1262 1255 1237 1347 -9 32 -43 73 -177 207 -142 142 -173
168 -205 174 -93 16 -36 68 -1145 -1039 l-1022 -1022 -1018 1017 c-716 717
-1028 1022 -1054 1033 -45 18 -83 19 -123 1z"/>
</g>
</svg>
