<svg width="30" height="37" viewBox="0 0 30 37" fill="none" xmlns="http://www.w3.org/2000/svg">
    <path d="M21 15.6119C21 13.3271 20.1571 11.1359 18.6569 9.52029C17.1566 7.9047 15.1217 6.99707 13 6.99707C10.8783 6.99707 8.84344 7.9047 7.34315 9.52029C5.84286 11.1359 5 13.3271 5 15.6119C5 25.6625 1 28.5341 1 28.5341H25C25 28.5341 21 25.6625 21 15.6119Z" stroke="#1D83FF" stroke-width="1.3" stroke-linecap="round" stroke-linejoin="round"/>
    <path d="M15.3068 34.2773C15.0723 34.7125 14.7359 35.0737 14.331 35.3248C13.9262 35.5759 13.4672 35.7081 13.0001 35.7081C12.5329 35.7081 12.0739 35.5759 11.6691 35.3248C11.2642 35.0737 10.9278 34.7125 10.6934 34.2773" stroke="#1D83FF" stroke-width="1.3" stroke-linecap="round" stroke-linejoin="round"/>
    <circle cx="22.0193" cy="7" r="7" fill="#1D83FF"/>
</svg>
