<svg width="18" height="18" viewBox="0 0 18 18" fill="none" xmlns="http://www.w3.org/2000/svg">
    <path d="M10.5123 15.9454C10.3809 16.1719 10.1924 16.3599 9.96549 16.4906C9.7386 16.6213 9.48137 16.6901 9.21954 16.6901C8.95771 16.6901 8.70048 16.6213 8.47359 16.4906C8.24671 16.3599 8.05814 16.1719 7.92676 15.9454" stroke="#3A7AF8" stroke-linecap="round" stroke-linejoin="round"/>
    <path d="M14.1746 9.96726C13.8422 8.75026 13.6837 7.49233 13.7039 6.2309" stroke="#3A7AF8" stroke-linecap="round" stroke-linejoin="round"/>
    <path d="M4.93025 4.93066C4.80042 5.35184 4.73492 5.79019 4.73596 6.23092C4.73596 11.4618 2.49414 12.9564 2.49414 12.9564H12.956" stroke="#3A7AF8" stroke-linecap="round" stroke-linejoin="round"/>
    <path d="M13.7035 6.23089C13.7047 5.41865 13.4852 4.62134 13.0686 3.92413C12.6519 3.22691 12.0536 2.65598 11.3377 2.27232C10.6218 1.88865 9.81512 1.70667 9.00383 1.74581C8.19253 1.78495 7.40711 2.04373 6.73145 2.49453" stroke="#3A7AF8" stroke-linecap="round" stroke-linejoin="round"/>
    <path d="M1 1L17.44 17.44" stroke="#3A7AF8" stroke-linecap="round" stroke-linejoin="round"/>
</svg>
