<svg width="50" height="50" viewBox="0 0 50 50" fill="none" xmlns="http://www.w3.org/2000/svg">
    <circle cx="25" cy="25" r="25" fill="#1D83FF"/>
    <path d="M34 28.9979V20.9979C33.9996 20.6472 33.9071 20.3028 33.7315 19.9991C33.556 19.6955 33.3037 19.4433 33 19.2679L26 15.2679C25.696 15.0924 25.3511 15 25 15C24.6489 15 24.304 15.0924 24 15.2679L17 19.2679C16.6963 19.4433 16.444 19.6955 16.2685 19.9991C16.0929 20.3028 16.0004 20.6472 16 20.9979V28.9979C16.0004 29.3487 16.0929 29.6931 16.2685 29.9968C16.444 30.3004 16.6963 30.5526 17 30.7279L24 34.7279C24.304 34.9035 24.6489 34.9959 25 34.9959C25.3511 34.9959 25.696 34.9035 26 34.7279L33 30.7279C33.3037 30.5526 33.556 30.3004 33.7315 29.9968C33.9071 29.6931 33.9996 29.3487 34 28.9979Z" stroke="white" stroke-width="2" stroke-linecap="round" stroke-linejoin="round"/>
    <path d="M16.27 19.958L25 25.008L33.73 19.958" stroke="white" stroke-width="2" stroke-linecap="round" stroke-linejoin="round"/>
    <path d="M25 35.078V24.998" stroke="white" stroke-width="2" stroke-linecap="round" stroke-linejoin="round"/>
</svg>
