<svg width="16" height="18" viewBox="0 0 16 18" fill="none" xmlns="http://www.w3.org/2000/svg">
    <path d="M0.949707 4.14258H2.53787H15.2432" stroke="#E84C4C" stroke-linecap="round" stroke-linejoin="round"/>
    <path d="M4.91984 4.14235V2.57118C4.91984 2.15448 5.08717 1.75484 5.38501 1.46019C5.68284 1.16553 6.0868 1 6.50801 1H9.68433C10.1055 1 10.5095 1.16553 10.8073 1.46019C11.1052 1.75484 11.2725 2.15448 11.2725 2.57118V4.14235M13.6547 4.14235V15.1406C13.6547 15.5573 13.4874 15.9569 13.1896 16.2516C12.8917 16.5462 12.4878 16.7118 12.0666 16.7118H4.12576C3.70455 16.7118 3.3006 16.5462 3.00276 16.2516C2.70492 15.9569 2.5376 15.5573 2.5376 15.1406V4.14235H13.6547Z" stroke="#E84C4C" stroke-linecap="round" stroke-linejoin="round"/>
    <path d="M6.50781 8.07031V12.7838" stroke="#E84C4C" stroke-linecap="round" stroke-linejoin="round"/>
    <path d="M9.68433 8.07031V12.7838" stroke="#E84C4C" stroke-linecap="round" stroke-linejoin="round"/>
</svg>
