<svg width="18" height="17" viewBox="0 0 18 17" fill="none" xmlns="http://www.w3.org/2000/svg">
    <path d="M12.9588 1.6267C13.173 1.42801 13.4274 1.2704 13.7073 1.16287C13.9872 1.05534 14.2871 1 14.5901 1C14.8931 1 15.1931 1.05534 15.4729 1.16287C15.7528 1.2704 16.0072 1.42801 16.2214 1.6267C16.4356 1.82538 16.6055 2.06126 16.7215 2.32086C16.8374 2.58045 16.8971 2.85869 16.8971 3.13968C16.8971 3.42066 16.8374 3.6989 16.7215 3.95849C16.6055 4.21809 16.4356 4.45397 16.2214 4.65266L5.21017 14.8653L0.724121 16L1.94759 11.8393L12.9588 1.6267Z" stroke="#1D83FF" stroke-linecap="round" stroke-linejoin="round"/>
</svg>
