<svg width="76" height="74" viewBox="0 0 76 74" fill="none" xmlns="http://www.w3.org/2000/svg">
    <path d="M0 9.81348C0 8.70891 0.89543 7.81348 2 7.81348H4.69768C5.80224 7.81348 6.69767 8.70891 6.69767 9.81348V73.6739H0V9.81348Z" fill="#1D83FF"/>
    <path d="M13.6977 38.8369C13.6977 37.7323 14.5931 36.8369 15.6977 36.8369H18.3954C19.4999 36.8369 20.3954 37.7323 20.3954 38.8369V73.6741H13.6977V38.8369Z" fill="#1D83FF"/>
    <path d="M27.3954 2C27.3954 0.895434 28.2908 0 29.3954 0H32.093C33.1976 0 34.093 0.895431 34.093 2V73.6744H27.3954V2Z" fill="#1D83FF"/>
    <path d="M41.093 15.3955C41.093 14.2909 41.9885 13.3955 43.093 13.3955H45.7907C46.8953 13.3955 47.7907 14.2909 47.7907 15.3955V73.6746H41.093V15.3955Z" fill="#1D83FF"/>
    <path d="M54.7907 25.4414C54.7907 24.3368 55.6861 23.4414 56.7907 23.4414H59.4884C60.593 23.4414 61.4884 24.3368 61.4884 25.4414V73.674H54.7907V25.4414Z" fill="#1D83FF"/>
    <path d="M68.4884 20.9766C68.4884 19.872 69.3838 18.9766 70.4884 18.9766H73.1861C74.2906 18.9766 75.1861 19.872 75.1861 20.9766V73.6742H68.4884V20.9766Z" fill="#1D83FF"/>
</svg>
