<svg width="20" height="18" viewBox="0 0 20 18" fill="none" xmlns="http://www.w3.org/2000/svg">
    <path d="M11.7345 10.5418C11.5098 10.7561 11.2388 10.9281 10.9378 11.0473C10.6367 11.1666 10.3116 11.2307 9.98207 11.2359C9.6525 11.241 9.32513 11.1871 9.0195 11.0774C8.71387 10.9677 8.43623 10.8043 8.20315 10.5972C7.97007 10.39 7.78632 10.1432 7.66287 9.87152C7.53942 9.59984 7.47879 9.30885 7.48461 9.0159C7.49042 8.72294 7.56256 8.43403 7.69672 8.1664C7.83087 7.89876 8.0243 7.65789 8.26545 7.45814M14.86 13.32C13.4614 14.2676 11.7584 14.7926 10 14.8181C4.27273 14.8181 1 8.99996 1 8.99996C2.01773 7.31407 3.42929 5.84113 5.14 4.67996L14.86 13.32ZM8.28182 3.35633C8.845 3.23915 9.4216 3.18057 10 3.18178C15.7273 3.18178 19 8.99996 19 8.99996C18.5033 9.82586 17.911 10.6034 17.2327 11.32L8.28182 3.35633Z" stroke="#999999" stroke-width="1.3" stroke-linecap="round" stroke-linejoin="round"/>
    <path d="M1 1L19 17" stroke="#999999" stroke-width="1.3" stroke-linecap="round" stroke-linejoin="round"/>
</svg>
