<svg width="26" height="31" viewBox="0 0 26 31" fill="none" xmlns="http://www.w3.org/2000/svg">
    <path d="M25 12.7236C25 21.722 13.4307 29.4349 13.4307 29.4349C13.4307 29.4349 1.86133 21.722 1.86133 12.7236C1.86133 9.65525 3.08024 6.71255 5.24991 4.54288C7.41958 2.37321 10.3623 1.1543 13.4307 1.1543C16.499 1.1543 19.4417 2.37321 21.6114 4.54288C23.7811 6.71255 25 9.65525 25 12.7236Z" stroke="#1D83FF" stroke-width="2" stroke-linecap="round" stroke-linejoin="round"/>
    <path d="M13.4307 16.5801C15.5605 16.5801 17.2871 14.8535 17.2871 12.7236C17.2871 10.5938 15.5605 8.86719 13.4307 8.86719C11.3008 8.86719 9.57422 10.5938 9.57422 12.7236C9.57422 14.8535 11.3008 16.5801 13.4307 16.5801Z" stroke="#1D83FF" stroke-width="2" stroke-linecap="round" stroke-linejoin="round"/>
</svg>
