<svg width="18" height="20" viewBox="0 0 18 20" fill="none" xmlns="http://www.w3.org/2000/svg">
    <path d="M14.7 6.48C14.7 5.02661 14.1226 3.63275 13.0949 2.60505C12.0672 1.57736 10.6734 1 9.22 1C7.76661 1 6.37275 1.57736 5.34506 2.60505C4.31736 3.63275 3.74 5.02661 3.74 6.48C3.74 12.8733 1 14.7 1 14.7H17.44C17.44 14.7 14.7 12.8733 14.7 6.48Z" stroke="#3A7AF8" stroke-linecap="round" stroke-linejoin="round"/>
    <path d="M10.8001 18.3535C10.6395 18.6303 10.409 18.8601 10.1317 19.0198C9.85443 19.1795 9.54003 19.2636 9.22002 19.2636C8.90001 19.2636 8.58561 19.1795 8.30831 19.0198C8.031 18.8601 7.80053 18.6303 7.63995 18.3535" stroke="#3A7AF8" stroke-linecap="round" stroke-linejoin="round"/>
</svg>