<svg width="18" height="18" viewBox="0 0 18 18" fill="none" xmlns="http://www.w3.org/2000/svg">
    <path d="M10.5128 15.9453C10.3814 16.1718 10.1929 16.3598 9.96597 16.4905C9.73909 16.6212 9.48186 16.6899 9.22003 16.6899C8.9582 16.6899 8.70096 16.6212 8.47408 16.4905C8.2472 16.3598 8.05862 16.1718 7.92725 15.9453" stroke="#3A7AF8" stroke-linecap="round" stroke-linejoin="round"/>
    <path d="M14.1745 9.96683C13.842 8.74983 13.6835 7.4919 13.7037 6.23047" stroke="#3A7AF8" stroke-linecap="round" stroke-linejoin="round"/>
    <path d="M4.93068 4.93066C4.80085 5.35184 4.73535 5.79019 4.73639 6.23092C4.73639 11.4618 2.49457 12.9564 2.49457 12.9564H12.9564" stroke="#3A7AF8" stroke-linecap="round" stroke-linejoin="round"/>
    <path d="M13.7036 6.23052C13.7048 5.41829 13.4854 4.62098 13.0687 3.92376C12.652 3.22655 12.0538 2.65561 11.3378 2.27195C10.6219 1.88829 9.81524 1.70631 9.00395 1.74544C8.19265 1.78458 7.40723 2.04337 6.73157 2.49416" stroke="#3A7AF8" stroke-linecap="round" stroke-linejoin="round"/>
    <path d="M1 1L17.44 17.44" stroke="#3A7AF8" stroke-linecap="round" stroke-linejoin="round"/>
</svg>