<svg width="28" height="28" viewBox="0 0 28 28" fill="none" xmlns="http://www.w3.org/2000/svg">
    <path d="M17.5583 5.83366C18.6979 6.05598 19.7451 6.61329 20.5661 7.43425C21.387 8.25521 21.9443 9.30247 22.1667 10.442M17.5583 1.16699C19.9258 1.43 22.1335 2.4902 23.819 4.1735C25.5044 5.85681 26.5673 8.06317 26.8333 10.4303M25.6667 19.7403V23.2403C25.668 23.5652 25.6014 23.8869 25.4713 24.1846C25.3411 24.4823 25.1502 24.7495 24.9108 24.9692C24.6713 25.1888 24.3887 25.3561 24.0809 25.4601C23.7731 25.5642 23.4469 25.6029 23.1233 25.5737C19.5333 25.1836 16.0848 23.9568 13.055 21.992C10.2361 20.2008 7.84623 17.8109 6.055 14.992C4.08331 11.9484 2.85629 8.48315 2.47334 4.87699C2.44418 4.55437 2.48252 4.22921 2.58592 3.92222C2.68932 3.61523 2.8555 3.33313 3.0739 3.09388C3.29229 2.85464 3.55811 2.66349 3.85443 2.5326C4.15074 2.40172 4.47107 2.33396 4.795 2.33366H8.295C8.86119 2.32809 9.41009 2.52858 9.83939 2.89778C10.2687 3.26698 10.5491 3.77968 10.6283 4.34033C10.7761 5.4604 11.05 6.56017 11.445 7.61866C11.602 8.03624 11.6359 8.49006 11.5429 8.92635C11.4498 9.36265 11.2337 9.76312 10.92 10.0803L9.43834 11.562C11.0992 14.4828 13.5175 16.9012 16.4383 18.562L17.92 17.0803C18.2372 16.7667 18.6377 16.5505 19.074 16.4574C19.5103 16.3644 19.9641 16.3984 20.3817 16.5553C21.4402 16.9503 22.5399 17.2243 23.66 17.372C24.2267 17.4519 24.7443 17.7374 25.1143 18.1741C25.4843 18.6107 25.6809 19.1682 25.6667 19.7403Z" stroke="#1D83FF" stroke-width="2" stroke-linecap="round" stroke-linejoin="round"/>
</svg>
