<svg width="27" height="26" viewBox="0 0 27 26" fill="none" xmlns="http://www.w3.org/2000/svg">
    <circle cx="13.0039" cy="13" r="13" fill="#3A7AF8"/>
    <path d="M19.0035 15.2356V16.8916C19.0042 17.0453 18.9698 17.1974 18.9025 17.3383C18.8352 17.4792 18.7364 17.6056 18.6126 17.7095C18.4888 17.8134 18.3426 17.8926 18.1834 17.9418C18.0242 17.9911 17.8556 18.0094 17.6882 17.9955C15.8316 17.811 14.0482 17.2306 12.4812 16.3009C11.0234 15.4535 9.78746 14.3227 8.86111 12.9891C7.84142 11.549 7.20685 9.90954 7.0088 8.20337C6.99373 8.05073 7.01355 7.89689 7.06703 7.75164C7.1205 7.6064 7.20645 7.47293 7.31939 7.35974C7.43234 7.24654 7.56981 7.1561 7.72305 7.09418C7.8763 7.03225 8.04196 7.0002 8.20948 7.00005H10.0196C10.3124 6.99742 10.5962 7.09228 10.8183 7.26695C11.0403 7.44163 11.1853 7.6842 11.2263 7.94946C11.3027 8.4794 11.4443 8.99973 11.6486 9.50053C11.7298 9.6981 11.7474 9.91281 11.6992 10.1192C11.6511 10.3257 11.5393 10.5151 11.3771 10.6652L10.6108 11.3662C11.4698 12.7481 12.7205 13.8923 14.231 14.6781L14.9972 13.9771C15.1613 13.8287 15.3684 13.7264 15.594 13.6824C15.8197 13.6384 16.0544 13.6544 16.2703 13.7287C16.8177 13.9156 17.3865 14.0452 17.9658 14.1151C18.2589 14.1529 18.5265 14.288 18.7179 14.4946C18.9092 14.7012 19.0109 14.9649 19.0035 15.2356Z" stroke="white" stroke-linecap="round" stroke-linejoin="round"/>
</svg>
