<svg width="44" height="36" viewBox="0 0 44 36" fill="none" xmlns="http://www.w3.org/2000/svg">
    <path d="M0 23.8938C0 31.6991 4.58993 36 9.81295 36C14.5612 36 18.2014 32.177 18.2014 27.5575C18.2014 22.7788 15.036 19.4336 10.6043 19.4336C9.81295 19.4336 8.70504 19.5929 8.54676 19.5929C9.02158 14.4956 13.6115 8.12389 18.6763 4.77876L12.8201 0C5.53957 5.25664 0 14.177 0 23.8938ZM25.3237 23.8938C25.3237 31.6991 29.9137 36 35.1367 36C39.8849 36 43.6835 32.177 43.6835 27.5575C43.6835 22.7788 40.3597 19.4336 35.9281 19.4336C35.1367 19.4336 34.0288 19.5929 33.8705 19.5929C34.5036 14.4956 38.9353 8.12389 44 4.77876L38.1439 0C30.8633 5.25664 25.3237 14.177 25.3237 23.8938Z" fill="#1D83FF"/>
</svg>
