<?xml version="1.0" standalone="no"?>
<!DOCTYPE svg PUBLIC "-//W3C//DTD SVG 20010904//EN"
 "http://www.w3.org/TR/2001/REC-SVG-20010904/DTD/svg10.dtd">
<svg version="1.0" xmlns="http://www.w3.org/2000/svg"
 width="20" height="20" viewBox="0 0 626.000000 626.000000"
 preserveAspectRatio="xMidYMid meet">

<g transform="translate(0.000000,626.000000) scale(0.100000,-0.100000)"
fill="#999999" stroke="none">
<path d="M3005 5013 c-490 -25 -989 -195 -1518 -516 -260 -158 -506 -342 -797
-596 -187 -163 -586 -580 -668 -698 -43 -62 -32 -89 121 -282 130 -164 142
-178 287 -336 142 -154 180 -192 360 -356 536 -489 1135 -815 1710 -933 182
-37 302 -49 510 -49 394 -2 749 67 1190 227 123 45 465 216 617 309 250 152
390 254 648 471 325 273 795 800 795 890 0 37 -67 136 -209 306 -136 164 -148
177 -326 356 -194 194 -370 349 -540 474 -619 454 -1214 687 -1870 730 -145 9
-181 10 -310 3z m525 -232 c547 -85 1112 -343 1600 -728 30 -24 70 -56 89 -71
218 -171 576 -536 758 -772 l50 -66 -71 -86 c-231 -280 -495 -543 -761 -754
-89 -71 -130 -102 -240 -181 -44 -31 -312 -203 -318 -203 -2 0 -42 -22 -88
-48 -237 -136 -570 -265 -894 -346 -283 -70 -704 -93 -970 -53 -654 100 -1322
475 -1940 1092 -89 88 -179 180 -201 205 -85 95 -223 259 -264 313 l-42 57 48
58 c69 80 268 285 404 415 682 650 1463 1084 2110 1171 63 9 129 18 145 20 82
12 456 -3 585 -23z"/>
<path d="M3030 4419 c-371 -29 -688 -200 -922 -495 -177 -225 -270 -496 -270
-794 0 -411 174 -765 502 -1025 453 -358 1130 -357 1584 3 261 208 427 485
481 802 21 122 21 318 0 440 -81 476 -426 869 -895 1019 -131 41 -330 62 -480
50z m266 -213 c251 -45 442 -144 611 -319 135 -141 217 -278 267 -451 113
-389 7 -797 -282 -1078 -379 -369 -930 -422 -1367 -131 -94 63 -237 203 -289
283 -16 25 -38 57 -48 73 -26 37 -81 169 -102 241 -75 255 -55 518 55 762 99
218 315 434 534 533 195 89 427 121 621 87z"/>
<path d="M2982 3839 c-185 -36 -386 -180 -476 -342 -67 -120 -89 -197 -94
-337 -5 -155 10 -228 75 -359 82 -166 226 -290 414 -358 61 -21 96 -27 199
-31 155 -5 228 10 360 75 78 39 110 62 180 133 71 70 94 102 133 180 65 132
80 205 75 360 -4 103 -10 138 -31 199 -43 118 -93 197 -181 285 -66 67 -99 91
-176 129 -52 25 -124 53 -160 62 -70 16 -246 19 -318 4z"/>
</g>
</svg>
