<?xml version="1.0" encoding="utf-8"?>
<!-- Svg Vector Icons : http://www.onlinewebfonts.com/icon -->
<!DOCTYPE svg PUBLIC "-//W3C//DTD SVG 1.1//EN" "http://www.w3.org/Graphics/SVG/1.1/DTD/svg11.dtd">
<svg version="1.1" xmlns="http://www.w3.org/2000/svg" xmlns:xlink="http://www.w3.org/1999/xlink" x="0px" y="0px" viewBox="0 0 1000 1000" enable-background="new 0 0 1000 1000" xml:space="preserve">
<metadata> Svg Vector Icons : http://www.onlinewebfonts.com/icon </metadata>
<g><path d="M933.1,499.5c85.1-121.6,73.5-290.3-35-398.9c-121.8-121.7-319.2-121.7-441,0c-80.5,80.5-107.4,194-81.5,296.9l-98.3,98.3v33.7v44.6h-89.1v89.1l-89-0.1v89.1l-89.1,0v44.5l0,175.4v0.1v0.8h252l143.4-143.4c53.1,95.9,155.3,160.9,272.8,160.9C850.4,990.6,990,851,990,678.8C990,612,968.8,550.3,933.1,499.5z M243,930.4l-87.8,0l213.6-213.6c3,24.5,8.9,48,17.2,70.5L243,930.4z M366.4,678.8c0,2.9,0.4,5.7,0.4,8.6L123.7,930.4l-69.2,0l0-133.7l89.1,0v-89.1h89.1v-89h89.1V514.2l104.4-104.4c-0.3-0.9-0.9-2.1-1.5-3.3c-31.4-93.2-10.4-200.1,63.9-274.4c104.4-104.4,273.6-104.4,378,0c89.8,89.8,100.2,226.6,35.4,329.7c-38.4-39.6-87.3-68.9-142.2-83.8c29.3-39,26.6-94.7-8.9-130.2c-38.9-38.9-102.2-38.9-141.1,0c-35.2,35.2-38.2,90.3-9.7,129.3C465.7,412,366.4,533.6,366.4,678.8z M732.7,370.9c-0.4,0.4-0.9,0.6-1.2,0.9c-17.4-3-35.1-4.9-53.3-4.9c-17,0-33.6,1.7-49.9,4.4c-0.1-0.1-0.4-0.2-0.5-0.4c-29-29-29-76,0-104.9c29-28.9,76-28.9,105,0C761.7,295,761.7,341.9,732.7,370.9z M678.2,946.1c-147.6,0-267.3-119.6-267.3-267.3s119.7-267.3,267.3-267.3c147.6,0,267.3,119.6,267.3,267.3S825.8,946.1,678.2,946.1z" /><path d="M867.7,556.3l-252,252l-126-126l-31.5,31.5l157.5,157.5l0,0l283.4-283.4L867.7,556.3z" stroke="#716C80"/></g>
</svg>