<svg width="14" height="12" viewBox="0 0 14 12" fill="none" xmlns="http://www.w3.org/2000/svg">
    <path d="M11.8 3.33325H2.2C1.53726 3.33325 1 3.85559 1 4.49992V10.3333C1 10.9776 1.53726 11.4999 2.2 11.4999H11.8C12.4627 11.4999 13 10.9776 13 10.3333V4.49992C13 3.85559 12.4627 3.33325 11.8 3.33325Z" fill="#2E2E2E" stroke="white" stroke-linecap="round" stroke-linejoin="round"/>
    <path d="M9.4001 11.5V2.16667C9.4001 1.85725 9.27367 1.5605 9.04863 1.34171C8.82358 1.12292 8.51836 1 8.2001 1H5.8001C5.48184 1 5.17661 1.12292 4.95157 1.34171C4.72653 1.5605 4.6001 1.85725 4.6001 2.16667V11.5" fill="#2E2E2E"/>
    <path d="M9.4001 11.5V2.16667C9.4001 1.85725 9.27367 1.5605 9.04863 1.34171C8.82358 1.12292 8.51836 1 8.2001 1H5.8001C5.48184 1 5.17661 1.12292 4.95157 1.34171C4.72653 1.5605 4.6001 1.85725 4.6001 2.16667V11.5" stroke="white" stroke-linecap="round" stroke-linejoin="round"/>
</svg>
