<svg width="64" height="64" viewBox="0 0 64 64" fill="none" xmlns="http://www.w3.org/2000/svg">
    <mask id="mask0" mask-type="alpha" maskUnits="userSpaceOnUse" x="0" y="0" width="64" height="64">
    <circle cx="32" cy="32" r="31.5" fill="#C4C4C4" stroke="black"/>
    </mask>
    <g mask="url(#mask0)">
    <path d="M16.4059 31.6801C16.0785 31.0294 15.7615 30.3703 15.457 29.7092C14.8605 28.4161 14.3016 27.0918 14.0513 25.6902C13.24 21.1687 15.5779 16.2383 18.9337 13.3393C23.7097 9.21608 30.4754 7.65814 35.7374 4C35.4457 5.79819 34.4846 7.41946 33.0469 8.53826C35.51 6.64037 42.8492 9.76668 45.1434 10.9388C48.9473 12.854 52.1799 15.737 54.5161 19.2979C52.0394 18.2911 49.3434 17.9461 46.693 18.2968C48.7536 20.2927 50.8976 22.4221 51.6776 25.1793C47.9798 22.5139 42.0755 23.7965 39.823 27.7696C38.3777 30.314 38.3986 33.4132 37.5289 36.21C36.6112 39.1716 34.1356 41.0528 31.2241 41.8411C29.0301 42.4418 24.7129 42.7129 22.7253 41.424C22.1226 41.034 21.6825 40.4375 21.2779 39.8494C19.461 37.2461 17.8328 34.516 16.4059 31.6801Z" fill="#00214E"/>
    <path d="M18.7067 36.053C20.6648 36.053 22.2522 34.4656 22.2522 32.5074C22.2522 30.5493 20.6648 28.9619 18.7067 28.9619C16.7485 28.9619 15.1611 30.5493 15.1611 32.5074C15.1611 34.4656 16.7485 36.053 18.7067 36.053Z" fill="#845161"/>
    <path d="M19.9288 35.6358C21.7717 35.6358 23.2657 34.1418 23.2657 32.2989C23.2657 30.4559 21.7717 28.9619 19.9288 28.9619C18.0858 28.9619 16.5918 30.4559 16.5918 32.2989C16.5918 34.1418 18.0858 35.6358 19.9288 35.6358Z" fill="#69303A"/>
    <path d="M52.4075 58.209C45.6302 63.4273 37.3079 66.2396 28.7544 66.2019C20.201 66.1641 11.9038 63.2784 5.17285 58.0004L15.3214 53.2432C15.8047 53.016 16.2686 52.7495 16.7083 52.4465C16.8418 52.3547 16.9753 52.2588 17.1025 52.1587C18.207 51.3136 19.1161 50.2401 19.7679 49.0115C20.6021 47.4369 20.8774 45.6975 20.8899 43.9247C20.8899 43.3387 20.8774 42.7505 20.8607 42.1624C20.844 41.5743 20.819 40.9507 20.8128 40.3438C20.8044 39.6833 20.7975 39.0222 20.7919 38.3604L21.209 38.5689L22.2935 39.1299L22.7962 39.2154L28.6108 40.204L35.1012 41.3094L35.2973 47.9833L35.3786 50.7551L35.3932 51.2243V51.2932L37.9168 52.3193L52.4075 58.209Z" fill="#845161"/>
    <path d="M35.3745 50.7403L35.0533 50.7737C33.5025 50.9096 31.9407 50.7068 30.4761 50.1792C29.0115 49.6516 27.6791 48.8119 26.5712 47.7183L20.8608 40.7649C20.842 40.16 20.8191 40.938 20.8128 40.3311C20.8045 39.6706 20.7976 39.0095 20.792 38.3477L21.2091 38.5562L22.2936 39.1172L22.7963 39.2028L28.6109 40.1913L35.1013 41.2967L35.2973 47.9706L35.3745 50.7403Z" fill="#69303A"/>
    <path d="M20.5124 25.8954C19.8619 26.4706 19.4437 27.2633 19.3361 28.1249C18.9002 32.1981 20.4081 37.0054 20.8273 41.0848L28.423 46.6868C29.6701 47.6183 31.1049 48.2676 32.6279 48.5896C34.1508 48.9115 35.7256 48.8985 37.243 48.5513C38.4673 48.2614 39.2431 48.0737 39.7958 47.0914C40.8636 45.2143 43.4852 38.7928 43.6563 34.2628C43.7042 32.976 43.6729 31.0156 42.8804 29.9206C42.4946 29.3888 42.2965 29.3763 42.4362 28.6255C42.5801 27.8413 42.7866 27.0654 42.9597 26.2875C43.2111 25.1623 43.2815 24.0041 43.1682 22.8567C43.0535 21.8139 43.0577 20.8879 42.9472 19.8263C42.8929 19.3112 42.6635 17.0566 42.6635 17.0566C41.3392 19.0505 38.9491 20.0974 36.7383 20.7857C33.7309 21.72 30.6004 22.1768 27.5513 22.961C25.5303 23.4886 22.2622 24.2394 20.5124 25.8954Z" fill="#845161"/>
    <path d="M29.5238 29.0381C30.796 29.0485 30.796 30.9944 29.5238 31.0048H29.4674C28.1931 30.9944 28.1931 29.0485 29.4674 29.0381H29.5238Z" fill="#00214E"/>
    <path d="M40.5136 28.4434C41.6962 28.4434 41.6962 30.2578 40.5136 30.2683H40.4615C39.2811 30.2578 39.2811 28.4517 40.4615 28.4434H40.5136Z" fill="#00214E"/>
    <path d="M30.4561 38.4121C31.4579 39.5315 32.8318 40.2495 34.3228 40.4331" stroke="#00214E" stroke-miterlimit="10"/>
    <path d="M26.5625 26.7036C28.4931 26.3032 30.4791 26.2467 32.4293 26.5367" stroke="#00214E" stroke-miterlimit="10"/>
    <path d="M38.8779 26.7159C40.0702 26.4404 41.2985 26.3552 42.5173 26.4635" stroke="#00214E" stroke-miterlimit="10"/>
    <path d="M52.4075 58.2095C45.6302 63.4278 37.3079 66.2401 28.7544 66.2024C20.201 66.1646 11.9038 63.2789 5.17285 58.0009L15.3214 53.2437C15.8047 53.0165 16.2686 52.75 16.7083 52.447C16.8418 52.3552 16.9753 52.2593 17.1025 52.1592C22.0141 55.6546 28.7172 57.8591 34.5152 55.25C35.8958 54.6244 37.1639 53.6149 37.9147 52.3177L52.4075 58.2095Z" fill="#FF2609"/>
    <path d="M33.0276 34.9023C32.877 34.9795 32.7588 35.1079 32.6946 35.2645C32.6304 35.4211 32.6243 35.5955 32.6775 35.7562C32.7306 35.9169 32.8395 36.0533 32.9844 36.1407C33.1293 36.2282 33.3007 36.2609 33.4677 36.233" stroke="#00214E" stroke-miterlimit="10"/>
    <path d="M36.2422 28.8457C36.7615 30.8375 37.1932 32.8083 37.6875 34.8043C37.7455 34.9874 37.7667 35.1802 37.7501 35.3715C37.6604 35.9451 36.9784 36.1808 36.4111 36.3038" stroke="#00214E" stroke-miterlimit="10"/>
    </g>
    <circle cx="32" cy="32" r="31.25" stroke="#9B9B9B" stroke-opacity="0.5" stroke-width="0.5"/>
</svg>
