<svg width="66" height="66" viewBox="0 0 66 66" fill="none" xmlns="http://www.w3.org/2000/svg">
    <mask id="mask0" mask-type="alpha" maskUnits="userSpaceOnUse" x="0" y="0" width="66" height="66">
    <circle cx="33" cy="33" r="32.5" fill="#C4C4C4" stroke="black"/>
    </mask>
    <g mask="url(#mask0)">
    <path d="M6 48.206C6 48.206 10.4882 23.3413 12.4323 18.5743C15.4607 11.1263 22.682 6.68529 30.6025 6.05457C36.3923 5.5963 41.8561 8.03411 44.8348 12.9924C48.638 19.3255 52.2215 48.2414 52.2215 48.2414L6 48.206Z" fill="url(#paint0_linear)"/>
    <path d="M59.7212 61.9158C52.045 67.8262 42.6188 71.0115 32.9309 70.9688C23.243 70.926 13.8454 67.6576 6.22168 61.6796L17.7162 56.2913C18.0681 56.125 18.4111 55.9405 18.7438 55.7386L19.0084 55.5732C19.1028 55.5142 19.195 55.4528 19.2871 55.389C20.7373 54.3885 21.9258 53.0542 22.7525 51.4984C23.6974 49.7149 24.0092 47.7448 24.0233 45.737C24.0233 44.3858 23.9501 43.0346 23.9359 41.681C23.9265 40.933 23.9186 40.1842 23.9123 39.4346L24.3848 39.6708L25.6131 40.3062L32.7635 41.5157L40.1148 42.7677L40.2801 48.3897L40.3368 50.3197L40.4478 54.0685L43.1573 55.1717L45.2833 56.0315L59.7212 61.9158Z" fill="#E18477"/>
    <path d="M40.2806 48.3996C39.6499 48.7846 39.0546 48.9642 38.5326 48.9075C35.0389 48.5319 28.2239 45.7941 23.9341 40.7271C23.9341 40.4799 23.9294 40.2318 23.9199 39.983C23.9199 39.7988 23.9199 39.6169 23.9199 39.4326L24.3924 39.6688L25.6207 40.3043L32.7641 41.5161L40.1153 42.7681L40.2806 48.3996Z" fill="#A76962"/>
    <path d="M59.7241 61.9162C52.0479 67.8267 42.6218 71.012 32.9339 70.9692C23.246 70.9264 13.8483 67.658 6.22461 61.68L17.7192 56.2918C18.071 56.1254 18.414 55.9409 18.7467 55.739C24.3405 59.8517 32.1263 62.5304 38.8397 59.5186C40.7437 58.6635 42.461 57.1446 43.1602 55.1934L45.2862 56.0532L59.7241 61.9162Z" fill="#F2D4CF"/>
    <path d="M17.6124 35.5872C19.8303 35.5872 21.6282 33.7893 21.6282 31.5714C21.6282 29.3536 19.8303 27.5557 17.6124 27.5557C15.3946 27.5557 13.5967 29.3536 13.5967 31.5714C13.5967 33.7893 15.3946 35.5872 17.6124 35.5872Z" fill="#E18477"/>
    <path d="M19.0304 35.1145C21.2483 35.1145 23.0462 33.3166 23.0462 31.0988C23.0462 28.8809 21.2483 27.083 19.0304 27.083C16.8126 27.083 15.0146 28.8809 15.0146 31.0988C15.0146 33.3166 16.8126 35.1145 19.0304 35.1145Z" fill="#A76962"/>
    <path d="M44.9035 25.4902C47.6791 35.0997 41.7972 46.7124 38.1641 46.7124C33.2034 46.7124 21.1561 42.7486 18.3829 33.1391C15.6096 23.5296 19.2971 14.024 26.6199 11.9098C33.9428 9.79563 42.1302 15.8783 44.9035 25.4902Z" fill="#E18477"/>
    <path d="M36.6688 13.7881C36.5772 14.2366 36.4459 14.6761 36.2767 15.1015C34.5003 19.4881 31.7601 23.27 27.7727 25.8968C23.0483 29.0055 18.4183 28.8685 13.127 29.6291C13.427 27.6968 14.1049 25.8496 14.164 23.8251C14.2585 20.6551 14.9742 19.4456 16.9726 17.1306C18.4608 15.4086 20.4758 12.7771 22.8144 12.2007C22.8546 12.2007 36.5153 6.76758 36.5153 6.76758C36.6664 9.12743 37.1294 11.544 36.6688 13.7881Z" fill="url(#paint1_linear)"/>
    <path d="M38.4902 23.9269C40.1591 23.0763 42.0897 22.8947 43.8879 23.419" stroke="#00214E" stroke-miterlimit="10"/>
    <path d="M26.0957 24.6126C27.2325 24.0336 28.4829 23.7123 29.758 23.6714C31.033 23.6306 32.3014 23.8713 33.4729 24.3764" stroke="#00214E" stroke-miterlimit="10"/>
    <path d="M37.8303 30.2959C37.8303 30.2959 37.8988 31.6329 38.2107 32.2589C38.3477 32.5282 38.5555 32.755 38.6831 33.0219C39.2075 34.0471 38.3618 34.2621 37.5469 34.2621" stroke="#00214E" stroke-miterlimit="10"/>
    <path d="M34.5398 32.6299C34.3691 32.7172 34.2353 32.8627 34.1626 33.0401C34.0899 33.2175 34.083 33.415 34.1432 33.597C34.2034 33.779 34.3267 33.9335 34.4908 34.0325C34.655 34.1315 34.8491 34.1686 35.0382 34.137" stroke="#00214E" stroke-miterlimit="10"/>
    <path d="M30.7842 37.1484C31.9192 38.4159 33.4751 39.2292 35.1637 39.4374" stroke="#00214E" stroke-miterlimit="10"/>
    <path d="M31.8585 28.1792C31.89 27.7538 31.078 27.3469 30.045 27.2705C29.0119 27.1941 28.149 27.4771 28.1175 27.9025C28.0861 28.328 28.898 28.7348 29.931 28.8112C30.9641 28.8876 31.827 28.6046 31.8585 28.1792Z" fill="#00214E"/>
    <path d="M42.2748 28.4221C43.2983 28.2626 44.0747 27.7916 44.009 27.37C43.9433 26.9485 43.0603 26.7361 42.0368 26.8957C41.0133 27.0552 40.2369 27.5263 40.3026 27.9478C40.3683 28.3693 41.2513 28.5817 42.2748 28.4221Z" fill="#00214E"/>
    </g>
    <circle cx="33" cy="33" r="32.25" stroke="#9B9B9B" stroke-opacity="0.5" stroke-width="0.5"/>
    <defs>
    <linearGradient id="paint0_linear" x1="6" y1="27.1256" x2="52.2215" y2="27.1256" gradientUnits="userSpaceOnUse">
    <stop stop-color="#315676"/>
    <stop offset="1" stop-color="#E1B9E0"/>
    </linearGradient>
    <linearGradient id="paint1_linear" x1="2.03398" y1="32.1543" x2="50.3531" y2="4.75497" gradientUnits="userSpaceOnUse">
    <stop stop-color="#315676"/>
    <stop offset="0.08" stop-color="#375979"/>
    <stop offset="0.18" stop-color="#496383"/>
    <stop offset="0.2" stop-color="#4D6585"/>
    <stop offset="0.29" stop-color="#546989"/>
    <stop offset="0.43" stop-color="#677495"/>
    <stop offset="0.6" stop-color="#8786A9"/>
    <stop offset="0.78" stop-color="#B39FC4"/>
    <stop offset="0.95" stop-color="#E1B9E0"/>
    </linearGradient>
    </defs>
    </svg>
