<svg width="66" height="66" viewBox="0 0 66 66" fill="none" xmlns="http://www.w3.org/2000/svg">
    <mask id="mask0" mask-type="alpha" maskUnits="userSpaceOnUse" x="0" y="0" width="66" height="66">
    <circle cx="33" cy="33" r="32.5" fill="#C4C4C4" stroke="black"/>
    </mask>
    <g mask="url(#mask0)">
    <path d="M10.8917 62.786C18.1457 68.3714 27.0536 71.3816 36.2087 71.3411C45.3639 71.3007 54.2448 68.212 61.4492 62.5628L50.5868 57.4708C50.0694 57.2277 49.573 56.9424 49.1023 56.6181C48.9594 56.5199 48.8165 56.4172 48.6804 56.31C47.4982 55.4055 46.525 54.2565 45.8275 52.9415C45.3001 51.9311 44.9497 50.8378 44.7917 49.7091C44.6826 48.9767 44.6274 48.2373 44.6265 47.4968C44.6265 46.7245 44.6466 45.9521 44.6733 45.1797C44.689 44.6752 44.7024 44.1685 44.7091 43.664C44.718 42.9571 44.7254 42.2494 44.7314 41.541L44.2849 41.7642L43.1241 42.3647L42.5861 42.4563L36.3624 43.5144L29.4155 44.6975L29.2056 51.8409L29.1364 54.1759L29.1029 55.31V55.3792L28.8797 55.4729L26.4085 56.4775L10.8917 62.786Z" fill="#F2A196"/>
    <path d="M29.1052 55.3799C29.9312 55.4758 31.3375 55.1566 32.1144 54.7347C35.0164 53.1319 36.4652 51.8327 38.0032 50.6987C39.8337 49.3459 44.6555 45.0063 44.6555 45.0063C44.6712 44.5018 44.7024 44.1669 44.7091 43.6669C44.7181 42.96 44.7255 42.2523 44.7314 41.5439L44.285 41.7672L43.1242 42.3677L42.5862 42.4592L36.3625 43.5173L29.4155 44.7004L29.2057 51.8439L29.1365 54.1789L29.103 55.3129V55.3799H29.1052Z" fill="#E88870"/>
    <path d="M10.8917 62.7865C18.1457 68.3719 27.0536 71.3821 36.2087 71.3417C45.3639 71.3012 54.2448 68.2125 61.4492 62.5633L50.5868 57.4713C50.0694 57.2282 49.573 56.943 49.1023 56.6186C48.9594 56.5204 48.8165 56.4177 48.6804 56.3105C43.4233 60.0519 36.2486 62.4115 30.0427 59.6188C28.5649 58.9491 27.2077 57.8687 26.4041 56.4802L10.8917 62.7865Z" fill="#FF2609"/>
    <path d="M14.8874 18.0775C14.9075 18.2092 14.932 18.3387 14.961 18.4682C15.1159 19.1318 15.3647 19.77 15.6999 20.3634L15.7178 20.3946C15.845 20.6179 15.9812 20.8411 16.1285 21.0643C16.5195 21.6374 16.9459 22.1854 17.4054 22.7051L17.68 23.0109C17.8653 23.2185 18.0528 23.4217 18.2403 23.6226C17.2469 23.3993 16.2848 24.3258 16.1085 25.3258C15.9321 26.3259 16.3317 27.3349 16.825 28.2278C17.6889 29.8083 18.9346 30.8598 20.0306 32.2326C20.8521 33.255 21.3075 34.4649 22.2027 35.4427L22.2697 35.5164C24.6337 37.9987 28.3661 38.5791 31.4735 39.6395C32.5897 40.0234 44.6933 43.4612 44.6933 44.2112C44.6933 44.0483 45.8786 42.8719 47.3721 41.4409C52.7296 36.3535 54.4909 28.4935 51.3032 21.7519C47.8766 14.4969 40.0947 9.32012 32.6834 6.83332C30.3663 6.05647 27.7366 5.53411 25.54 6.61008C23.3434 7.68606 22.2496 11.0234 24.0711 12.653C22.9254 11.7861 21.5004 11.3721 20.0686 11.4899C18.7461 11.5728 17.4989 12.1337 16.5594 13.0682C15.8152 13.8158 15.2802 14.7457 15.0079 15.7648C14.8061 16.5187 14.765 17.3067 14.8874 18.0775Z" fill="#845161"/>
    <path d="M14.8875 18.078C14.9076 18.2097 14.9322 18.3392 14.9612 18.4687C14.9813 18.5066 15.0014 18.5468 15.0215 18.5915C15.2737 19.1674 15.3898 19.788 15.6912 20.3639L15.709 20.3952C15.8363 20.6184 15.9724 20.8416 16.1198 21.0649C16.5069 21.6407 16.9335 22.1889 17.3967 22.7056L17.6802 23.0114C17.8654 23.2191 18.053 23.4222 18.2405 23.6231C17.2471 23.3999 16.285 24.3263 16.1086 25.3264C15.9322 26.3264 16.3318 27.3354 16.8252 28.2284C17.6891 29.8089 18.9347 30.8603 20.0308 32.2332C20.8523 33.2556 21.3077 34.4655 22.2028 35.4432C23.2421 34.2073 23.9039 32.6986 24.1092 31.0969C24.4753 28.1368 24.2521 24.9111 24.3526 21.9154C24.4151 20.0313 25.0222 19.6831 23.8927 18.1584C22.9844 17.0378 21.9338 16.0404 20.7674 15.1916C19.8567 14.5911 18.6847 14.4974 17.5976 14.6514C16.6503 14.781 15.7564 15.1669 15.0125 15.7676C14.8095 16.5205 14.7669 17.3076 14.8875 18.078Z" fill="#69303A"/>
    <path d="M46.9277 39.084C44.8318 39.084 43.1328 37.385 43.1328 35.2891C43.1328 33.1932 44.8318 31.4941 46.9277 31.4941C49.0236 31.4941 50.7227 33.1932 50.7227 35.2891C50.7227 37.385 49.0236 39.084 46.9277 39.084Z" fill="#F2A196"/>
    <path d="M45.7245 38.6858C43.848 38.6858 42.3269 37.1646 42.3269 35.2882C42.3269 33.4118 43.848 31.8906 45.7245 31.8906C47.6009 31.8906 49.1221 33.4118 49.1221 35.2882C49.1221 37.1646 47.6009 38.6858 45.7245 38.6858Z" fill="#E88870"/>
    <path d="M45.6729 31.7169L44.6951 43.9946L29.8636 53.1203C28.8354 53.5033 27.7014 53.4896 26.6828 53.0818C25.6643 52.6741 24.8341 51.9015 24.3542 50.9148C23.2244 48.6082 22.2446 46.231 21.4209 43.7982C20.8316 42.048 20.2557 40.251 20.1999 38.3893C20.1441 36.5275 20.6731 34.5943 21.316 32.8755C21.383 32.6946 21.7402 32.1388 21.7089 31.949C21.4604 30.4608 21.2133 28.9771 20.9678 27.4978C20.6865 25.8213 20.3271 24.0712 20.7446 22.3858C21.22 20.4526 22.68 19.6289 23.881 18.1846C27.0419 22.2563 32.2388 24.5578 36.7771 26.8906C39.1098 28.0961 45.6729 31.7169 45.6729 31.7169Z" fill="#F2A196"/>
    <path d="M21.0134 42.5445C21.9755 46.3215 23.0403 50.2125 23.8328 51.6099C24.4266 52.6524 25.2548 52.8533 26.5652 53.1725C28.1893 53.5443 29.8749 53.5583 31.505 53.2137C33.1352 52.8691 34.6709 52.1741 36.0056 51.1768L44.7318 44.1495C44.8657 42.8347 44.955 42.6338 45.0197 41.3122C45.051 40.714 45.243 40.1157 45.1001 39.5264C45.0609 39.836 44.9285 40.1263 44.7206 40.359C43.6647 41.7922 42.4325 43.4106 40.6779 43.9999C38.8474 44.6138 36.7646 44.7098 34.9966 43.8437C33.4585 43.0891 31.9517 42.1047 30.3467 41.4841C29.2791 41.0433 28.1272 40.8444 26.9737 40.9015C25.3351 41.0131 24.6342 41.752 23.4354 42.7275C23.0426 43.049 22.6028 43.3838 22.0961 43.3972C21.5246 43.386 21.4956 42.9128 21.0134 42.5445Z" fill="#845161"/>
    <path d="M34.7082 31.2256C33.3465 31.2256 33.3465 33.3195 34.7082 33.3307H34.7707C36.1324 33.3307 36.1324 31.2367 34.7707 31.2256H34.7082Z" fill="#00214E"/>
    <path d="M23.52 30.916C22.2543 30.9272 22.2543 32.8581 23.52 32.8693H23.5758C24.8393 32.8693 24.8393 30.9272 23.5758 30.916H23.52Z" fill="#00214E"/>
    <path d="M29.0362 30.6211C29.0541 30.6992 26.0538 38.6865 26.0538 38.6865L30.0586 38.8807" stroke="#00214E" stroke-miterlimit="10"/>
    <path d="M38.5186 29.0766C36.4519 28.6499 34.3264 28.5902 32.239 28.9003" stroke="#00214E" stroke-miterlimit="10"/>
    <path d="M25.3369 29.1008C24.061 28.8048 22.7461 28.7136 21.4415 28.8307" stroke="#00214E" stroke-miterlimit="10"/>
    <path d="M30.2884 43.1017C29.0338 43.5356 27.6739 43.5606 26.4042 43.1731C26.268 43.1307 26.326 42.9142 26.4622 42.9499C27.693 43.3271 29.012 43.3028 30.2281 42.8807C30.3643 42.8338 30.4223 43.0481 30.2884 43.1039V43.1017Z" fill="#F2A196"/>
    </g>
    <circle cx="33" cy="33" r="32.25" stroke="#9B9B9B" stroke-opacity="0.5" stroke-width="0.5"/>
</svg>
