<svg width="62" height="63" viewBox="0 0 62 63" fill="none" xmlns="http://www.w3.org/2000/svg">
    <mask id="mask0" mask-type="alpha" maskUnits="userSpaceOnUse" x="-1" y="-1" width="64" height="64">
    <circle cx="31" cy="31" r="31.5" fill="#C4C4C4" stroke="black"/>
    </mask>
    <g mask="url(#mask0)">
        <path d="M51.0335 23.1604C51.0335 24.8005 49.1788 26.1759 48.7745 27.6889C48.3577 29.2561 49.2621 31.3714 48.4702 32.7427C47.6783 34.1139 45.3713 34.4099 44.2438 35.529C43.1164 36.6481 42.8454 38.9509 41.4554 39.7553C40.0654 40.5598 37.9689 39.6428 36.4038 40.0617C34.8908 40.466 33.5153 42.3208 31.8731 42.3208C30.2309 42.3208 28.8576 40.466 27.3446 40.0617C25.7795 39.6449 23.6621 40.5494 22.293 39.7553C20.9238 38.9613 20.6257 36.6585 19.5045 35.529C18.3833 34.3994 16.0826 34.1327 15.2782 32.7427C14.4737 31.3526 15.3907 29.2561 14.9739 27.6889C14.5696 26.1759 12.7148 24.8005 12.7148 23.1604C12.7148 21.5203 14.5696 20.1448 14.9739 18.6318C15.3907 17.0647 14.4863 14.9494 15.2782 13.5781C16.0701 12.2068 18.3771 11.9109 19.5045 10.7918C20.632 9.67267 20.9008 7.36984 22.293 6.56542C23.6851 5.76099 25.7795 6.67795 27.3446 6.25907C28.8576 5.85477 30.233 4 31.8731 4C33.5133 4 34.8908 5.85477 36.4038 6.25907C37.9689 6.67587 40.0841 5.77141 41.4554 6.56542C42.8267 7.35942 43.1226 9.66225 44.2438 10.7918C45.365 11.9213 47.6658 12.1881 48.4702 13.5781C49.2746 14.9681 48.3556 17.0647 48.7745 18.6318C49.1788 20.1448 51.0335 21.5203 51.0335 23.1604Z" fill="#00214E"/>
        <path d="M21.0946 36.2321C23.0512 36.2321 24.6374 34.6459 24.6374 32.6893C24.6374 30.7327 23.0512 29.1465 21.0946 29.1465C19.1379 29.1465 17.5518 30.7327 17.5518 32.6893C17.5518 34.6459 19.1379 36.2321 21.0946 36.2321Z" fill="#E18477"/>
        <path d="M22.3159 35.8153C24.1574 35.8153 25.6503 34.3224 25.6503 32.4809C25.6503 30.6394 24.1574 29.1465 22.3159 29.1465C20.4743 29.1465 18.9814 30.6394 18.9814 32.4809C18.9814 34.3224 20.4743 35.8153 22.3159 35.8153Z" fill="#A76962"/>
        <path d="M54.7699 58.3589C47.9978 63.5733 39.6818 66.3834 31.1349 66.3457C22.588 66.3079 14.2971 63.4245 7.57129 58.1505L17.7121 53.3969C18.195 53.1699 18.6585 52.9036 19.0979 52.6008C19.2313 52.5091 19.3647 52.4132 19.4918 52.3132C20.5955 51.4687 21.504 50.3961 22.1552 49.1684C22.9888 47.595 23.2639 45.8569 23.2764 44.0855C23.2764 42.8935 23.2118 41.7014 23.1993 40.5073C23.1909 39.8473 23.184 39.1867 23.1784 38.5254L23.5952 38.7338L24.6748 39.3048L25.177 39.3903L30.9872 40.3781L37.4727 41.4826L37.6686 48.1514L37.7644 51.39V51.4588L40.2861 52.4841L54.7699 58.3589Z" fill="#E18477"/>
        <path d="M37.7394 50.6379L37.4184 50.6713C35.8688 50.8071 34.3082 50.6045 32.8447 50.0773C31.3812 49.5501 30.0498 48.711 28.9428 47.6182L23.2367 41.0723C23.218 40.468 23.1951 40.8431 23.1888 40.2387C23.1805 39.5788 23.1735 38.9182 23.168 38.2568L23.5848 38.4652L24.6685 39.0258L25.1707 39.1113L30.9809 40.0991L37.4664 41.2036L37.6623 47.8725L37.7394 50.6379Z" fill="#A76962"/>
        <path d="M22.1587 25.4783C21.994 25.6867 21.8482 26.0931 21.6919 26.7517C21.3313 28.2792 22.911 38.3096 23.2132 41.2605L30.8031 46.8582C32.0495 47.7887 33.4832 48.4372 35.0049 48.7589C36.5266 49.0806 38.1001 49.0678 39.6164 48.7213C40.8397 48.4316 41.615 48.2441 42.1672 47.2625C43.2343 45.3869 45.8539 38.9702 46.0247 34.4437C46.0727 33.16 46.0414 31.201 45.2495 30.1048C44.864 29.5734 44.666 29.563 44.8056 28.8107C44.9452 28.0583 45.1557 27.2539 45.3287 26.4745C45.8059 24.3217 46.1873 21.8897 45.4975 19.7473C45.1307 18.6011 44.4826 17.8425 43.5614 17.1069C42.5778 16.3191 42.1714 16.3566 41.5816 17.5237C41.1836 18.3156 40.7835 18.9825 39.9769 19.4326C38.8078 20.0808 38.0117 19.6598 36.8509 19.5702C35.8339 19.4931 35.9423 20.2787 35.7193 21.029C35.4884 21.8165 34.9893 22.4985 34.3084 22.9567C33.6887 23.3588 32.9666 23.5747 32.2278 23.5788C31.489 23.5828 30.7646 23.3749 30.1404 22.9796C29.9675 22.8556 29.7593 22.7905 29.5465 22.7941C28.8504 22.8316 28.8192 23.6673 28.6608 24.2675C28.3253 25.5179 26.8644 26.2098 25.566 26.1098C23.4487 25.9514 22.6943 24.7719 22.1587 25.4783Z" fill="#E18477"/>
        <path d="M38.8859 29.2061C38.9431 30.0156 39.0828 30.8173 39.3027 31.5985C39.5111 32.2883 39.8279 32.7176 40.2447 33.3116C40.3886 33.5076 40.5135 33.717 40.6177 33.9368C41.1679 35.1747 40.4364 36.548 39.0443 36.548H38.1836" stroke="#00214E" stroke-miterlimit="10"/>
        <path d="M32.8359 38.5908C33.8379 39.7083 35.2102 40.4256 36.6997 40.6102" stroke="#00214E" stroke-miterlimit="10"/>
        <path d="M28.9453 26.8889C30.8746 26.4905 32.859 26.4348 34.8076 26.7242" stroke="#00214E" stroke-miterlimit="10"/>
        <path d="M41.251 26.9125C42.4426 26.6347 43.6711 26.5496 44.8897 26.6603" stroke="#00214E" stroke-miterlimit="10"/>
        <path d="M54.7699 58.3592C47.9978 63.5735 39.6818 66.3837 31.1349 66.346C22.588 66.3082 14.2971 63.4247 7.57129 58.1508L17.7121 53.3972C18.195 53.1701 18.6585 52.9039 19.0979 52.6011C19.2313 52.5094 19.3647 52.4135 19.4918 52.3135C24.3997 55.8063 31.0977 58.0091 36.8912 55.402C38.2708 54.7768 39.5379 53.7681 40.2881 52.4719L54.7699 58.3592Z" fill="url(#paint0_linear)"/>
        <path d="M35.4055 35.0811C35.2563 35.1592 35.1396 35.2878 35.0764 35.4439C35.0132 35.6 35.0074 35.7736 35.0603 35.9335C35.1131 36.0935 35.221 36.2295 35.3648 36.3172C35.5086 36.405 35.6789 36.4389 35.8453 36.4127" stroke="#00214E" stroke-miterlimit="10"/>
        <path d="M32.0048 28.8701C33.2782 28.8701 33.2782 30.8249 32.0048 30.8353H31.9486C30.6773 30.8249 30.6773 28.8805 31.9486 28.8701H32.0048Z" fill="#00214E"/>
        <path d="M42.4808 28.7324C43.6604 28.7324 43.6604 30.5455 42.4808 30.5559H42.4267C41.2471 30.5455 41.2471 28.7428 42.4267 28.7324H42.4808Z" fill="#00214E"/>
        <path d="M21.0865 33.7325C21.7782 33.7325 22.339 33.1718 22.339 32.48C22.339 31.7883 21.7782 31.2275 21.0865 31.2275C20.3947 31.2275 19.834 31.7883 19.834 32.48C19.834 33.1718 20.3947 33.7325 21.0865 33.7325Z" fill="#F2D4CF"/>
        <path d="M18.7125 35.4951C18.6333 35.4826 18.5541 35.468 18.4749 35.4493C17.7481 35.2822 17.1084 34.8532 16.6781 34.2442C16.2477 33.6352 16.0568 32.889 16.1419 32.1481C16.227 31.4073 16.5821 30.7238 17.1393 30.2282C17.6966 29.7327 18.4169 29.4599 19.1626 29.4619C19.2057 29.4618 19.2477 29.4762 19.2816 29.5028C19.3155 29.5295 19.3395 29.5667 19.3496 29.6087C19.3597 29.6506 19.3554 29.6947 19.3374 29.7339C19.3193 29.773 19.2886 29.805 19.2501 29.8245C18.7981 30.0689 18.4155 30.4241 18.1382 30.8568C17.861 31.2895 17.6981 31.7855 17.665 32.2983C17.6319 32.8111 17.7296 33.3239 17.9489 33.7887C18.1682 34.2534 18.5019 34.6549 18.9188 34.9554C18.973 34.9935 19.013 35.0487 19.0324 35.1121C19.0518 35.1755 19.0495 35.2436 19.0258 35.3056C19.0021 35.3675 18.9584 35.4198 18.9017 35.4541C18.8449 35.4885 18.7783 35.5029 18.7125 35.4951Z" fill="#F2D4CF"/>
        <path d="M18.6436 29.7917C19.0753 29.627 19.5534 29.6323 19.9815 29.8063C20.2062 29.9061 20.4073 30.0522 20.5717 30.235C20.7362 30.4177 20.8603 30.6331 20.936 30.867C21.0542 31.2011 21.1052 31.5552 21.086 31.909" stroke="#F2D4CF" stroke-width="2" stroke-miterlimit="10"/>
    </g>
    <defs>
    <linearGradient id="paint0_linear" x1="7.57129" y1="59.3283" x2="54.7699" y2="59.3283" gradientUnits="userSpaceOnUse">
    <stop stop-color="#315676"/>
    <stop offset="1" stop-color="#E1B9E0"/>
    </linearGradient>
    </defs>
</svg>
