<svg width="64" height="64" viewBox="0 0 64 64" fill="none" xmlns="http://www.w3.org/2000/svg">
    <mask id="mask0" mask-type="alpha" maskUnits="userSpaceOnUse" x="0" y="0" width="64" height="64">
    <circle cx="32" cy="32" r="31.5" fill="#C4C4C4" stroke="black"/>
    </mask>
    <g mask="url(#mask0)">
    <path d="M28.8486 16.8857C32.7248 16.8857 35.8671 13.7434 35.8671 9.86715C35.8671 5.99093 32.7248 2.84863 28.8486 2.84863C24.9724 2.84863 21.8301 5.99093 21.8301 9.86715C21.8301 13.7434 24.9724 16.8857 28.8486 16.8857Z" fill="url(#paint0_linear)"/>
    <path d="M34.9126 47.9553C31.2467 47.8917 27.5905 47.5567 23.9741 46.953C16.7702 45.7493 9.71737 43.4494 3.319 39.9047C2.93913 39.6919 2.55926 39.4768 2.1748 39.2571C7.84775 33.8725 12.0584 27.3574 15.6169 20.4464C18.1799 15.46 19.5071 12.1716 25.0428 10.0731C34.6678 6.42771 47.6705 9.97244 50.4074 20.8011C51.563 25.3779 51.6065 30.163 50.9497 34.8199C50.3159 39.3234 48.6476 47.9965 48.6476 47.9965C48.6476 47.9965 36.709 47.9873 34.9126 47.9553Z" fill="url(#paint1_linear)"/>
    <path d="M60.0005 62.6016C52.5642 68.3274 43.4326 71.4131 34.0475 71.3717C24.6623 71.3302 15.5583 68.164 8.17285 62.3728L19.3082 57.1529C19.649 56.9917 19.9813 56.813 20.3037 56.6174L20.56 56.4572C20.6515 56.4 20.7407 56.3405 20.83 56.2788C22.2351 55.3089 23.3865 54.0155 24.1871 52.5075C25.1024 50.7797 25.4045 48.8712 25.4182 46.9261C25.4182 45.8574 25.3748 44.7887 25.3473 43.7223C25.3473 43.4813 25.3427 43.241 25.3336 43.0015C25.3244 42.2753 25.3168 41.5499 25.3107 40.8252H25.3267L25.7638 41.054L26.9537 41.6696L33.8853 42.8481L41.0068 44.061L41.1693 49.5531L41.215 51.1276V51.3724L41.3226 55.0041L43.9474 56.0728L46.007 56.9058L60.0005 62.6016Z" fill="#F2A196"/>
    <path d="M41.1687 49.5571C40.6755 49.8948 40.0863 50.0642 39.489 50.0399C36.1045 49.6761 29.5025 47.0238 25.3467 42.1152C25.3467 41.8741 25.3422 41.6339 25.333 41.3943V40.8291L25.7701 41.0579L26.9601 41.6735L33.8916 42.852L41.0131 44.0649L41.1687 49.5571Z" fill="#E88870"/>
    <path d="M19.5875 37.387C21.7361 37.387 23.4778 35.6453 23.4778 33.4967C23.4778 31.3482 21.7361 29.6064 19.5875 29.6064C17.439 29.6064 15.6973 31.3482 15.6973 33.4967C15.6973 35.6453 17.439 37.387 19.5875 37.387Z" fill="#F2A196"/>
    <path d="M20.9606 36.929C23.1091 36.929 24.8509 35.1873 24.8509 33.0387C24.8509 30.8902 23.1091 29.1484 20.9606 29.1484C18.812 29.1484 17.0703 30.8902 17.0703 33.0387C17.0703 35.1873 18.812 36.929 20.9606 36.929Z" fill="#E88870"/>
    <path d="M46.0276 27.6073C48.7165 36.9165 43.0069 48.1731 39.4965 48.1731C34.6909 48.1731 23.02 44.3332 20.3357 35.024C17.6515 25.7148 21.2122 16.5063 28.3062 14.4581C35.4003 12.41 43.341 18.3049 46.0276 27.6073Z" fill="#F2A196"/>
    <path d="M31.5739 29.54C32.9698 29.5515 32.9698 31.6843 31.5739 31.6957H31.5098C30.1139 31.6843 30.1139 29.5515 31.5098 29.54H31.5716H31.5739Z" fill="#00214E"/>
    <path d="M43.0755 28.6611C44.373 28.6726 44.373 30.652 43.0755 30.6635H43.0183C41.7231 30.6635 41.7231 28.6726 43.0183 28.6611H43.0755Z" fill="#00214E"/>
    <path d="M31.5716 34.985C33.9729 34.985 35.9195 33.0383 35.9195 30.637C35.9195 28.2357 33.9729 26.2891 31.5716 26.2891C29.1703 26.2891 27.2236 28.2357 27.2236 30.637C27.2236 33.0383 29.1703 34.985 31.5716 34.985Z" stroke="white" stroke-miterlimit="10"/>
    <path d="M43.7298 34.2975C46.1311 34.2975 48.0778 32.3508 48.0778 29.9495C48.0778 27.5482 46.1311 25.6016 43.7298 25.6016C41.3285 25.6016 39.3818 27.5482 39.3818 29.9495C39.3818 32.3508 41.3285 34.2975 43.7298 34.2975Z" stroke="white" stroke-miterlimit="10"/>
    <path d="M37.1717 15.229C36.1854 19.5083 34.0366 23.1423 30.1097 25.79C25.8716 28.7237 21.3978 30.1379 16.5166 31.1105C16.6402 28.1104 16.3106 23.8906 17.8576 21.2154C19.6133 18.2451 22.1777 15.8355 25.2514 14.2679C28.6405 12.5172 33.8833 10.8009 37.6912 12.0138C37.5853 13.0953 37.4118 14.1692 37.1717 15.229Z" fill="url(#paint2_linear)"/>
    <path d="M37.5705 28.042C37.5522 28.1198 39.383 35.4427 39.383 35.4427H36.5225" stroke="#00214E" stroke-miterlimit="10"/>
    <path d="M40.1924 25.7058C41.8085 24.88 43.6791 24.7031 45.4214 25.2116" stroke="#00214E" stroke-miterlimit="10"/>
    <path d="M27.5811 26.543C28.6823 25.9821 29.8936 25.6708 31.1289 25.6313C32.3641 25.5917 33.5929 25.8249 34.7277 26.3142" stroke="#00214E" stroke-miterlimit="10"/>
    <path d="M35.9189 30.637L39.3813 30.3418" stroke="white" stroke-miterlimit="10"/>
    <path d="M59.9986 62.6014C52.5623 68.3272 43.4307 71.4129 34.0455 71.3715C24.6603 71.33 15.5563 68.1638 8.1709 62.3726L19.3062 57.1527C19.8366 56.9034 20.3455 56.6111 20.828 56.2785C20.9745 56.1779 21.1209 56.0726 21.2605 55.9627C22.4735 55.035 23.4719 53.8564 24.1874 52.5073C24.7267 51.4728 25.0851 50.3536 25.2469 49.1982C25.4085 49.3548 25.5781 49.503 25.755 49.6422C27.1581 50.6798 28.6809 51.5449 30.2906 52.2189C31.072 52.5449 31.8712 52.8268 32.6842 53.0633C35.1337 53.7776 37.6912 54.0481 40.2359 53.862C40.5884 53.8345 40.9431 53.8002 41.2955 53.775L41.3298 54.9375V55.0131L44.0988 56.139L59.9986 62.6014Z" fill="#845161"/>
    <path d="M31.6217 38.0264C31.6532 37.9769 31.6946 37.9343 31.7432 37.9014C31.7919 37.8686 31.8468 37.8461 31.9046 37.8353C31.9623 37.8246 32.0216 37.8259 32.0789 37.8391C32.1361 37.8522 32.19 37.8771 32.2372 37.912C32.7109 38.2461 33.5805 38.9555 34.8163 39.2004C36.5005 39.5368 37.9628 38.8617 38.3106 39.2965C38.5074 39.5413 38.2672 39.8411 37.8072 40.2233C37.3256 40.5834 36.7769 40.8435 36.1933 40.9885C35.6097 41.1336 35.0031 41.1605 34.4089 41.0677C32.7865 40.7634 31.5713 38.8869 31.5713 38.2209C31.5706 38.1528 31.5879 38.0857 31.6217 38.0264Z" fill="white"/>
    </g>
    <circle cx="32" cy="32" r="31.25" stroke="#9B9B9B" stroke-opacity="0.5" stroke-width="0.5"/>
    <defs>
    <linearGradient id="paint0_linear" x1="21.8301" y1="9.86715" x2="35.8694" y2="9.86715" gradientUnits="userSpaceOnUse">
    <stop stop-color="#16243F"/>
    <stop offset="1" stop-color="#6878B1"/>
    </linearGradient>
    <linearGradient id="paint1_linear" x1="5415.31" y1="9606.91" x2="10128.4" y2="3572.48" gradientUnits="userSpaceOnUse">
    <stop stop-color="#16243F"/>
    <stop offset="1" stop-color="#6878B1"/>
    </linearGradient>
    <linearGradient id="paint2_linear" x1="2543.28" y1="3187.84" x2="3507.93" y2="1971.68" gradientUnits="userSpaceOnUse">
    <stop stop-color="#16243F"/>
    <stop offset="1" stop-color="#6878B1"/>
    </linearGradient>
    </defs>
</svg>
