<svg width="62" height="63" viewBox="0 0 62 63" fill="none" xmlns="http://www.w3.org/2000/svg">
    <mask id="mask0" mask-type="alpha" maskUnits="userSpaceOnUse" x="-1" y="-1" width="64" height="64">
    <circle cx="31" cy="31" r="31.5" fill="#C4C4C4" stroke="black"/>
    </mask>
    <g mask="url(#mask0)">
    <path d="M24.6413 5.94852C27.4508 5.01202 30.4593 4.24409 33.4304 4.57889C38.1437 5.11998 42.6303 6.89687 46.436 9.72964C53.9023 15.2971 55.8221 25.3645 58.9406 33.6829C60.1112 36.8038 61.2819 39.9551 61.7899 43.2516C63.2696 53.031 56.7399 56.5569 48.2762 58.9591C37.6119 61.9863 25.9407 61.0826 15.5432 57.4302C6.6863 54.3187 3.13463 46.8173 5.00763 37.8574C5.94413 33.4371 7.70943 29.2416 9.48878 25.0859C12.8742 17.2006 16.0747 8.83996 24.6413 5.94852Z" fill="#00214E"/>
    <path d="M3.73712 58.8793C11.3455 64.7365 20.6879 67.8931 30.2896 67.8507C39.8912 67.8083 49.2054 64.5694 56.7617 58.6452L45.3692 53.3048C45.0205 53.1399 44.6805 52.957 44.3508 52.7569L44.0885 52.5931C43.9949 52.5345 43.9036 52.4737 43.8123 52.4104C42.3736 51.4156 41.1955 50.0889 40.3777 48.5427C39.4412 46.7751 39.1321 44.8248 39.1181 42.8347C39.1181 41.4932 39.1907 40.1563 39.2047 38.8125C39.2141 38.0711 39.2219 37.3289 39.2281 36.5859L38.7599 36.8201L37.5424 37.4499L30.4508 38.6556L23.1648 39.8965L22.9447 47.3885L22.8417 51.1181L20.1563 52.2114L18.0492 53.0636L3.73712 58.8793Z" fill="#E18477"/>
    <path d="M22.9549 46.6131C23.5917 47.0065 24.1934 47.1914 24.7202 47.1352C28.1829 46.763 34.9374 44.0495 39.1891 39.0275C39.1891 38.7809 39.1938 38.5351 39.2031 38.29C39.2125 37.547 39.2203 36.8049 39.2266 36.0635L38.7583 36.2976L37.5409 36.9274L30.4492 38.1331L23.1633 39.374L22.9549 46.6131Z" fill="#A76962"/>
    <path d="M3.73712 58.8796C11.3455 64.7368 20.6879 67.8934 30.2896 67.851C39.8912 67.8086 49.2054 64.5696 56.7617 58.6455L45.3692 53.3051C45.018 53.1396 44.6785 52.9578 44.3508 52.7596C38.8067 56.8357 31.0899 59.4883 24.4361 56.4939C22.5491 55.6463 20.847 54.1526 20.154 52.207L18.0468 53.0592L3.73712 58.8796Z" fill="#FF2609"/>
    <path d="M45.1605 33.0813C42.9623 33.0813 41.1804 31.2994 41.1804 29.1012C41.1804 26.9031 42.9623 25.1211 45.1605 25.1211C47.3587 25.1211 49.1406 26.9031 49.1406 29.1012C49.1406 31.2994 47.3587 33.0813 45.1605 33.0813Z" fill="#E18477"/>
    <path d="M43.5209 32.6136C41.3227 32.6136 39.5407 30.8316 39.5407 28.6334C39.5407 26.4353 41.3227 24.6533 43.5209 24.6533C45.719 24.6533 47.501 26.4353 47.501 28.6334C47.501 30.8316 45.719 32.6136 43.5209 32.6136Z" fill="#A76962"/>
    <path d="M24.7909 44.1155C29.6232 45.0192 41.6479 40.1869 44.3965 30.6627C44.9739 28.6785 45.2811 26.6254 45.3096 24.5591C45.3096 24.154 45.3096 23.7513 45.2908 23.3533C44.9912 16.7182 41.5963 11.1788 36.2325 9.62189C35.9235 9.53292 35.6121 9.458 35.2961 9.38777C33.4201 9.03829 31.486 9.17368 29.6771 9.7811C27.3444 10.5787 25.233 11.916 23.5149 13.684C22.7899 14.4112 22.123 15.194 21.5201 16.0252C19.9849 18.1545 18.8329 20.5354 18.116 23.0607C15.3486 32.5989 21.183 43.4436 24.7909 44.1155Z" fill="#E18477"/>
    <path d="M25.8096 23.4658C25.7443 24.376 25.5874 25.2772 25.3414 26.1559C25.1072 26.9309 24.7514 27.4108 24.2831 28.0804C24.1206 28.3002 23.9802 28.5354 23.864 28.7828C23.2436 30.1735 24.0654 31.7164 25.6293 31.7164H26.5869" stroke="#00214E" stroke-miterlimit="10"/>
    <path d="M30.0188 29.9189C30.1879 30.0055 30.3205 30.1497 30.3926 30.3255C30.4647 30.5013 30.4715 30.6971 30.4119 30.8775C30.3522 31.0579 30.23 31.211 30.0673 31.3091C29.9046 31.4073 29.7122 31.444 29.5248 31.4127" stroke="#00214E" stroke-miterlimit="10"/>
    <path d="M24.7021 20.5902C23.048 19.7478 21.1351 19.5669 19.3524 20.0845" stroke="#00214E" stroke-miterlimit="10"/>
    <path d="M36.9863 21.2681C35.8596 20.6943 34.6203 20.3759 33.3566 20.3355C32.0929 20.295 30.8357 20.5335 29.6746 21.0339" stroke="#00214E" stroke-miterlimit="10"/>
    <path d="M26.5374 8.43427C28.8599 7.98241 31.646 8.06201 33.9241 8.09011C35.1673 8.10416 36.4269 8.18376 37.6115 8.55836C40.8893 9.61426 43.0222 12.7726 44.352 15.9567C44.6915 16.7691 48.201 24.8534 48.1237 24.8698C45.8761 25.6003 43.4693 24.5842 41.3599 23.5236C35.0994 20.37 28.4549 15.3012 25.7625 8.6005C26.013 8.54431 26.2729 8.48578 26.5374 8.43427Z" fill="#00214E"/>
    <path d="M32.4413 33.6881C32.4093 33.6375 32.3671 33.594 32.3175 33.5604C32.268 33.5267 32.212 33.5037 32.1531 33.4927C32.0942 33.4818 32.0337 33.483 31.9753 33.4965C31.9169 33.51 31.8619 33.5353 31.8138 33.571C31.3268 33.9129 30.4372 34.6386 29.1729 34.8915C27.4497 35.2333 25.9537 34.545 25.5978 34.9875C25.3965 35.238 25.6423 35.5447 26.1129 35.9357C26.6057 36.3047 27.1675 36.5713 27.765 36.7197C28.3625 36.8681 28.9838 36.8952 29.592 36.7996C31.2496 36.4882 32.4951 34.5684 32.4951 33.8894C32.4951 33.8188 32.4766 33.7493 32.4413 33.6881Z" fill="white"/>
    <path d="M33.7485 23.9336C32.3203 23.9453 32.3203 26.1273 33.7485 26.139H33.8117C35.2399 26.1273 35.2399 23.9453 33.8117 23.9336H33.7485Z" fill="#00214E"/>
    <path d="M21.981 23.7803C20.6535 23.7803 20.6535 25.8172 21.981 25.8265H22.0395C23.367 25.8265 23.367 23.7896 22.0395 23.7803H21.981Z" fill="#00214E"/>
    </g>
</svg>
