<svg width="64" height="64" viewBox="0 0 64 64" fill="none" xmlns="http://www.w3.org/2000/svg">
    <mask id="mask0" mask-type="alpha" maskUnits="userSpaceOnUse" x="0" y="0" width="64" height="64">
    <circle cx="32" cy="32" r="31.5" fill="#C4C4C4" stroke="black"/>
    </mask>
    <g mask="url(#mask0)">
    <path d="M34.0494 62.6714C30.0683 62.9264 26.2074 62.7845 22.2624 62.7171C17.7761 62.7171 12.4287 63.8862 9.06816 59.9773C6.74444 57.2735 7.02348 53.1721 8.22142 49.814C9.06576 47.4494 10.319 45.0318 9.85236 42.5638C9.49875 40.6947 8.20458 39.1431 7.62966 37.3318C7.06918 35.5661 7.22794 33.406 8.18534 31.7991C9.05854 30.3269 10.4634 29.5644 10.7544 27.6977C10.9132 26.673 10.6293 25.641 10.4634 24.6162C9.10424 16.2186 15.9022 10.3395 22.6016 6.81547C26.7102 4.65051 31.6439 3.65944 36.0724 5.48281C36.3986 5.64468 36.7501 5.74963 37.1116 5.79312C37.4423 5.77934 37.7709 5.73423 38.0931 5.65842C43.6017 4.84535 50.7364 14.6695 49.2161 19.6513C48.7543 21.1595 48.0278 22.7231 48.4367 24.2482C49.0405 26.495 51.8742 27.6881 52.2254 29.9878C52.6055 32.4678 49.8319 34.6881 50.378 37.1393C50.7003 38.5826 52.0739 39.5256 52.9447 40.7308C53.5982 41.6471 53.9718 42.7334 54.0199 43.8579C54.0536 44.5522 53.9598 45.2469 53.7433 45.9074C53.0938 47.8679 51.3715 49.6504 51.8021 51.6806C52.312 54.0862 55.4103 54.9377 55.2492 57.6752C55.1602 59.1377 53.878 60.2707 52.5237 60.8264C51.5489 61.1946 50.5446 61.4795 49.5216 61.678C48.7663 61.8463 48.1 61.6948 47.3447 61.7718C45.2422 61.9859 43.1687 62.3154 41.0518 62.4357C38.7329 62.5512 36.3827 62.5223 34.0494 62.6714Z" fill="url(#paint0_linear)"/>
    <path d="M59.9995 61.3005C52.1827 67.3193 42.5838 70.5629 32.7183 70.5194C22.8528 70.4758 13.2829 67.1475 5.51953 61.0599L17.2247 55.573C17.583 55.4035 17.9323 55.2156 18.2711 55.0101L18.5406 54.8417C18.6368 54.7815 18.7306 54.719 18.8244 54.654C20.3012 53.6353 21.5114 52.2765 22.3533 50.6922C23.3155 48.876 23.633 46.8698 23.6475 44.8251C23.6475 43.4492 23.5729 42.0732 23.5585 40.6949C23.5488 39.9315 23.5408 39.169 23.5344 38.4072L24.0155 38.6478L25.2664 39.2949L32.5527 40.5337L40.0386 41.8086L40.2647 49.5063L40.3778 53.3238L43.1369 54.4472L45.3019 55.3228L59.9995 61.3005Z" fill="#E18477"/>
    <path d="M40.2525 47.515C39.5982 47.9191 38.98 48.1092 38.4387 48.0514C34.881 47.669 27.9411 44.881 23.5727 39.7212C23.5727 39.4694 23.5679 39.2168 23.5582 38.9634C23.5486 38.2017 23.5406 37.4391 23.5342 36.6758L24.0153 36.9163L25.2661 37.5634L32.5524 38.8023L40.0384 40.0772L40.2525 47.515Z" fill="#A76962"/>
    <path d="M17.521 34.7383C19.7795 34.7383 21.6104 32.9074 21.6104 30.6489C21.6104 28.3904 19.7795 26.5596 17.521 26.5596C15.2625 26.5596 13.4316 28.3904 13.4316 30.6489C13.4316 32.9074 15.2625 34.7383 17.521 34.7383Z" fill="#E18477"/>
    <path d="M18.9644 34.2578C21.2229 34.2578 23.0537 32.427 23.0537 30.1685C23.0537 27.91 21.2229 26.0791 18.9644 26.0791C16.7059 26.0791 14.875 27.91 14.875 30.1685C14.875 32.427 16.7059 34.2578 18.9644 34.2578Z" fill="#A76962"/>
    <path d="M45.3134 24.522C48.1375 34.3101 42.1381 46.1452 38.4481 46.1452C33.3965 46.1452 21.1284 42.1111 18.3067 32.3231C15.4851 22.5351 19.2473 12.8529 26.7044 10.7C34.1615 8.54704 42.4869 14.7364 45.3134 24.522Z" fill="#E18477"/>
    <path d="M29.5722 26.2227C31.0395 26.2227 31.0395 28.479 29.5722 28.4887H29.5048C28.0375 28.4887 28.0375 26.2347 29.5048 26.2227H29.5722Z" fill="#00214E"/>
    <path d="M41.6194 25.8887C42.9833 25.8887 42.9833 27.9815 41.6194 27.9935H41.5592C40.1977 27.9935 40.1977 25.8983 41.5592 25.8887H41.6194Z" fill="#00214E"/>
    <path d="M36.346 12.6612C36.3171 12.7262 36.2883 12.7935 36.257 12.8609C35.5529 14.3494 34.6248 15.7212 33.5051 16.9286C31.28 19.3822 28.492 21.297 25.6006 22.887C23.9325 23.8386 22.2068 24.6853 20.4336 25.4224C17.8765 26.44 15.7091 26.9475 15.6394 27.0197C15.4157 24.1596 13.8521 18.1602 21.6098 12.2859C27.8642 7.55431 36.9305 7.92476 36.9305 7.92476C36.9017 9.70724 37.0484 11.0255 36.346 12.6612Z" fill="url(#paint1_linear)"/>
    <path d="M36.4236 24.9775C36.4044 25.0617 38.4346 33.736 38.4346 33.736H35.4277" stroke="#00214E" stroke-miterlimit="10"/>
    <path d="M39.1807 22.5233C40.8802 21.6575 42.8456 21.4717 44.6773 22.0037" stroke="#00214E" stroke-miterlimit="10"/>
    <path d="M25.9229 23.4139C27.0801 22.8232 28.3535 22.4953 29.6522 22.4537C30.9508 22.4122 32.2426 22.6579 33.4353 23.1734" stroke="#00214E" stroke-miterlimit="10"/>
    <path d="M59.9995 61.3005C52.1827 67.3192 42.5838 70.5629 32.7183 70.5194C22.8528 70.4758 13.2829 67.1475 5.51953 61.0599L17.2247 55.5729C17.7822 55.3109 18.3172 55.0036 18.8244 54.654C18.9784 54.5482 19.1323 54.4375 19.2791 54.3221C20.553 53.3473 21.6016 52.1092 22.3533 50.6922C22.9216 49.6034 23.2991 48.4253 23.4695 47.209C23.6393 47.3736 23.8176 47.5294 24.0035 47.6757C25.4784 48.7663 27.0791 49.6757 28.7712 50.3843C29.5927 50.7269 30.4327 51.0233 31.2874 51.2719C33.8622 52.0227 36.5506 52.307 39.2255 52.1114C39.596 52.0826 39.9689 52.0465 40.3393 52.02L40.3754 53.242V53.3214L43.2861 54.5049L59.9995 61.3005Z" fill="url(#paint2_linear)"/>
    <path d="M24.6741 15.098L20.5538 13.5213C19.9508 13.2906 19.2749 13.5924 19.0441 14.1954L19.0432 14.1976C18.8125 14.8006 19.1143 15.4766 19.7173 15.7073L23.8376 17.284C24.4406 17.5148 25.1166 17.213 25.3473 16.61L25.3482 16.6077C25.5789 16.0047 25.2771 15.3288 24.6741 15.098Z" fill="#FF2609"/>
    <path d="M23.0726 18.6664L18.9522 17.0897C18.3492 16.8589 17.6733 17.1607 17.4425 17.7637L17.4417 17.766C17.2109 18.369 17.5127 19.0449 18.1157 19.2757L22.2361 20.8524C22.8391 21.0831 23.515 20.7813 23.7457 20.1783L23.7466 20.1761C23.9774 19.5731 23.6756 18.8971 23.0726 18.6664Z" fill="#F2D4CF"/>
    <path d="M30.1715 35.4776C30.204 35.4251 30.247 35.38 30.2979 35.345C30.3487 35.31 30.4063 35.286 30.4669 35.2744C30.5275 35.2629 30.5899 35.2641 30.65 35.278C30.7102 35.2918 30.7668 35.318 30.8162 35.355C31.3166 35.7086 32.2307 36.4519 33.5296 36.7117C35.3001 37.0629 36.8372 36.3556 37.2029 36.8127C37.4097 37.0701 37.1571 37.3828 36.6736 37.7869C36.1668 38.1651 35.5895 38.4382 34.9757 38.5902C34.3618 38.7422 33.7238 38.7701 33.099 38.6721C31.3959 38.3546 30.1162 36.3797 30.1162 35.6821C30.1159 35.6102 30.135 35.5396 30.1715 35.4776Z" fill="white"/>
    </g>
    <circle cx="32" cy="32" r="31.25" stroke="#9B9B9B" stroke-opacity="0.5" stroke-width="0.5"/>
    <defs>
    <linearGradient id="paint0_linear" x1="9.82589" y1="68.5842" x2="47.768" y2="18.4966" gradientUnits="userSpaceOnUse">
    <stop stop-color="#16243F"/>
    <stop offset="1" stop-color="#6878B1"/>
    </linearGradient>
    <linearGradient id="paint1_linear" x1="2252.42" y1="2615.3" x2="3844.89" y2="1120.43" gradientUnits="userSpaceOnUse">
    <stop stop-color="#16243F"/>
    <stop offset="1" stop-color="#6878B1"/>
    </linearGradient>
    <linearGradient id="paint2_linear" x1="5.51953" y1="58.8709" x2="59.9995" y2="58.8709" gradientUnits="userSpaceOnUse">
    <stop stop-color="#315676"/>
    <stop offset="1" stop-color="#E1B9E0"/>
    </linearGradient>
    </defs>
    </svg>
