<svg width="142" height="46" viewBox="0 0 142 46" fill="none" xmlns="http://www.w3.org/2000/svg">
    <path d="M40.7095 32.2288C40.4869 31.6915 40.2782 31.1266 40.0556 30.6444L39.0261 28.3435L38.9843 28.3022C35.9235 21.6889 32.654 14.9654 29.1898 8.3522L29.0507 8.07665C28.7028 7.4291 28.355 6.71267 27.9933 6.05134C27.5481 5.26602 27.1168 4.42558 26.4072 3.62648C25.7156 2.79036 24.8452 2.11672 23.8587 1.65416C22.8723 1.1916 21.7945 0.95166 20.7031 0.95166C19.6116 0.95166 18.5338 1.1916 17.5474 1.65416C16.5609 2.11672 15.6905 2.79036 14.9989 3.62648C14.345 4.42558 13.858 5.26602 13.4128 6.05134C13.065 6.76778 12.7172 7.47043 12.3554 8.11798L12.2163 8.39353C8.80771 15.0068 5.48258 21.7302 2.42179 28.3435L2.33832 28.4262C2.03224 29.1426 1.67051 29.8866 1.32269 30.6857C1.10009 31.1679 0.877488 31.6915 0.654885 32.2701C0.0539027 33.7854 -0.13801 35.4295 0.098061 37.0406C0.334132 38.6516 0.990038 40.174 2.00114 41.4576C3.01224 42.7412 4.34363 43.7417 5.8641 44.3606C7.38458 44.9794 9.04165 45.1953 10.672 44.9868C12.2351 44.7831 13.7401 44.2675 15.0962 43.4713C16.9049 42.4655 18.644 41.0051 20.5917 38.8971C22.5395 41.0051 24.3203 42.4655 26.0873 43.4851C27.7864 44.4727 29.7106 45.0178 31.6802 45.0695C33.9609 45.0789 36.1681 44.2708 37.8942 42.7944C39.6203 41.3181 40.7488 39.2731 41.0712 37.0372C41.4439 35.4304 41.3178 33.7496 40.7095 32.215V32.2288ZM20.7309 34.5159C18.3379 31.4848 16.7797 28.7017 16.251 26.3182C16.032 25.435 15.9847 24.5185 16.1119 23.6178C16.2093 22.9151 16.4736 22.2951 16.8353 21.7716C17.6701 20.5729 19.1309 19.8289 20.7309 19.8289C21.4907 19.806 22.2444 19.9702 22.9243 20.3068C23.6042 20.6435 24.1891 21.1421 24.6264 21.7578C24.9882 22.3089 25.2525 22.9151 25.336 23.6178C25.4751 24.4169 25.4195 25.34 25.1968 26.3182C24.6682 28.6604 23.1099 31.471 20.7309 34.5159ZM38.4556 36.5549C38.2976 37.6901 37.8419 38.7645 37.134 39.671C36.4261 40.5775 35.4907 41.2845 34.421 41.7215C33.3636 42.1624 32.1949 42.2864 31.0541 42.1624C29.9411 42.0247 28.8281 41.6664 27.6872 41.0051C25.793 39.8457 24.0897 38.4053 22.6369 36.7341C25.5586 33.1519 27.3255 29.8866 27.9933 26.9795C28.3133 25.6018 28.355 24.3618 28.2159 23.2182C28.0422 22.1343 27.634 21.1004 27.0194 20.1872C26.3176 19.1969 25.381 18.3925 24.2917 17.8448C23.2025 17.2971 21.994 17.0227 20.7726 17.0459C18.1988 17.0459 15.9032 18.2307 14.5119 20.1734C13.8856 21.0843 13.4809 22.1265 13.3293 23.2182C13.1485 24.3755 13.1902 25.6569 13.5519 26.9795C14.2197 29.8866 16.0284 33.1932 18.9083 36.7616C17.4802 38.4647 15.7729 39.9179 13.858 41.0602C12.7033 41.7215 11.6042 42.066 10.4911 42.2038C8.76025 42.4233 7.01179 41.9575 5.62583 40.9074C4.23987 39.8574 3.32842 38.3081 3.0896 36.5963C2.95048 35.4941 3.04787 34.3919 3.49307 33.1519C3.6322 32.711 3.84089 32.2701 4.06349 31.7466C4.36957 31.0301 4.7313 30.2861 5.07912 29.5421L5.13477 29.4457C8.1399 22.8738 11.4233 16.1641 14.8319 9.59218L14.971 9.31663C15.3188 8.65531 15.6667 7.95265 16.0284 7.29132C16.3901 6.58867 16.7797 5.91356 17.2805 5.36246C17.7141 4.84996 18.2558 4.43781 18.8675 4.15501C19.4793 3.87222 20.1462 3.72567 20.8213 3.72567C21.4964 3.72567 22.1633 3.87222 22.7751 4.15501C23.3868 4.43781 23.9285 4.84996 24.3621 5.36246C24.849 5.91356 25.2525 6.58867 25.6142 7.29132C25.962 7.95265 26.3099 8.66909 26.6716 9.31663L26.8107 9.59218C30.2054 16.1641 33.4888 22.8738 36.5496 29.4457L36.5913 29.487C36.9531 30.2035 37.2591 31.0026 37.607 31.6915C37.8296 32.2288 38.0522 32.6559 38.1913 33.1105C38.4556 34.3505 38.5948 35.4527 38.4556 36.5549ZM57.8221 34.2128C56.7737 34.2279 55.7353 34.0092 54.784 33.5727C53.8326 33.1362 52.9927 32.4933 52.3266 31.6915C50.8296 29.983 50.0352 27.7801 50.1005 25.5191C50.0776 23.2089 50.8977 20.9681 52.41 19.2089C53.1096 18.3969 53.9804 17.7466 54.9611 17.3039C55.9418 16.8611 57.0086 16.6367 58.0864 16.6463C59.1006 16.6188 60.1051 16.8472 61.0056 17.3099C61.9061 17.7727 62.673 18.4546 63.2341 19.2916L63.3732 17.1285H67.4357V33.7719H63.3593L63.2202 31.347C62.6417 32.2407 61.842 32.9731 60.8973 33.4747C59.9525 33.9762 58.8939 34.2303 57.8221 34.2128ZM58.8794 30.2448C59.6864 30.2448 60.3959 30.0244 61.0637 29.6248C61.6759 29.1839 62.1767 28.6053 62.5663 27.9026C62.9141 27.2 63.095 26.3595 63.095 25.4226C63.1492 24.6089 62.9893 23.7952 62.6308 23.0611C62.2723 22.3269 61.7276 21.6975 61.0498 21.2343C60.3986 20.8325 59.6467 20.6195 58.8794 20.6195C58.1122 20.6195 57.3603 20.8325 56.7091 21.2343C56.0969 21.6751 55.596 22.2538 55.2065 22.9565C54.8386 23.7314 54.6576 24.5804 54.6778 25.4364C54.6236 26.2501 54.7835 27.0639 55.142 27.798C55.5005 28.5322 56.0452 29.1616 56.723 29.6248C57.3769 30.0244 58.0864 30.2448 58.8794 30.2448ZM74.3921 12.637C74.3921 13.1192 74.3086 13.5601 74.086 13.9184C73.8634 14.2628 73.5573 14.5797 73.1538 14.8001C72.7504 15.0206 72.3191 15.1032 71.8739 15.1032C71.4287 15.1032 70.9835 15.0206 70.58 14.8001C70.1984 14.5897 69.8775 14.2862 69.6479 13.9184C69.4324 13.5259 69.3267 13.0835 69.3418 12.637C69.3418 12.141 69.4392 11.7002 69.6479 11.3557C69.8705 10.9424 70.1904 10.6944 70.58 10.474C70.9835 10.2535 71.4148 10.1571 71.8739 10.1571C72.3167 10.147 72.7547 10.2508 73.1448 10.4585C73.535 10.6662 73.8641 10.9706 74.0999 11.3419C74.3024 11.7436 74.4027 12.1882 74.3921 12.637ZM69.6618 33.7168V17.101H74.086V33.7443H69.6479L69.6618 33.7168ZM85.9118 21.4547V21.5098C85.7031 21.4134 85.4248 21.372 85.2161 21.3307C84.9379 21.2756 84.7153 21.2756 84.4509 21.2756C83.2127 21.2756 82.2806 21.6338 81.6684 22.3778C81.0006 23.1356 80.6945 24.1964 80.6945 25.5604V33.7305H76.2564V17.0872H80.3328L80.4719 19.6085C80.9171 18.7267 81.4458 18.0654 82.1971 17.5694C82.9444 17.0875 83.8241 16.8468 84.7153 16.8805C85.0353 16.8805 85.3413 16.9081 85.6057 16.9632C85.7448 17.0045 85.8283 17.0045 85.9118 17.0459V21.4547ZM87.6926 33.7168V10.2673H92.1168V19.2227C92.7429 18.4236 93.4524 17.8036 94.3429 17.3214C95.7525 16.637 97.3538 16.4428 98.8886 16.7703C100.423 17.0978 101.802 17.9277 102.802 19.1263C104.302 20.8383 105.097 23.0467 105.028 25.3124C105.051 27.6226 104.231 29.8634 102.718 31.6226C102.019 32.4346 101.148 33.0849 100.167 33.5276C99.1865 33.9704 98.1197 34.1948 97.0419 34.1852C96.0278 34.2127 95.0232 33.9843 94.1227 33.5216C93.2222 33.0588 92.4554 32.3769 91.8942 31.5399L91.7551 33.703L87.6926 33.7443V33.7168ZM96.2489 30.2448C97.0419 30.2448 97.7515 30.0244 98.4193 29.6248C99.0314 29.1839 99.5323 28.6053 99.9218 27.9026C100.284 27.2 100.451 26.3595 100.451 25.4226C100.451 24.4995 100.284 23.6591 99.9218 22.9565C99.5565 22.2789 99.0432 21.6906 98.4193 21.2343C97.7681 20.8325 97.0162 20.6195 96.2489 20.6195C95.4816 20.6195 94.7297 20.8325 94.0785 21.2343C93.4524 21.6751 92.9655 22.2538 92.562 22.9565C92.1941 23.7314 92.0131 24.5804 92.0333 25.4364C91.9791 26.2501 92.1391 27.0639 92.4975 27.798C92.856 28.5322 93.4008 29.1616 94.0785 29.6248C94.7324 30.0244 95.442 30.2448 96.2489 30.2448ZM106.697 33.7305V17.0872H110.774L110.913 19.2503C111.425 18.4211 112.152 17.7426 113.018 17.2847C113.884 16.8269 114.857 16.6065 115.838 16.6463C116.959 16.6271 118.062 16.9358 119.007 17.5337C119.952 18.1317 120.699 18.9923 121.153 20.008C121.64 21.0551 121.904 22.3502 121.904 23.7969V33.7719H117.466V24.3755C117.466 23.2182 117.201 22.3089 116.673 21.6338C116.144 20.9725 115.421 20.6143 114.502 20.6143C113.835 20.6143 113.25 20.752 112.735 21.0551C112.248 21.372 111.845 21.7716 111.539 22.3365C111.229 22.9075 111.076 23.5486 111.094 24.1964V33.7305H106.697ZM124.116 33.7305V10.2535H128.554V19.2089C129.155 18.4054 129.937 17.7517 130.838 17.2996C131.739 16.8476 132.734 16.6098 133.744 16.605C134.792 16.5898 135.83 16.8085 136.782 17.245C137.733 17.6815 138.573 18.3245 139.239 19.1263C140.729 20.8382 141.518 23.0399 141.451 25.2986C141.475 27.6091 140.655 29.8502 139.142 31.6088C138.442 32.4208 137.571 33.0711 136.591 33.5139C135.61 33.9566 134.543 34.1811 133.465 34.1714C132.451 34.1989 131.447 33.9705 130.546 33.5078C129.646 33.045 128.879 32.3631 128.318 31.5261L128.192 33.6892L124.116 33.7305ZM132.714 30.2448C133.521 30.2448 134.23 30.0244 134.884 29.6248C135.51 29.1839 135.997 28.6053 136.401 27.9026C136.749 27.2 136.93 26.3595 136.93 25.4226C136.984 24.6089 136.824 23.7952 136.465 23.0611C136.107 22.3269 135.562 21.6975 134.884 21.2343C134.233 20.8325 133.481 20.6195 132.714 20.6195C131.947 20.6195 131.195 20.8325 130.544 21.2343C129.931 21.6751 129.431 22.2538 129.041 22.9565C128.653 23.7244 128.471 24.5785 128.512 25.4364C128.458 26.2501 128.618 27.0639 128.977 27.798C129.335 28.5322 129.88 29.1616 130.558 29.6248C131.211 30.0244 131.879 30.2448 132.714 30.2448Z" fill="#FF385C"/>
</svg>
