<svg width="143" height="46" viewBox="0 0 143 46" fill="none" xmlns="http://www.w3.org/2000/svg">
    <path fill-rule="evenodd" clip-rule="evenodd" d="M88.708 35.4302C80.4614 41.6967 68.5085 45.0401 58.2172 45.0401C43.7872 45.0401 30.7966 39.5378 20.9686 30.3864C20.1965 29.6668 20.8883 28.686 21.8149 29.2465C32.4212 35.6085 45.5354 39.4359 59.082 39.4359C68.2181 39.4359 78.2685 37.4871 87.5096 33.4432C88.9056 32.8319 90.0731 34.3857 88.708 35.4302Z" fill="#FF9900"/>
    <path fill-rule="evenodd" clip-rule="evenodd" d="M92.1372 31.3866C91.0871 29.9983 85.1693 30.7306 82.5131 31.0554C81.7039 31.1573 81.5804 30.4313 82.3093 29.9091C87.0225 26.4893 94.7563 27.4764 95.6582 28.6227C96.5601 29.7754 95.4235 37.7677 90.9944 41.5824C90.3149 42.1683 89.6663 41.8562 89.969 41.0793C90.9635 38.5192 93.1935 32.7813 92.1372 31.3866Z" fill="#FF9900"/>
    <path fill-rule="evenodd" clip-rule="evenodd" d="M82.6973 5.76605V2.44176C82.6973 1.93866 83.0679 1.60114 83.5127 1.60114H97.9489C98.4122 1.60114 98.7828 1.94503 98.7828 2.44176V5.28843C98.7766 5.76605 98.3874 6.39016 97.6956 7.37725L90.215 18.3882C92.9947 18.3181 95.9289 18.7448 98.4492 20.2095C99.0175 20.5407 99.172 21.0247 99.2152 21.5023V25.0495C99.2152 25.5335 98.6963 26.1003 98.1527 25.8073C93.7113 23.4065 87.812 23.1454 82.9011 25.8328C82.4008 26.113 81.8757 25.5526 81.8757 25.0686V21.6997C81.8757 21.1584 81.8819 20.235 82.407 19.4135L91.0736 6.60031H83.5312C83.0679 6.60031 82.6973 6.26279 82.6973 5.76605Z" fill="black"/>
    <path fill-rule="evenodd" clip-rule="evenodd" d="M30.0371 26.5077H25.6451C25.2251 26.4759 24.8915 26.1511 24.8606 25.7371V2.49894C24.8606 2.03405 25.2374 1.66468 25.7069 1.66468H29.8024C30.2286 1.68378 30.5683 2.02131 30.5992 2.44162V5.47934H30.6795C31.7482 2.54352 33.7558 1.17432 36.4614 1.17432C39.2103 1.17432 40.9275 2.54352 42.163 5.47934C43.2255 2.54352 45.6408 1.17432 48.229 1.17432C50.0698 1.17432 52.0836 1.95763 53.3129 3.7153C54.7027 5.67039 54.4186 8.51068 54.4186 11.0007L54.4124 25.6671C54.4124 26.132 54.0356 26.5077 53.5661 26.5077H49.1803C48.7417 26.4759 48.3896 26.1129 48.3896 25.6671V13.3507C48.3896 12.3699 48.4761 9.92447 48.2661 8.99468C47.9387 7.43443 46.9565 6.99501 45.684 6.99501C44.6215 6.99501 43.5096 7.72738 43.0587 8.89916C42.6077 10.0709 42.651 12.0324 42.651 13.3507V25.6671C42.651 26.132 42.2742 26.5077 41.8047 26.5077H37.4189C36.9741 26.4759 36.6282 26.1129 36.6282 25.6671L36.622 13.3507C36.622 10.7587 37.0359 6.94407 33.9164 6.94407C30.7598 6.94407 30.8834 10.6632 30.8834 13.3507V25.6671C30.8834 26.132 30.5066 26.5077 30.0371 26.5077" fill="black"/>
    <path fill-rule="evenodd" clip-rule="evenodd" d="M111.211 1.17432C117.728 1.17432 121.256 6.94407 121.256 14.2804C121.256 21.3684 117.358 26.9917 111.211 26.9917C104.812 26.9917 101.328 21.222 101.328 14.0321C101.328 6.79759 104.855 1.17432 111.211 1.17432ZM111.249 5.91876C108.012 5.91876 107.808 10.4658 107.808 13.2997C107.808 16.14 107.765 22.2027 111.211 22.2027C114.615 22.2027 114.776 17.3118 114.776 14.3314C114.776 12.3699 114.695 10.0264 114.121 8.1668C113.627 6.54923 112.645 5.91876 111.249 5.91876Z" fill="black"/>
    <path fill-rule="evenodd" clip-rule="evenodd" d="M129.706 26.5077H125.333C124.894 26.4759 124.542 26.1129 124.542 25.6671L124.536 2.42252C124.573 1.99584 124.937 1.66468 125.382 1.66468H129.453C129.836 1.68378 130.151 1.95126 130.237 2.31426V5.86781H130.318C131.547 2.68999 133.27 1.17432 136.303 1.17432C138.274 1.17432 140.195 1.90668 141.431 3.91272C142.58 5.77228 142.58 8.89916 142.58 11.1472V25.7754C142.53 26.1829 142.166 26.5077 141.733 26.5077H137.329C136.927 26.4759 136.594 26.1702 136.551 25.7754V13.1532C136.551 10.6123 136.835 6.89312 133.802 6.89312C132.733 6.89312 131.751 7.63185 131.263 8.75268C130.645 10.1728 130.565 11.5866 130.565 13.1532V25.6671C130.559 26.132 130.176 26.5077 129.706 26.5077" fill="black"/>
    <path fill-rule="evenodd" clip-rule="evenodd" d="M71.1896 15.4079C71.1896 17.1719 71.2328 18.643 70.368 20.2096C69.67 21.4833 68.5581 22.2666 67.3288 22.2666C65.6424 22.2666 64.6541 20.942 64.6541 18.9869C64.6541 15.1277 68.0083 14.4272 71.1896 14.4272V15.4079ZM75.6186 26.4443C75.3283 26.7118 74.9083 26.7309 74.5809 26.5525C73.123 25.3043 72.8574 24.7248 72.0606 23.5339C69.6514 26.0686 67.9404 26.8264 64.8209 26.8264C61.1207 26.8264 58.2483 24.4765 58.2483 19.7702C58.2483 16.0957 60.1756 13.5929 62.9306 12.3702C65.315 11.2875 68.6446 11.0965 71.1896 10.7972V10.2113C71.1896 9.13503 71.2699 7.86135 70.6522 6.93157C70.1209 6.09731 69.0955 5.75342 68.1874 5.75342C66.5134 5.75342 65.0247 6.63862 64.6602 8.47272C64.5861 8.8803 64.2958 9.2815 63.8943 9.30061L59.6382 8.82934C59.2799 8.74656 58.8784 8.44724 58.9834 7.88046C59.9594 2.5565 64.6294 0.95166 68.8052 0.95166C70.9425 0.95166 73.7346 1.53755 75.421 3.20607C77.5583 5.26305 77.3544 8.00782 77.3544 10.9946V18.0508C77.3544 20.1714 78.2069 21.1012 79.0099 22.2475C79.2879 22.6551 79.3497 23.1455 78.9914 23.4511C78.0957 24.2217 76.502 25.6546 75.6248 26.457L75.6186 26.4443" fill="black"/>
    <path fill-rule="evenodd" clip-rule="evenodd" d="M13.6117 15.4084C13.6117 17.1725 13.6549 18.6436 12.7901 20.2102C12.0921 21.4839 10.9864 22.2672 9.75092 22.2672C8.06454 22.2672 7.08236 20.9425 7.08236 18.9875C7.08236 15.1282 10.4366 14.4277 13.6117 14.4277V15.4084ZM18.0408 26.4448C17.7504 26.7123 17.3304 26.7314 17.003 26.5531C15.5452 25.3049 15.2857 24.7254 14.4827 23.5345C12.0736 26.0691 10.3686 26.8269 7.24297 26.8269C3.54899 26.8269 0.67041 24.477 0.67041 19.7708C0.67041 16.0962 2.60388 13.5934 5.35274 12.3707C7.73715 11.2881 11.0667 11.097 13.6117 10.7977V10.2118C13.6117 9.13557 13.692 7.8619 13.0804 6.93212C12.543 6.09786 11.5176 5.75397 10.6157 5.75397C8.94171 5.75397 7.44682 6.63917 7.08236 8.47326C7.00824 8.88084 6.71791 9.28205 6.32257 9.30116L2.06028 8.82989C1.70201 8.74711 1.30666 8.44779 1.4055 7.88101C2.38768 2.55705 7.05148 0.952209 11.2273 0.952209C13.3646 0.952209 16.1567 1.5381 17.8431 3.20662C19.9804 5.2636 19.7765 8.00837 19.7765 10.9951V18.0513C19.7765 20.172 20.629 21.1018 21.432 22.2481C21.7162 22.6556 21.778 23.146 21.4197 23.4517C20.524 24.2223 18.9303 25.6552 18.0531 26.4576L18.0408 26.4448" fill="black"/>
</svg>
