<svg width="130" height="43" viewBox="0 0 130 43" fill="none" xmlns="http://www.w3.org/2000/svg">
    <path d="M55.5251 22.7141C55.5251 28.8338 50.7179 33.3433 44.8183 33.3433C38.9188 33.3433 34.1116 28.8338 34.1116 22.7141C34.1116 16.5514 38.9188 12.085 44.8183 12.085C50.7179 12.085 55.5251 16.5514 55.5251 22.7141ZM50.8382 22.7141C50.8382 18.89 48.052 16.2734 44.8183 16.2734C41.5847 16.2734 38.7985 18.89 38.7985 22.7141C38.7985 26.5 41.5847 29.1549 44.8183 29.1549C48.052 29.1549 50.8382 26.4952 50.8382 22.7141Z" fill="#EA4335"/>
    <path d="M78.6225 22.7141C78.6225 28.8338 73.8153 33.3433 67.9157 33.3433C62.0162 33.3433 57.209 28.8338 57.209 22.7141C57.209 16.5562 62.0162 12.085 67.9157 12.085C73.8153 12.085 78.6225 16.5514 78.6225 22.7141ZM73.9356 22.7141C73.9356 18.89 71.1494 16.2734 67.9157 16.2734C64.6821 16.2734 61.8959 18.89 61.8959 22.7141C61.8959 26.5 64.6821 29.1549 67.9157 29.1549C71.1494 29.1549 73.9356 26.4952 73.9356 22.7141Z" fill="#FBBC05"/>
    <path d="M100.758 12.7272V31.8098C100.758 39.6594 96.1095 42.8654 90.6141 42.8654C85.4412 42.8654 82.3278 39.4198 81.1537 36.602L85.2343 34.9103C85.9609 36.6403 87.7413 38.6818 90.6093 38.6818C94.1269 38.6818 96.3068 36.5205 96.3068 32.4519V30.9232H96.1432C95.0941 32.2123 93.0731 33.3385 90.5227 33.3385C85.1861 33.3385 80.2971 28.7092 80.2971 22.7525C80.2971 16.7526 85.1861 12.085 90.5227 12.085C93.0683 12.085 95.0893 13.2112 96.1432 14.462H96.3068V12.732H100.758V12.7272ZM96.6388 22.7525C96.6388 19.0098 94.1317 16.2734 90.9413 16.2734C87.7077 16.2734 84.9985 19.0098 84.9985 22.7525C84.9985 26.4569 87.7077 29.1549 90.9413 29.1549C94.1317 29.1549 96.6388 26.4569 96.6388 22.7525Z" fill="#4285F4"/>
    <path d="M108.097 1.54175V32.6911H103.525V1.54175H108.097Z" fill="#34A853"/>
    <path d="M125.91 26.2124L129.548 28.6276C128.374 30.3576 125.545 33.3384 120.655 33.3384C114.592 33.3384 110.064 28.6708 110.064 22.7093C110.064 16.3883 114.631 12.0801 120.131 12.0801C125.67 12.0801 128.379 16.4698 129.264 18.8419L129.75 20.0496L115.483 25.9344C116.575 28.0669 118.274 29.1548 120.655 29.1548C123.042 29.1548 124.698 27.9855 125.91 26.2124ZM114.713 22.3882L124.25 18.4442C123.726 17.1168 122.147 16.1919 120.29 16.1919C117.908 16.1919 114.592 18.286 114.713 22.3882Z" fill="#EA4335"/>
    <path d="M16.8082 19.9489V15.4394H32.0671C32.2163 16.2253 32.2933 17.155 32.2933 18.1614C32.2933 21.5447 31.3646 25.7283 28.3715 28.709C25.4602 31.7281 21.7405 33.3383 16.813 33.3383C7.67975 33.3383 -0.000244141 25.9296 -0.000244141 16.834C-0.000244141 7.73834 7.67975 0.32959 16.813 0.32959C21.8656 0.32959 25.465 2.30398 28.1694 4.8774L24.9742 8.05942C23.0349 6.24797 20.4076 4.83906 16.8082 4.83906C10.1387 4.83906 4.92246 10.192 4.92246 16.834C4.92246 23.476 10.1387 28.8289 16.8082 28.8289C21.1342 28.8289 23.5979 27.0989 25.1763 25.527C26.4563 24.2523 27.2984 22.4313 27.6304 19.9441L16.8082 19.9489Z" fill="#4285F4"/>
</svg>
