<svg width="169" height="36" viewBox="0 0 169 36" fill="none" xmlns="http://www.w3.org/2000/svg">
    <path d="M59.3306 20.7174L58.3288 23.5499H58.2453C58.0783 22.9112 57.7722 21.9393 57.2713 20.773L51.9003 7.30511H46.6406V28.7704H50.1192V15.5247C50.1192 14.6916 50.1192 13.7475 50.0914 12.5812C50.0636 11.998 50.0079 11.5537 49.9801 11.2205H50.0636C50.2306 12.0536 50.4254 12.6645 50.5645 13.0533L57.0208 28.7149H59.4698L65.8704 12.9144C66.0096 12.5534 66.1487 11.8314 66.2878 11.2205H66.3713C66.2878 12.8033 66.2322 14.2195 66.2044 15.0804V28.6871H69.9056V7.24957H64.8407L59.3306 20.7174ZM73.412 13.3032H77.0298V28.6871H73.412V13.3032ZM75.2488 6.80527C74.6365 6.80527 74.1356 7.02742 73.7182 7.41618C73.3007 7.80495 73.0781 8.30478 73.0781 8.9157C73.0781 9.49884 73.3007 9.99868 73.7182 10.3874C74.1356 10.7762 74.6365 10.9706 75.2488 10.9706C75.861 10.9706 76.3897 10.7484 76.7793 10.3874C77.1968 9.99868 77.4194 9.49884 77.4194 8.9157C77.4194 8.33255 77.1968 7.83271 76.7793 7.41618C76.4176 7.02742 75.8888 6.80527 75.2488 6.80527ZM89.8589 13.1643C89.191 13.0255 88.4953 12.9422 87.8274 12.9422C86.1855 12.9422 84.6828 13.3032 83.4305 14.0252C82.1782 14.7471 81.1763 15.7468 80.5363 16.9964C79.8684 18.2738 79.5344 19.7455 79.5344 21.4394C79.5344 22.9112 79.8684 24.2163 80.5084 25.4104C81.1485 26.5767 82.039 27.5208 83.2357 28.1595C84.3766 28.7982 85.7124 29.1314 87.2152 29.1314C88.9406 29.1314 90.4155 28.7704 91.5843 28.1039L91.6122 28.0762V24.7439L91.473 24.855C90.9443 25.2438 90.332 25.577 89.7198 25.7714C89.0797 25.9935 88.4953 26.1046 87.9944 26.1046C86.5473 26.1046 85.4063 25.6881 84.5993 24.7717C83.7644 23.8831 83.347 22.6613 83.347 21.134C83.347 19.5512 83.7644 18.3016 84.6271 17.3852C85.4898 16.4688 86.6308 15.9967 88.0222 15.9967C89.191 15.9967 90.3877 16.3855 91.473 17.163L91.6122 17.2741V13.7475L91.5843 13.7197C91.1112 13.5253 90.5825 13.3032 89.8589 13.1643ZM101.798 13.0533C100.907 13.0533 100.072 13.3309 99.3486 13.9141C98.7364 14.4139 98.3189 15.1359 97.9572 15.9967H97.9293V13.3032H94.3116V28.6871H97.9293V20.8285C97.9293 19.4956 98.2076 18.3849 98.8199 17.5796C99.4321 16.7465 100.211 16.33 101.157 16.33C101.491 16.33 101.825 16.4133 102.243 16.4688C102.632 16.5799 102.911 16.691 103.106 16.8298L103.245 16.9409V13.3309L103.161 13.3032C102.911 13.1366 102.41 13.0533 101.798 13.0533ZM111.649 12.9699C109.117 12.9699 107.085 13.7197 105.666 15.1915C104.219 16.6632 103.523 18.6903 103.523 21.245C103.523 23.6332 104.247 25.577 105.638 26.9932C107.029 28.3816 108.922 29.1036 111.287 29.1036C113.764 29.1036 115.74 28.3539 117.159 26.8543C118.606 25.3548 119.302 23.3555 119.302 20.8841C119.302 18.4404 118.634 16.4966 117.27 15.0804C115.962 13.6642 114.042 12.9699 111.649 12.9699ZM114.543 24.7995C113.875 25.6603 112.818 26.0768 111.51 26.0768C110.202 26.0768 109.144 25.6603 108.393 24.7439C107.642 23.8831 107.28 22.6335 107.28 21.0507C107.28 19.4123 107.669 18.1627 108.393 17.2741C109.144 16.3855 110.174 15.9412 111.482 15.9412C112.762 15.9412 113.764 16.3577 114.488 17.2186C115.211 18.0794 115.601 19.329 115.601 20.9674C115.545 22.6335 115.239 23.9386 114.543 24.7995ZM127.372 19.69C126.231 19.2179 125.508 18.8569 125.174 18.5515C124.896 18.2738 124.756 17.885 124.756 17.3852C124.756 16.9687 124.923 16.5521 125.341 16.2744C125.758 15.9967 126.231 15.8579 126.927 15.8579C127.539 15.8579 128.179 15.969 128.792 16.1356C129.404 16.3022 129.96 16.5521 130.406 16.8853L130.545 16.9964V13.6086L130.461 13.5809C130.044 13.4142 129.487 13.2476 128.819 13.1088C128.152 12.9977 127.539 12.9422 127.038 12.9422C125.313 12.9422 123.894 13.3587 122.781 14.2751C121.667 15.1359 121.139 16.3022 121.139 17.6629C121.139 18.3849 121.25 19.0235 121.5 19.5512C121.751 20.0788 122.113 20.5786 122.614 20.9951C123.115 21.3839 123.838 21.8282 124.84 22.2447C125.675 22.6057 126.315 22.8834 126.704 23.1056C127.094 23.3277 127.345 23.5776 127.539 23.772C127.678 23.9942 127.762 24.2719 127.762 24.6328C127.762 25.6603 126.983 26.1601 125.396 26.1601C124.784 26.1601 124.144 26.0491 123.393 25.7991C122.641 25.5492 121.946 25.1882 121.361 24.7717L121.222 24.6606V28.1873L121.306 28.215C121.834 28.4649 122.474 28.6316 123.254 28.8259C124.033 28.9648 124.729 29.0759 125.341 29.0759C127.205 29.0759 128.736 28.6593 129.821 27.743C130.934 26.8543 131.519 25.7158 131.519 24.2441C131.519 23.2166 131.241 22.3003 130.628 21.606C129.821 20.9396 128.819 20.2454 127.372 19.69ZM141.064 12.9699C138.532 12.9699 136.5 13.7197 135.081 15.1915C133.662 16.6632 132.938 18.6903 132.938 21.245C132.938 23.6332 133.662 25.577 135.053 26.9932C136.445 28.3816 138.337 29.1036 140.702 29.1036C143.179 29.1036 145.155 28.3539 146.574 26.8543C148.021 25.3548 148.717 23.3555 148.717 20.8841C148.717 18.4404 148.049 16.4966 146.686 15.0804C145.378 13.6642 143.457 12.9699 141.064 12.9699ZM143.931 24.7995C143.263 25.6603 142.205 26.0768 140.897 26.0768C139.561 26.0768 138.532 25.6603 137.78 24.7439C137.029 23.8831 136.667 22.6335 136.667 21.0507C136.667 19.4123 137.057 18.1627 137.78 17.2741C138.532 16.3855 139.561 15.9412 140.869 15.9412C142.122 15.9412 143.151 16.3577 143.875 17.2186C144.598 18.0794 144.988 19.329 144.988 20.9674C144.988 22.6335 144.626 23.9386 143.931 24.7995ZM168.058 16.2744V13.3032H164.413V8.74909L164.301 8.77685L160.851 9.8043L160.767 9.83207V13.3032H155.313V11.3594C155.313 10.4708 155.535 9.77653 155.925 9.33223C156.314 8.88793 156.899 8.66578 157.622 8.66578C158.123 8.66578 158.652 8.77685 159.236 9.02677L159.376 9.11008V5.97221L159.292 5.94444C158.791 5.77782 158.123 5.66675 157.261 5.66675C156.175 5.66675 155.229 5.91667 154.366 6.3332C153.504 6.80527 152.864 7.44395 152.391 8.30478C151.917 9.13785 151.667 10.082 151.667 11.165V13.3032H149.135V16.2467H151.667V28.6871H155.313V16.2744H160.767V24.1885C160.767 27.4375 162.298 29.0759 165.359 29.0759C165.86 29.0759 166.388 28.9925 166.889 28.9092C167.418 28.7982 167.808 28.6593 168.03 28.5482L168.058 28.5205V25.5492L167.919 25.6603C167.696 25.7991 167.502 25.9102 167.168 25.9935C166.889 26.0768 166.639 26.1046 166.444 26.1046C165.721 26.1046 165.22 25.938 164.858 25.5214C164.524 25.1327 164.357 24.494 164.357 23.5499V16.2744H168.058Z" fill="#737373"/>
    <path d="M0.00146484 0.085144H17.0606V17.1074H0.00146484V0.085144Z" fill="#F25022"/>
    <path d="M18.8408 0.0848999H35.9V17.1072H18.8408V0.0848999Z" fill="#7FBA00"/>
    <path d="M0.000244141 18.8846H17.0594V35.9069H0.000244141V18.8846Z" fill="#00A4EF"/>
    <path d="M18.8408 18.8846H35.9V35.9069H18.8408V18.8846Z" fill="#FFB900"/>
</svg>
