<svg width="166" height="39" viewBox="0 0 166 39" fill="none" xmlns="http://www.w3.org/2000/svg">
    <path d="M58.8369 13.8064V15.9926H58.904C59.6937 14.8221 61.0048 13.4436 63.9108 13.4436C66.1715 13.4436 67.9058 14.5899 68.6491 16.3215H68.7162C69.3511 15.4461 70.0789 14.7834 70.8944 14.3142C71.8596 13.758 72.9332 13.4388 74.2856 13.4388C77.3464 13.4388 80.0562 15.4219 80.0562 20.4232V29.9083H75.3901V21.0858C75.3901 18.5513 74.4714 17.0858 72.5616 17.0858C71.1628 17.0858 70.146 17.9661 69.7588 19.0495C69.6246 19.422 69.5627 19.9298 69.5627 20.3555V29.9131H64.8966V20.7279C64.8966 18.5755 64.014 17.0809 62.13 17.0809C60.6228 17.0809 59.6783 18.1934 59.2911 19.1463C59.126 19.5526 59.0744 20.0217 59.0744 20.4619V29.9083H54.4031V13.8064H58.8369ZM104.14 13.8064V16.8439H104.269C105.126 14.5222 107.16 13.4436 108.946 13.4436C109.395 13.4436 109.642 13.4775 110.004 13.5452V17.7629C109.575 17.7049 109.178 17.6468 108.62 17.6468C106.597 17.6468 105.188 18.7496 104.832 20.4764C104.754 20.8343 104.729 21.2213 104.729 21.6663V29.9131H99.9386V13.8064H104.14ZM116.507 8.47131V13.5403H120.554V17.642H116.507V23.6929C116.507 25.6518 117.039 26.5999 118.618 26.5999C119.362 26.5999 119.909 26.5128 120.384 26.4015L120.446 29.8019C119.811 30.0244 118.458 30.2662 117.085 30.2662C115.47 30.2662 114.123 29.739 113.302 28.9215C112.363 27.988 111.929 26.4596 111.929 24.283V8.47131H116.507ZM51.1513 29.9083H46.5059V8.47131H51.1513V29.9083ZM38.7635 24.1572C38.7635 24.4523 38.7377 24.7618 38.65 25.0279C38.2887 26.1452 37.055 27.0884 35.5169 27.0884C34.2316 27.0884 33.2096 26.4064 33.2096 24.9602C33.2096 22.7497 35.8111 22.1354 38.7687 22.1499V24.1572H38.7635ZM43.4038 20.3023C43.4038 16.6504 41.7417 13.4436 36.1208 13.4436C33.2355 13.4436 30.9437 14.203 29.6946 14.8801L30.6082 17.8113C31.7489 17.1341 33.571 16.5779 35.2949 16.5779C38.1493 16.573 38.6138 18.0918 38.6138 19.064V19.2962C32.3941 19.2865 28.4662 21.3035 28.4662 25.4148C28.4662 27.9252 30.4637 30.2759 33.9426 30.2759C36.0847 30.2759 37.8706 29.4778 38.9442 28.196H39.0474C39.0474 28.196 39.7597 30.9772 43.6722 29.9131C43.4657 28.7523 43.3986 27.5189 43.3986 26.0339V20.3023H43.4038ZM5.13062 8.47131C5.61064 10.7398 6.9733 17.3276 6.9733 17.3276C7.54624 20.0362 8.07272 22.8755 8.47016 25.1198H8.54243C8.92954 22.7352 9.53861 20.4764 10.189 17.6807L12.4859 8.47131H17.57L19.7173 17.9177C20.2799 20.5441 20.7289 22.5708 21.0851 25.0134H21.1522C21.5393 22.5466 22.0451 20.4377 22.5974 17.7387L24.6621 8.47131H29.5398L23.4955 29.9083C19.645 30.6967 18.1688 29.2456 17.6423 26.9433C17.1158 24.6361 16.0835 20.2491 16.0835 20.2491C15.5519 17.8451 15.1389 16.1522 14.8499 13.6854H14.7776C14.3647 16.1281 13.9311 17.8403 13.2911 20.2442L10.7567 29.9131C6.82362 30.6483 5.46096 29.56 4.70737 26.6047C4.05701 24.075 0 8.47615 0 8.47615H5.13062V8.47131ZM92.1963 24.1572C92.1963 24.4523 92.1704 24.7618 92.0827 25.0279C91.7214 26.1452 90.4878 27.0884 88.9496 27.0884C87.6644 27.0884 86.6424 26.4064 86.6424 24.9602C86.6424 22.7497 89.2438 22.1354 92.2014 22.1499V24.1572H92.1963ZM96.8365 20.3023C96.8365 16.6504 95.1745 13.4436 89.5535 13.4436C86.6682 13.4436 84.3765 14.203 83.1273 14.8801L84.0409 17.8113C85.1817 17.1341 87.0037 16.5779 88.7277 16.5779C91.5769 16.573 92.0466 18.0918 92.0466 19.064V19.2962C85.832 19.2865 81.9041 21.3035 81.9041 25.4148C81.9041 27.9252 83.9067 30.2759 87.3805 30.2759C89.5174 30.2759 91.3085 29.4778 92.3769 28.196H92.4853C92.4853 28.196 93.1976 30.9772 97.1101 29.9131C96.9036 28.7523 96.8365 27.5189 96.8365 26.0339V20.3023Z" fill="#041E42"/>
    <path d="M139.385 22.5252C139.843 23.308 139.812 24.1818 139.324 24.5808L130.875 30.3942C129.996 30.8942 128.679 30.2881 127.933 29.0204C127.181 27.7476 127.315 26.3284 128.195 25.8283L137.549 21.5554C138.135 21.3332 138.927 21.7423 139.385 22.5252ZM150.504 22.5252C150.967 21.7423 151.754 21.3383 152.34 21.5504L161.699 25.8233C162.579 26.3233 162.708 27.7426 161.962 29.0153C161.21 30.2831 159.888 30.8841 159.013 30.3891L150.565 24.5758C150.082 24.1818 150.046 23.303 150.504 22.5252ZM144.942 25.6768C145.863 25.6768 146.619 26.1415 146.722 26.7526L147.633 36.8439C147.633 37.844 146.444 38.6622 144.947 38.6622C143.455 38.6622 142.261 37.844 142.261 36.8439L143.167 26.7526C143.27 26.1415 144.026 25.6768 144.942 25.6768ZM150.565 14.1713L159.013 8.3529C159.888 7.85288 161.21 8.45392 161.962 9.7267C162.708 10.9995 162.579 12.4187 161.699 12.9187L152.34 17.1967C151.754 17.4088 150.962 17.0048 150.504 16.2219C150.046 15.439 150.082 14.5653 150.565 14.1713ZM137.549 17.1967L128.195 12.9187C127.32 12.4187 127.186 10.9995 127.933 9.7267C128.679 8.45392 130.001 7.85288 130.875 8.3529L139.324 14.1713C139.812 14.5602 139.843 15.439 139.385 16.2219C138.927 17.0048 138.135 17.4088 137.549 17.1967ZM143.167 11.9945L142.261 1.90315C142.261 0.903114 143.45 0.0848999 144.947 0.0848999C146.444 0.0848999 147.633 0.903114 147.633 1.90315L146.722 11.9945C146.619 12.6005 145.863 13.0703 144.942 13.0703C144.026 13.0703 143.27 12.6005 143.167 11.9945ZM164.246 30.3538V30.1012H164.477C164.555 30.1012 164.606 30.1517 164.606 30.2275C164.606 30.2982 164.555 30.3538 164.477 30.3538H164.246ZM164.056 30.8134C164.056 30.8386 164.076 30.8639 164.107 30.8639H164.205C164.231 30.8639 164.256 30.8386 164.256 30.8134V30.5255H164.416L164.544 30.8285C164.555 30.8487 164.57 30.8639 164.591 30.8639H164.709C164.745 30.8639 164.771 30.8285 164.755 30.7932C164.709 30.7023 164.663 30.6063 164.616 30.5103C164.694 30.4851 164.812 30.4093 164.812 30.2275C164.812 30.0356 164.652 29.9245 164.493 29.9245H164.107C164.081 29.9245 164.056 29.9497 164.056 29.975V30.8134ZM163.639 30.3942C163.639 29.9851 163.978 29.6517 164.395 29.6517C164.812 29.6517 165.151 29.98 165.151 30.3942C165.151 30.8033 164.817 31.1366 164.395 31.1366C163.973 31.1366 163.639 30.8033 163.639 30.3942ZM163.459 30.3942C163.459 30.8993 163.875 31.3134 164.395 31.3134C164.91 31.3134 165.332 30.8993 165.332 30.3942C165.332 29.8891 164.91 29.475 164.395 29.475C163.875 29.475 163.459 29.8891 163.459 30.3942Z" fill="#FFC124"/>
</svg>
